<svg width="375" height="374" viewBox="0 0 375 374" fill="none" xmlns="http://www.w3.org/2000/svg">
<path d="M223.946 352.963C221.518 344.196 212.751 337.857 211.807 338.127C210.728 338.397 211.807 338.936 211.133 342.982C210.459 346.758 209.245 351.614 209.784 356.065C210.728 365.101 220.034 369.551 221.113 369.417C221.248 369.417 226.373 361.19 223.946 352.963ZM211.538 358.357C209.649 352.693 211.942 355.66 219.09 361.594C220.169 366.45 221.248 366.315 211.538 358.357ZM212.617 343.252C212.886 341.499 212.482 340.959 213.83 344.196C212.482 343.252 212.617 343.117 212.617 343.252ZM214.37 345.68C216.663 351.614 216.663 350.67 211.942 346.758C212.617 343.252 211.942 343.656 214.37 345.68ZM216.258 351.209C218.011 356.604 218.821 356.334 211.268 350.13C211.807 346.624 210.998 346.893 216.258 351.209ZM222.192 351.884C218.955 361.864 220.034 360.65 218.821 356.334C221.248 348.512 220.709 347.972 222.192 351.884ZM220.034 361.055C223.136 351.614 222.732 351.614 223.406 356.334C223.406 357.009 223.811 355.93 220.709 364.157C220.439 363.213 220.304 362.134 220.034 361.055ZM220.574 348.377C217.877 356.874 218.955 356.199 217.337 351.074C219.09 345.545 218.416 345.005 220.574 348.377ZM218.281 345.41C216.393 351.344 217.337 351.209 215.314 345.814C216.393 342.577 215.719 342.308 218.281 345.41ZM215.044 342.038C215.719 342.712 215.719 342.173 215.044 344.735C213.156 339.88 212.617 340.015 215.044 342.038ZM217.877 356.469C219.36 361.864 220.304 361.459 210.998 353.907C211.268 349.995 210.054 350.13 217.877 356.469ZM211.942 359.571C221.113 367.124 219.9 365.505 220.304 368.068C216.258 366.18 213.291 362.808 211.942 359.571ZM223.271 360.65C222.597 364.022 222.732 363.617 221.518 366.854C221.113 367.798 221.248 367.798 220.979 365.775C224.215 356.874 223.406 358.627 223.271 360.65Z" fill="#04943C"/>
<path d="M78.6907 15.5177C76.6676 6.6163 68.3057 -0.262071 67.3616 0.00766893C66.2826 0.277409 67.3616 0.816889 66.4175 4.86299C65.6083 8.50448 63.9898 13.4947 64.2596 17.9454C64.6642 26.9817 73.7005 31.9719 74.7794 31.837C75.184 31.7021 80.5788 23.8797 78.6907 15.5177ZM66.0129 20.1033C64.3944 14.3039 66.5524 17.4059 73.4307 23.7448C74.2399 28.735 75.3189 28.735 66.0129 20.1033ZM67.9011 5.13273C68.3057 3.37942 67.9011 2.83994 69.1149 6.21169C67.7662 5.13273 67.9011 5.13273 67.9011 5.13273ZM69.5195 7.69526C71.4077 13.7644 71.5425 12.8203 67.0918 8.63935C67.9011 5.2676 67.2267 5.53734 69.5195 7.69526ZM71.1379 13.3598C72.6215 18.7546 73.4307 18.6197 66.2826 12.0111C66.957 8.50448 66.0129 8.77422 71.1379 13.3598ZM77.0722 14.3039C73.2959 24.1494 74.3748 22.9356 73.4307 18.6197C76.263 10.7973 75.7235 10.2578 77.0722 14.3039ZM74.3748 23.3402C78.0163 14.169 77.4768 14.0342 77.8814 18.8895C77.8814 19.5638 78.286 18.6197 74.7794 26.5771C74.6446 25.4981 74.5097 24.4191 74.3748 23.3402ZM75.4538 10.6624C72.3518 19.0243 73.4307 18.35 72.082 13.2249C74.2399 7.83013 73.5656 7.15578 75.4538 10.6624ZM73.5656 7.56039C71.4077 13.3598 72.3518 13.2249 70.5985 7.83013C71.6774 4.72812 71.1379 4.32351 73.5656 7.56039ZM70.3287 4.05377C71.0031 4.72812 71.0031 4.18864 70.1938 6.75117C68.5754 1.89585 68.1708 1.89585 70.3287 4.05377ZM72.4866 18.6197C73.7005 24.1494 74.6446 23.7448 65.7431 15.7875C66.1477 11.8762 65.0688 11.8762 72.4866 18.6197ZM66.4175 21.452C75.184 29.4093 74.1051 27.7909 74.2399 30.4883C70.3287 28.1955 67.6313 24.8238 66.4175 21.452ZM77.6117 23.0704C76.8025 26.4422 76.9373 26.0376 75.4538 29.1396C74.9143 30.0837 75.184 30.0837 74.9143 28.0606C78.6907 19.2941 77.8814 21.0474 77.6117 23.0704Z" fill="#04943C"/>
<path d="M323.884 303.33C316.736 297.801 305.947 297.801 305.272 298.745C304.598 299.554 305.812 299.284 307.7 303.061C309.453 306.432 311.341 311.153 314.443 314.39C320.513 320.998 330.763 319.11 331.437 318.301C331.572 318.166 330.763 308.59 323.884 303.33ZM317.141 315.064C312.151 311.557 315.792 312.636 325.098 313.041C328.875 316.413 329.684 315.738 317.141 315.064ZM308.914 302.386C308.105 300.768 307.565 300.633 310.532 302.521C308.914 302.386 308.914 302.251 308.914 302.386ZM311.746 303.33C317.141 306.702 316.601 305.893 310.397 305.623C309.049 302.386 308.644 303.061 311.746 303.33ZM316.736 306.567C321.322 309.804 321.861 309.13 312.151 308.725C310.397 305.488 309.858 306.297 316.736 306.567ZM321.861 303.6C325.233 313.58 325.368 311.962 321.726 309.265C319.029 301.442 318.355 301.307 321.861 303.6ZM325.638 312.232C322.536 302.791 322.131 303.061 325.503 306.432C326.042 306.972 325.638 305.893 328.065 314.39C327.256 313.715 326.447 312.906 325.638 312.232ZM318.355 301.712C321.322 310.209 321.726 308.86 317.411 305.758C315.522 300.363 314.713 300.228 318.355 301.712ZM314.848 300.633C316.871 306.432 317.545 305.758 312.825 302.656C311.611 299.554 310.937 299.689 314.848 300.633ZM310.128 299.959C311.072 300.093 310.802 299.689 311.611 302.117C307.43 299.284 307.026 299.689 310.128 299.959ZM321.052 309.804C325.503 313.311 325.907 312.367 314.039 311.827C311.881 308.59 311.072 309.399 321.052 309.804ZM318.22 315.873C330.088 316.413 328.2 315.873 329.953 317.761C325.638 318.436 321.187 317.627 318.22 315.873ZM327.93 309.939C329.414 313.041 329.279 312.636 330.223 315.873C330.493 316.952 330.628 316.817 329.144 315.334C326.312 306.297 326.851 308.186 327.93 309.939Z" fill="#04943C"/>
<path d="M314.443 366.854C322.671 363.078 327.661 353.502 327.256 352.558C326.851 351.614 326.447 352.693 322.266 352.693C318.49 352.693 313.364 352.153 309.049 353.367C300.282 355.66 297.315 365.505 297.72 366.584C297.854 366.854 306.621 370.496 314.443 366.854ZM307.295 355.39C312.69 352.693 309.993 355.255 305.272 363.347C300.552 365.236 300.822 366.315 307.295 355.39ZM322.266 354.176C324.019 354.176 324.424 353.772 321.457 355.525C322.266 354.041 322.401 354.176 322.266 354.176ZM320.108 356.199C314.578 359.301 315.522 359.301 318.624 354.041C322.266 354.176 321.726 353.637 320.108 356.199ZM314.983 359.032C309.993 361.594 310.397 362.403 315.253 353.907C318.759 353.907 318.355 353.097 314.983 359.032ZM315.253 365.101C304.868 363.482 306.216 364.292 310.397 362.403C318.49 363.482 318.894 362.943 315.253 365.101ZM305.812 364.292C315.522 365.91 315.522 365.371 310.937 366.854C310.262 366.989 311.341 367.124 302.71 365.505C303.789 365.101 304.733 364.696 305.812 364.292ZM318.49 362.808C309.588 361.594 310.532 362.403 315.253 359.976C321.052 360.92 321.457 360.245 318.49 362.808ZM321.052 360.111C314.983 359.167 315.253 360.111 320.243 357.278C323.48 357.818 323.749 357.143 321.052 360.111ZM323.884 356.334C323.345 357.143 323.884 357.009 321.322 356.739C325.638 354.176 325.503 353.772 323.884 356.334ZM310.128 361.459C305.003 363.752 305.542 364.561 311.611 354.311C315.388 353.907 315.118 352.693 310.128 361.459ZM305.947 356.064C299.877 366.315 301.361 364.831 298.799 365.64C300.282 361.459 302.979 357.953 305.947 356.064ZM306.756 367.394C303.384 367.259 303.654 367.394 300.417 366.584C299.338 366.315 299.473 366.45 301.361 365.775C310.667 367.798 308.779 367.259 306.756 367.394Z" fill="#04943C"/>
<path d="M148.149 144.184C140.596 139.059 129.806 139.868 129.267 140.677C128.727 141.621 129.806 141.217 131.964 144.858C133.852 148.095 136.145 152.681 139.382 155.783C145.856 162.121 155.836 159.559 156.511 158.615C156.78 158.48 155.297 148.904 148.149 144.184ZM142.08 156.322C136.955 153.22 140.596 154.029 149.902 153.894C154.083 156.861 154.757 156.052 142.08 156.322ZM133.178 144.049C132.234 142.565 131.695 142.43 134.797 144.049C133.178 144.184 133.178 144.049 133.178 144.049ZM136.145 144.858C141.675 147.96 141.135 147.151 134.931 147.286C133.313 144.184 133.043 144.858 136.145 144.858ZM141.27 147.825C146.126 150.792 146.53 149.983 136.82 150.253C134.797 147.151 134.257 147.96 141.27 147.825ZM146.126 144.453C150.037 154.164 150.172 152.681 146.395 149.983C143.159 142.43 142.484 142.43 146.126 144.453ZM150.442 152.95C146.665 143.779 146.395 144.049 149.902 147.151C150.442 147.69 149.902 146.611 153.004 154.838C152.06 154.299 151.251 153.625 150.442 152.95ZM142.619 142.835C146.126 151.062 146.395 149.848 141.945 147.016C139.652 141.621 138.843 141.621 142.619 142.835ZM138.978 142.026C141.405 147.69 141.945 147.016 137.089 144.184C135.606 141.217 134.931 141.351 138.978 142.026ZM134.257 141.621C135.201 141.621 134.931 141.351 135.876 143.644C131.425 141.217 131.155 141.486 134.257 141.621ZM145.721 150.792C150.307 154.029 150.846 153.085 138.843 153.355C136.55 150.118 135.741 150.927 145.721 150.792ZM143.293 156.996C155.162 156.861 153.274 156.457 155.162 158.075C150.846 159.154 146.395 158.615 143.293 156.996ZM152.599 150.523C154.353 153.49 154.083 153.22 155.297 156.322C155.567 157.401 155.701 157.266 154.083 155.917C150.846 147.016 151.386 148.769 152.599 150.523Z" fill="#04943C"/>
<path d="M125.086 290.518C117.938 284.988 107.148 285.123 106.474 285.932C105.8 286.741 107.013 286.472 108.902 290.248C110.655 293.62 112.543 298.34 115.645 301.577C121.849 308.186 131.964 306.297 132.639 305.488C132.908 305.219 131.964 295.643 125.086 290.518ZM118.342 302.251C113.352 298.745 116.994 299.824 126.3 300.228C130.211 303.6 131.02 302.791 118.342 302.251ZM110.25 289.574C109.441 287.955 108.902 287.82 111.869 289.708C110.115 289.574 110.25 289.439 110.25 289.574ZM113.083 290.383C118.477 293.755 117.938 292.945 111.734 292.676C110.25 289.574 109.981 290.248 113.083 290.383ZM118.073 293.755C122.658 296.991 123.198 296.317 113.487 295.912C111.734 292.676 111.059 293.35 118.073 293.755ZM123.198 290.653C126.57 300.633 126.704 299.014 123.198 296.317C120.366 288.495 119.556 288.36 123.198 290.653ZM126.839 299.419C123.602 289.978 123.333 290.248 126.704 293.62C127.244 294.159 126.839 293.08 129.267 301.577C128.458 300.768 127.648 300.093 126.839 299.419ZM119.691 288.899C122.658 297.396 123.063 296.047 118.747 292.945C116.859 287.416 115.915 287.416 119.691 288.899ZM116.185 287.82C118.208 293.62 118.882 292.945 114.161 289.843C112.813 286.741 112.138 286.876 116.185 287.82ZM111.464 287.011C112.408 287.146 112.138 286.741 112.948 289.169C108.767 286.472 108.362 286.876 111.464 287.011ZM122.389 296.991C126.839 300.498 127.244 299.554 115.375 299.014C113.217 295.778 112.408 296.452 122.389 296.991ZM119.556 303.061C131.425 303.6 129.537 303.061 131.29 304.949C126.974 305.623 122.523 304.814 119.556 303.061ZM129.267 296.991C130.75 300.093 130.616 299.689 131.56 302.926C131.829 304.005 131.964 303.87 130.481 302.386C127.648 293.485 128.053 295.238 129.267 296.991Z" fill="#04943C"/>
<path d="M270.341 230.366C271.15 221.329 265.351 212.293 264.272 212.158C263.193 212.023 264.002 212.833 261.979 216.474C260.091 219.711 257.124 223.892 256.045 228.208C253.752 236.974 260.765 244.527 261.844 244.662C261.979 244.662 269.667 238.862 270.341 230.366ZM256.854 230.905C257.124 224.836 258.203 228.477 262.788 236.57C261.979 241.56 263.058 241.83 256.854 230.905ZM263.193 217.283C264.137 215.8 263.867 215.125 264.002 218.632C263.193 217.148 263.193 217.148 263.193 217.283ZM264.002 220.116C264.002 226.454 264.407 225.645 261.305 220.25C263.193 217.283 262.384 217.418 264.002 220.116ZM263.867 226.05C263.597 231.714 264.542 231.714 259.551 223.218C261.305 220.116 260.361 219.981 263.867 226.05ZM269.127 228.747C262.518 236.974 263.867 236.165 264.407 231.714C269.397 225.106 269.127 224.431 269.127 228.747ZM263.732 236.57C269.936 228.882 269.532 228.612 268.453 233.333C268.183 234.007 268.857 233.198 263.193 239.807C263.463 238.728 263.597 237.649 263.732 236.57ZM268.723 224.836C263.193 231.849 264.407 231.579 264.676 226.185C268.453 221.599 268.048 220.925 268.723 224.836ZM267.778 221.194C263.867 226.05 264.946 226.185 264.946 220.52C266.969 217.958 266.43 217.418 267.778 221.194ZM265.89 216.879C266.295 217.688 266.43 217.283 264.946 219.306C264.946 214.316 264.407 214.181 265.89 216.879ZM263.463 231.445C262.923 236.974 263.867 236.974 257.933 226.589C259.416 223.083 258.338 222.678 263.463 231.445ZM256.719 232.254C262.653 242.639 261.979 240.616 261.44 243.178C258.472 239.941 256.854 235.76 256.719 232.254ZM266.969 237.244C265.216 240.211 265.351 239.807 263.058 242.369C262.249 243.178 262.518 243.178 262.923 241.155C269.127 234.007 267.778 235.356 266.969 237.244Z" fill="#04943C"/>
<path d="M361.783 23.0705C367.043 15.6526 366.503 4.86301 365.559 4.32353C364.615 3.78405 365.02 4.86301 361.378 6.88606C358.141 8.77424 353.421 10.9322 350.319 14.0342C343.98 20.5079 346.273 30.4883 347.082 31.1627C347.352 31.4324 356.927 30.2186 361.783 23.0705ZM349.779 16.8664C353.016 11.7414 352.072 15.3829 352.072 24.8238C348.835 28.735 349.779 29.5442 349.779 16.8664ZM362.052 8.23476C363.671 7.29067 363.806 6.75119 362.052 9.8532C362.052 8.09989 362.187 8.09989 362.052 8.23476ZM361.378 11.067C358.276 16.5967 358.951 16.0572 359.085 9.8532C362.053 8.23476 361.378 7.96502 361.378 11.067ZM358.276 16.1921C355.174 20.9125 355.983 21.452 355.983 11.6065C358.95 9.71833 358.276 9.17885 358.276 16.1921ZM361.513 21.1823C351.668 24.9586 353.286 25.0935 355.983 21.3172C363.536 18.2151 363.671 17.5408 361.513 21.1823ZM353.016 25.2284C362.187 21.7218 362.052 21.3172 358.816 24.8238C358.276 25.3632 359.355 24.8238 350.993 27.7909C351.668 26.9817 352.342 26.0376 353.016 25.2284ZM363.131 17.5408C354.77 20.9125 356.118 21.1823 358.95 16.7316C364.48 14.7085 364.48 13.7644 363.131 17.5408ZM364.076 14.0342C358.276 16.327 359.085 17.0013 361.918 12.0111C365.02 10.6624 364.885 9.98807 364.076 14.0342ZM364.615 9.31372C364.615 10.2578 364.885 9.98807 362.592 10.9322C365.02 6.48145 364.75 6.21171 364.615 9.31372ZM355.174 20.6428C351.937 25.2284 352.746 25.633 352.746 13.7644C355.983 11.3368 355.174 10.6624 355.174 20.6428ZM348.97 18.0803C348.97 29.9488 349.375 28.0607 347.621 29.9488C346.677 25.4981 347.352 21.1823 348.97 18.0803ZM355.309 27.5212C352.342 29.1396 352.612 29.0047 349.375 30.0837C348.296 30.3534 348.431 30.4883 349.779 29.0047C358.951 25.7679 357.062 26.3073 355.309 27.5212Z" fill="#04943C"/>
<path d="M17.7294 162.796C25.8216 158.615 30.2723 148.769 29.7328 147.825C29.1934 146.881 28.9236 148.095 24.8775 148.23C21.1012 148.365 15.9761 148.095 11.7951 149.579C3.16345 152.276 0.73579 162.391 1.1404 163.335C1.1404 163.605 10.1767 166.842 17.7294 162.796ZM10.0418 151.736C15.3018 148.769 12.7392 151.467 8.42338 159.829C3.70293 161.852 4.10754 162.931 10.0418 151.736ZM24.8775 149.713C26.6308 149.579 27.0354 149.174 24.2032 151.062C25.0124 149.579 25.0124 149.713 24.8775 149.713ZM22.9893 151.871C17.7294 155.243 18.5386 155.243 21.5058 149.713C24.8775 149.713 24.338 149.039 22.9893 151.871ZM17.8643 154.973C13.009 157.806 13.4136 158.615 17.8643 149.848C21.5058 149.579 21.1012 148.769 17.8643 154.973ZM18.4038 160.908C7.8839 159.829 9.36747 160.503 13.4136 158.48C21.6406 159.154 22.0453 158.615 18.4038 160.908ZM8.96286 160.638C18.8084 161.717 18.8084 161.312 14.2228 162.931C13.5484 163.066 14.6274 163.2 5.99572 161.987C7.07468 161.447 8.01877 161.042 8.96286 160.638ZM21.5058 158.48C12.6044 157.671 13.5484 158.48 18.134 155.917C24.0683 156.457 24.4729 155.783 21.5058 158.48ZM24.0683 155.648C17.8643 154.973 18.2689 155.917 23.1242 152.95C26.3611 153.22 26.496 152.546 24.0683 155.648ZM26.6308 151.736C26.2262 152.546 26.6308 152.411 24.0683 152.276C28.3841 149.579 28.1144 149.039 26.6308 151.736ZM13.1438 157.536C8.15364 160.098 8.69312 160.908 14.2228 150.253C17.9992 149.713 17.7294 148.634 13.1438 157.536ZM8.82799 152.411C3.29832 162.931 4.64702 161.447 2.21936 162.256C3.29832 157.94 5.86085 154.434 8.82799 152.411ZM10.0418 163.74C6.67007 163.875 6.93981 163.875 3.70293 163.335C2.62397 163.066 2.75884 163.335 4.64702 162.526C14.0879 163.74 12.1997 163.335 10.0418 163.74Z" fill="#04943C"/>
<path d="M360.299 151.332C368.122 146.881 372.303 136.901 371.763 135.957C371.224 135.013 371.089 136.226 366.908 136.496C363.132 136.766 358.006 136.766 353.826 138.249C345.329 141.351 343.171 151.332 343.575 152.411C343.71 152.546 352.881 155.513 360.299 151.332ZM352.207 140.542C357.332 137.305 354.904 140.272 350.858 148.634C346.273 150.792 346.677 151.871 352.207 140.542ZM367.043 137.98C368.796 137.845 369.201 137.44 366.368 139.328C367.043 137.845 367.178 137.98 367.043 137.98ZM365.155 140.272C359.895 143.914 360.839 143.779 363.536 138.115C367.043 137.98 366.503 137.44 365.155 140.272ZM360.164 143.509C355.309 146.477 355.849 147.286 360.03 138.384C363.671 137.98 363.132 137.17 360.164 143.509ZM360.974 149.444C350.454 148.634 351.937 149.309 355.849 147.151C364.076 147.555 364.48 147.016 360.974 149.444ZM351.533 149.444C361.378 150.253 361.378 149.713 356.928 151.602C356.253 151.871 357.332 151.871 348.7 150.927C349.51 150.388 350.589 149.848 351.533 149.444ZM363.941 146.881C355.039 146.342 355.983 147.151 360.569 144.319C366.368 144.723 366.773 144.049 363.941 146.881ZM366.368 144.049C360.164 143.644 360.569 144.588 365.289 141.351C368.661 141.486 368.796 140.812 366.368 144.049ZM368.931 140.003C368.526 140.812 368.931 140.677 366.368 140.542C370.415 137.71 370.28 137.305 368.931 140.003ZM355.579 146.207C350.723 148.904 351.263 149.713 356.388 138.924C360.164 138.249 359.895 137.17 355.579 146.207ZM350.993 141.217C345.868 152.006 347.082 150.388 344.654 151.332C345.733 147.016 348.296 143.374 350.993 141.217ZM352.747 152.411C349.375 152.546 349.645 152.546 346.273 152.141C345.194 152.006 345.329 152.141 347.217 151.332C356.658 152.411 354.77 152.141 352.747 152.411Z" fill="#04943C"/>
<path d="M177.955 86.7291C177.82 77.6928 171.077 69.196 170.133 69.196C169.054 69.196 169.998 70.0052 168.244 73.7816C166.626 77.1533 164.198 81.7389 163.389 86.0547C161.905 94.9562 169.728 101.7 170.807 101.835C171.077 101.969 178.09 95.3608 177.955 86.7291ZM164.603 88.7521C164.333 82.683 165.682 86.1896 171.077 93.8772C170.807 98.8674 171.886 99.0023 164.603 88.7521ZM169.458 74.4559C170.267 72.8375 169.998 72.298 170.402 75.8046C169.458 74.4559 169.593 74.321 169.458 74.4559ZM170.537 77.2882C171.211 83.6271 171.481 82.683 167.975 77.6928C169.458 74.4559 168.784 74.7257 170.537 77.2882ZM171.077 83.2225C171.346 88.887 172.29 88.887 166.626 80.9297C167.975 77.5579 167.031 77.5579 171.077 83.2225ZM176.606 85.3804C170.807 94.1469 172.156 93.3377 172.156 88.7521C176.471 81.7389 176.202 81.0645 176.606 85.3804ZM172.021 93.6075C177.415 85.3804 177.011 85.1106 176.471 89.966C176.337 90.6403 176.876 89.6962 171.886 96.8443C171.886 95.7654 172.021 94.6864 172.021 93.6075ZM175.797 81.4692C171.077 89.0219 172.156 88.6173 172.021 83.2225C175.123 78.3671 174.718 77.6928 175.797 81.4692ZM174.448 77.9625C171.077 83.2225 172.021 83.2225 171.481 77.5579C173.369 74.8605 172.83 74.321 174.448 77.9625ZM172.156 73.9164C172.695 74.7257 172.695 74.1862 171.481 76.479C170.942 71.3539 170.402 71.3539 172.156 73.9164ZM171.211 88.6173C171.211 94.2818 172.156 94.1469 165.277 84.4363C166.356 80.6599 165.277 80.3902 171.211 88.6173ZM164.603 90.1008C171.481 99.8115 170.672 97.9233 170.402 100.486C167.165 97.5187 165.142 93.6075 164.603 90.1008ZM175.258 94.0121C173.774 97.1141 173.909 96.7095 171.886 99.5417C171.211 100.351 171.346 100.486 171.616 98.3279C177.146 90.6403 175.932 92.1239 175.258 94.0121Z" fill="#04943C"/>
<path d="M235.679 75.1303C233.791 66.2288 225.564 59.2156 224.62 59.4853C223.541 59.7551 224.62 60.2946 223.676 64.3407C222.867 67.9822 221.248 72.8375 221.383 77.2882C221.653 86.3245 230.689 91.4495 231.768 91.3147C231.903 91.3147 237.433 83.4922 235.679 75.1303ZM222.867 79.581C221.383 73.7816 223.406 76.8836 230.15 83.3573C230.959 88.3475 232.038 88.2127 222.867 79.581ZM225.025 64.6104C225.429 62.8571 225.16 62.3176 226.104 65.6894C224.89 64.6104 225.025 64.4755 225.025 64.6104ZM226.643 67.1729C228.531 73.2421 228.666 72.298 224.215 68.117C225.025 64.6104 224.35 65.015 226.643 67.1729ZM228.127 72.8375C229.475 78.3671 230.419 78.0974 223.271 71.3539C224.081 67.9822 223.136 68.117 228.127 72.8375ZM234.061 73.9164C230.15 83.6271 231.229 82.5481 230.419 78.0974C233.252 70.4098 232.847 69.8703 234.061 73.9164ZM231.229 82.9527C235.005 73.7816 234.466 73.6467 234.87 78.502C234.87 79.1764 235.275 78.2323 231.633 86.1896C231.498 85.1107 231.364 84.0317 231.229 82.9527ZM232.577 70.2749C229.34 78.6369 230.419 77.9625 229.206 72.7026C231.364 67.3078 230.689 66.7683 232.577 70.2749ZM230.554 67.1729C228.262 72.9723 229.206 72.8375 227.587 67.4427C228.801 64.2058 228.262 63.8012 230.554 67.1729ZM227.587 63.5314C228.262 64.2058 228.262 63.6663 227.317 66.2288C225.834 61.3735 225.294 61.3735 227.587 63.5314ZM229.34 78.0974C230.419 83.6271 231.364 83.3573 222.732 75.1303C223.136 71.219 222.057 71.3539 229.34 78.0974ZM223.271 80.9297C231.903 89.0219 230.824 87.4034 230.959 89.966C227.183 87.6732 224.35 84.1666 223.271 80.9297ZM234.466 82.683C233.656 85.9199 233.656 85.6501 232.308 88.7521C231.768 89.6962 232.038 89.6962 231.768 87.6732C235.679 78.9066 234.735 80.6599 234.466 82.683Z" fill="#04943C"/>
<path d="M67.6313 80.2553C74.9143 74.8605 77.6117 64.3407 76.9374 63.5314C76.263 62.7222 76.263 63.8012 72.2169 64.7453C68.5754 65.5545 63.4504 66.094 59.5391 68.2519C51.4469 72.4329 50.7726 82.683 51.3121 83.6271C51.4469 83.762 60.8878 85.5153 67.6313 80.2553ZM58.1904 70.6796C62.776 66.7683 60.8878 70.0052 57.9207 78.9066C53.7397 81.7389 54.2792 82.683 58.1904 70.6796ZM72.4866 66.094C74.24 65.6894 74.5097 65.1499 71.9472 67.5775C72.4867 66.094 72.6215 66.094 72.4866 66.094ZM70.8682 68.6565C66.1478 72.9724 67.0918 72.7026 68.98 66.7683C72.4867 66.094 71.9472 65.6894 70.8682 68.6565ZM66.4175 72.5677C62.1017 76.0744 62.6411 76.8836 65.6083 67.4427C69.1149 66.6335 68.5754 65.9591 66.4175 72.5677ZM68.0359 78.2323C57.5161 78.9066 58.9996 79.4461 62.6411 76.7487C70.8682 76.0744 71.1379 75.4 68.0359 78.2323ZM58.595 79.581C68.4405 79.0415 68.3057 78.6369 64.1247 80.9297C63.4504 81.1994 64.5293 81.0646 55.7628 81.3343C56.8417 80.7948 57.7858 80.1205 58.595 79.581ZM70.5985 75.4C61.6971 76.0744 62.776 76.7487 66.957 73.377C72.7564 72.9724 73.0261 72.1631 70.5985 75.4ZM72.6215 72.298C66.4175 72.7026 66.957 73.5118 71.1379 69.7355C74.5097 69.3309 74.6446 68.6565 72.6215 72.298ZM74.6446 67.9822C74.3748 68.9263 74.7794 68.6565 72.2169 68.9262C75.8584 65.4196 75.5887 65.015 74.6446 67.9822ZM62.2365 75.8046C57.7858 79.1764 58.4602 79.8507 62.1017 68.5216C65.7432 67.3078 65.2037 66.3637 62.2365 75.8046ZM57.1115 71.6236C53.47 82.9527 54.5489 81.1994 52.2561 82.5481C52.6608 77.9625 54.5489 74.0513 57.1115 71.6236ZM60.2135 82.4132C56.8417 83.0876 57.2463 82.9527 53.8746 83.0876C52.7956 83.0876 52.9305 83.2225 54.6838 82.1435C64.1247 81.8738 62.2365 81.8738 60.2135 82.4132Z" fill="#04943C"/>
<path d="M304.868 22.6658C312.42 17.6756 315.927 7.42553 315.388 6.61631C314.713 5.67222 314.713 6.88605 310.532 7.42553C306.756 8.09988 301.631 8.36962 297.585 10.1229C289.223 13.7644 287.739 23.8797 288.279 24.8238C288.414 25.0935 297.72 27.5212 304.868 22.6658ZM296.101 12.4157C300.956 8.9091 298.799 11.8762 295.292 20.6428C290.841 23.2053 291.381 24.2843 296.101 12.4157ZM310.667 8.9091C312.42 8.63936 312.825 8.09988 310.128 10.3927C310.802 8.9091 310.802 8.9091 310.667 8.9091ZM308.914 11.3368C303.924 15.248 304.868 15.1131 307.16 9.31371C310.667 8.9091 310.128 8.50449 308.914 11.3368ZM304.193 14.9783C299.608 18.2151 300.147 19.0244 303.789 9.85319C307.295 9.31371 306.756 8.50449 304.193 14.9783ZM305.407 20.7777C294.887 20.6428 296.371 21.3171 300.147 18.8895C308.374 18.7546 308.779 18.0803 305.407 20.7777ZM295.966 21.452C305.812 21.5869 305.812 21.1823 301.496 23.2053C300.822 23.4751 301.901 23.4751 293.134 23.0704C294.078 22.531 295.022 21.9915 295.966 21.452ZM308.239 18.0803C299.338 18.2151 300.282 18.8895 304.733 15.7875C310.532 15.7875 310.937 15.1131 308.239 18.0803ZM310.532 15.1131C304.328 15.1131 304.733 15.9223 309.318 12.4157C312.555 12.2808 312.69 11.6065 310.532 15.1131ZM312.69 10.9321C312.286 11.7414 312.69 11.6065 310.128 11.7414C314.174 8.50449 313.904 8.09988 312.69 10.9321ZM299.743 17.9454C295.022 20.9125 295.697 21.7217 300.147 10.6624C303.924 9.71832 303.519 8.63936 299.743 17.9454ZM294.887 13.3598C290.437 24.4191 291.65 22.8007 289.223 23.8797C290.032 19.429 292.325 15.5177 294.887 13.3598ZM297.315 24.4192C293.943 24.8238 294.348 24.8238 290.841 24.554C289.762 24.4192 289.897 24.554 291.65 23.6099C301.361 24.1494 299.473 23.8797 297.315 24.4192Z" fill="#04943C"/>
<path d="M124.681 66.3637C132.099 61.1038 135.201 50.8536 134.662 49.9096C133.987 49.1003 133.987 50.1793 129.806 50.9885C126.03 51.6629 121.04 52.0675 116.994 54.0905C108.767 58.0018 107.553 68.2519 108.092 69.196C108.362 69.3308 117.668 71.3539 124.681 66.3637ZM115.51 56.5182C120.231 52.8767 118.208 55.9787 114.971 64.7453C110.655 67.3078 111.194 68.3867 115.51 56.5182ZM129.941 52.4721C131.695 52.2023 132.099 51.6629 129.402 53.9557C130.076 52.3372 130.076 52.4721 129.941 52.4721ZM128.323 54.8997C123.468 58.9458 124.412 58.811 126.57 53.0116C129.941 52.4721 129.402 51.9326 128.323 54.8997ZM123.737 58.6761C119.287 62.0479 119.826 62.8571 123.063 53.6859C126.57 52.8767 126.03 52.0675 123.737 58.6761ZM125.086 64.4755C114.566 64.7453 116.05 65.2847 119.826 62.7222C128.053 62.3176 128.323 61.6432 125.086 64.4755ZM115.645 65.4196C125.491 65.1499 125.491 64.7453 121.175 67.038C120.5 67.3078 121.579 67.3078 112.813 67.1729C113.892 66.4986 114.701 65.9591 115.645 65.4196ZM127.783 61.6432C118.882 62.0479 119.961 62.7222 124.142 59.4853C130.076 59.3505 130.346 58.5412 127.783 61.6432ZM129.941 58.5412C123.737 58.6761 124.277 59.6202 128.593 55.9787C131.829 55.709 131.964 55.0346 129.941 58.5412ZM131.964 54.3603C131.56 55.3044 132.099 55.0346 129.402 55.1695C133.313 51.7977 133.178 51.3931 131.964 54.3603ZM119.287 61.7781C114.701 65.015 115.375 65.6893 119.421 54.4951C123.198 53.4162 122.658 52.3372 119.287 61.7781ZM114.431 57.3274C110.385 68.5216 111.464 66.7683 109.171 67.9821C109.711 63.5314 111.869 59.7551 114.431 57.3274ZM117.129 68.3867C113.892 68.9262 114.161 68.7914 110.79 68.7914C109.711 68.6565 109.846 68.9262 111.599 67.8473C121.04 67.8473 119.152 67.7124 117.129 68.3867Z" fill="#04943C"/>
<path d="M183.08 297.261C184.024 288.225 178.36 279.054 177.281 278.919C176.202 278.784 177.011 279.593 174.853 283.235C172.83 286.472 169.863 290.653 168.649 294.834C166.086 303.6 173.1 311.153 174.179 311.423C174.448 311.557 182.271 305.758 183.08 297.261ZM169.593 297.531C169.998 291.462 170.942 295.103 175.392 303.33C174.583 308.455 175.662 308.725 169.593 297.531ZM176.202 284.044C177.146 282.56 177.011 281.886 177.011 285.393C176.067 283.909 176.202 283.909 176.202 284.044ZM176.876 286.876C176.741 293.215 177.146 292.406 174.179 287.011C176.202 284.044 175.392 284.179 176.876 286.876ZM176.606 292.81C176.202 298.475 177.146 298.475 172.425 289.978C174.179 286.876 173.235 286.741 176.606 292.81ZM181.866 295.643C175.123 303.735 176.471 303.061 177.011 298.475C182.271 292.136 182.001 291.462 181.866 295.643ZM176.337 303.33C182.675 295.778 182.271 295.508 181.192 300.228C180.922 300.903 181.596 300.093 175.797 306.567C176.067 305.488 176.202 304.409 176.337 303.33ZM181.596 291.732C175.932 298.745 177.146 298.34 177.55 293.08C181.327 288.495 180.922 287.82 181.596 291.732ZM180.652 288.09C176.741 292.81 177.685 293.08 177.82 287.416C179.843 284.853 179.439 284.314 180.652 288.09ZM178.899 283.774C179.304 284.583 179.439 284.179 177.82 286.202C177.955 281.077 177.416 281.077 178.899 283.774ZM176.067 298.205C175.392 303.735 176.337 303.735 170.672 293.35C172.29 289.843 171.211 289.439 176.067 298.205ZM169.458 299.014C175.123 309.399 174.583 307.511 174.044 310.074C171.077 306.702 169.593 302.521 169.458 299.014ZM179.573 304.14C177.685 306.972 177.955 306.702 175.662 309.265C174.853 310.074 175.123 310.074 175.527 308.051C181.866 300.903 180.518 302.251 179.573 304.14Z" fill="#04943C"/>
<path d="M250.515 19.2941C251.459 10.2578 245.66 1.08661 244.581 1.08661C243.637 0.951741 244.446 1.76096 242.288 5.40245C240.4 8.63933 237.298 12.8203 236.219 17.1361C233.791 25.9027 240.804 33.4554 241.883 33.5903C242.153 33.5903 249.841 27.7909 250.515 19.2941ZM237.028 19.6987C237.298 13.6295 238.377 17.271 242.962 25.4981C242.153 30.4883 243.232 30.758 237.028 19.6987ZM243.502 6.0768C244.446 4.59323 244.311 3.91888 244.311 7.4255C243.502 6.0768 243.637 6.0768 243.502 6.0768ZM244.311 8.90907C244.311 15.248 244.716 14.4387 241.614 9.04394C243.502 6.21167 242.827 6.21167 244.311 8.90907ZM244.041 14.8434C243.637 20.5079 244.581 20.5079 239.86 12.0111C241.614 8.90907 240.67 8.90907 244.041 14.8434ZM249.436 17.6756C242.693 25.7678 244.176 25.0935 244.581 20.5079C249.706 14.169 249.436 13.3598 249.436 17.6756ZM243.906 25.3632C250.245 17.6756 249.841 17.5408 248.762 22.2612C248.492 22.9356 249.166 22.1263 243.367 28.6001C243.637 27.5211 243.772 26.4422 243.906 25.3632ZM249.031 13.7644C243.502 20.7776 244.716 20.5079 244.985 15.1131C248.762 10.5275 248.357 9.85316 249.031 13.7644ZM248.087 10.1229C244.176 14.9782 245.12 15.1131 245.255 9.44855C247.278 6.88602 246.874 6.34654 248.087 10.1229ZM246.334 5.80706C246.739 6.61628 246.874 6.21167 245.39 8.23472C245.255 3.24453 244.851 3.10966 246.334 5.80706ZM243.637 20.2382C243.097 25.7678 244.041 25.7678 238.242 15.3828C239.725 11.8762 238.647 11.6065 243.637 20.2382ZM237.028 21.1822C242.827 31.5672 242.288 29.6791 241.614 32.2416C238.647 28.735 237.028 24.554 237.028 21.1822ZM247.143 26.1724C245.39 29.0047 245.525 28.735 243.232 31.2975C242.423 32.1067 242.693 32.1067 243.097 30.0837C249.436 22.9356 248.087 24.2843 247.143 26.1724Z" fill="#04943C"/>
<path d="M52.9305 248.708C48.6146 240.751 38.6343 236.435 37.825 236.974C36.8809 237.514 38.0948 237.783 38.3645 241.83C38.6343 245.606 38.4994 250.731 39.983 254.912C42.9501 263.544 52.9305 265.836 54.0094 265.297C54.0094 265.297 57.1114 256.261 52.9305 248.708ZM42.006 256.8C38.904 251.675 41.7363 254.103 50.0982 258.284C52.2561 262.734 53.3351 262.33 42.006 256.8ZM39.7132 241.83C39.5783 240.076 39.1737 239.672 41.0619 242.504C39.5783 241.83 39.5783 241.695 39.7132 241.83ZM41.8711 243.853C45.3778 249.113 45.2429 248.168 39.7132 245.471C39.7132 241.964 39.0389 242.369 41.8711 243.853ZM45.108 248.843C48.0752 253.698 48.7495 253.294 39.983 248.843C39.7132 245.336 38.904 245.741 45.108 248.843ZM51.0423 248.168C50.0982 258.688 50.9074 257.205 48.7495 253.294C49.289 244.932 48.6146 244.527 51.0423 248.168ZM50.9074 257.609C51.8515 247.764 51.312 247.764 53.0654 252.349C53.3351 253.024 53.3351 251.945 52.2561 260.577C51.8515 259.498 51.312 258.553 50.9074 257.609ZM48.4798 245.066C47.8054 253.968 48.6146 253.024 45.9172 248.438C46.4567 242.639 45.7824 242.234 48.4798 245.066ZM45.7824 242.639C45.2429 248.843 46.187 248.438 43.085 243.718C43.2198 240.346 42.5455 240.211 45.7824 242.639ZM41.7363 240.076C42.5455 240.481 42.4106 240.076 42.2757 242.639C39.4435 238.458 39.0389 238.593 41.7363 240.076ZM47.6706 253.563C50.368 258.553 51.0423 257.879 40.3876 252.619C39.8481 248.708 38.7691 249.113 47.6706 253.563ZM42.6804 258.014C53.3351 263.274 51.7167 262.06 52.6607 264.488C48.3449 263.274 44.7034 260.711 42.6804 258.014ZM54.0094 256.396C54.1443 259.767 54.1443 259.498 53.7397 262.734C53.6048 263.813 53.7397 263.679 52.9305 261.79C54.0094 252.484 53.6048 254.373 54.0094 256.396Z" fill="#04943C"/>
<path d="M113.622 111.006C112.138 102.104 104.181 94.6864 103.237 94.9562C102.158 95.091 103.237 95.7654 102.023 99.8115C100.944 103.453 99.1909 108.173 99.1909 112.624C99.056 121.66 107.823 127.19 108.902 127.055C109.171 127.055 115.106 119.502 113.622 111.006ZM100.674 114.917C99.4607 108.983 101.349 112.22 107.823 118.963C108.362 124.088 109.576 124.088 100.674 114.917ZM103.372 100.216C103.911 98.4628 103.507 97.9233 104.451 101.295C103.372 100.081 103.507 100.081 103.372 100.216ZM104.855 102.779C106.474 108.848 106.609 108.039 102.293 103.588C103.372 100.216 102.698 100.486 104.855 102.779ZM106.204 108.578C107.283 114.108 108.227 113.973 101.349 106.96C102.293 103.453 101.349 103.588 106.204 108.578ZM112.004 109.792C107.688 119.368 108.767 118.289 108.092 113.838C111.464 106.285 111.059 105.746 112.004 109.792ZM108.767 118.693C112.813 109.657 112.408 109.657 112.543 114.377C112.543 115.052 112.948 114.108 109.036 121.93C109.036 120.851 108.902 119.772 108.767 118.693ZM110.79 106.15C107.283 114.377 108.362 113.703 107.283 108.443C109.576 103.048 109.036 102.509 110.79 106.15ZM108.902 102.913C106.339 108.578 107.418 108.443 105.934 103.048C107.283 99.9463 106.609 99.5417 108.902 102.913ZM106.069 99.1371C106.744 99.8115 106.744 99.4069 105.665 101.7C104.316 96.8443 103.911 96.9792 106.069 99.1371ZM107.148 113.838C107.957 119.368 108.902 119.098 100.674 110.601C101.349 106.69 100.135 106.69 107.148 113.838ZM100.944 116.4C109.306 124.897 108.227 123.144 108.227 125.841C104.586 123.279 102.023 119.637 100.944 116.4ZM112.138 118.693C111.194 121.93 111.329 121.66 109.711 124.628C109.171 125.572 109.306 125.572 109.306 123.549C113.487 114.917 112.543 116.535 112.138 118.693Z" fill="#04943C"/>
<path d="M17.5945 98.8674C25.2821 94.1469 29.0585 83.8968 28.519 83.0876C27.9795 82.1435 27.8447 83.3573 23.6637 83.8968C19.8873 84.3014 14.7623 84.4363 10.7162 86.1896C2.35424 89.5614 0.600927 99.6766 1.00554 100.756C1.14041 100.89 10.3116 103.453 17.5945 98.8674ZM8.96287 88.3475C13.9531 84.9758 11.6603 87.9429 8.01878 96.5746C3.56807 99.0023 3.97268 99.9464 8.96287 88.3475ZM23.7986 85.2455C25.5519 85.1106 25.9565 84.5712 23.1242 86.7291C23.7986 85.1106 23.9334 85.2455 23.7986 85.2455ZM21.9104 87.5383C16.9202 91.3147 17.7294 91.1798 20.1571 85.5153C23.6637 85.2455 23.1242 84.706 21.9104 87.5383ZM17.0551 91.0449C12.3346 94.1469 12.8741 94.9562 16.7853 85.9199C20.2919 85.5153 19.8873 84.706 17.0551 91.0449ZM18.134 96.9792C7.61417 96.5746 9.09774 97.249 12.8741 94.9562C21.1012 95.091 21.5058 94.4167 18.134 96.9792ZM8.69313 97.3838C18.5386 97.7884 18.5386 97.2489 14.0879 99.272C13.4136 99.5417 14.4925 99.5417 5.72599 98.8674C6.80495 98.3279 7.74904 97.7884 8.69313 97.3838ZM21.1012 94.2818C12.1997 94.1469 13.1438 94.9562 17.5945 91.8541C23.394 92.1239 23.7986 91.3147 21.1012 94.2818ZM23.394 91.3147C17.1899 91.1798 17.5945 91.989 22.1801 88.6173C25.417 88.6173 25.5519 87.9429 23.394 91.3147ZM25.6867 87.2686C25.2821 88.0778 25.6867 87.9429 23.1242 87.9429C27.1703 84.8409 26.9006 84.4363 25.6867 87.2686ZM12.6044 94.0121C7.88391 96.9792 8.42339 97.6536 13.1438 86.7291C16.9202 85.785 16.5156 84.706 12.6044 94.0121ZM7.88391 89.1567C3.16346 100.081 4.37729 98.4628 1.94963 99.5417C2.75885 95.2259 5.18651 91.4495 7.88391 89.1567ZM10.0418 100.351C6.67008 100.621 6.93982 100.621 3.56807 100.351C2.48911 100.216 2.62398 100.351 4.51216 99.5417C13.9531 100.216 12.0649 99.9464 10.0418 100.351Z" fill="#04943C"/>
<path d="M365.829 342.712C358.276 337.722 347.487 338.666 346.947 339.61C346.408 340.554 347.487 340.15 349.645 343.656C351.668 346.893 353.96 351.479 357.197 354.446C363.806 360.65 373.786 357.818 374.461 357.009C374.73 356.874 373.112 347.433 365.829 342.712ZM360.029 354.986C354.77 351.884 358.546 352.693 367.852 352.423C372.033 355.39 372.707 354.581 360.029 354.986ZM350.993 342.982C350.049 341.499 349.51 341.364 352.612 342.982C350.858 342.982 350.858 342.847 350.993 342.982ZM353.826 343.656C359.355 346.624 358.816 345.814 352.747 346.084C350.993 342.982 350.723 343.791 353.826 343.656ZM358.951 346.489C363.806 349.321 364.345 348.647 354.5 348.916C352.612 345.949 352.072 346.758 358.951 346.489ZM363.941 343.117C368.122 352.828 368.122 351.209 364.345 348.647C360.839 341.094 360.164 341.094 363.941 343.117ZM368.257 351.479C364.345 342.443 363.941 342.578 367.582 345.814C368.122 346.354 367.582 345.275 370.819 353.502C370.01 352.693 369.201 352.153 368.257 351.479ZM360.299 341.633C363.941 349.861 364.21 348.512 359.625 345.814C357.332 340.42 356.388 340.42 360.299 341.633ZM356.658 340.824C359.085 346.489 359.76 345.68 354.77 343.117C353.286 340.015 352.612 340.15 356.658 340.824ZM351.937 340.42C352.881 340.42 352.477 340.15 353.691 342.443C349.105 340.015 348.835 340.42 351.937 340.42ZM363.536 349.456C368.257 352.558 368.661 351.614 356.658 352.153C354.365 348.916 353.556 349.726 363.536 349.456ZM361.243 355.66C373.112 355.255 371.089 354.851 373.112 356.604C368.796 357.683 364.48 357.144 361.243 355.66ZM370.415 348.916C372.168 351.884 372.033 351.479 373.112 354.716C373.382 355.66 373.517 355.66 371.898 354.311C368.661 345.545 369.201 347.298 370.415 348.916Z" fill="#04943C"/>
<path d="M98.3817 193.816C104.046 186.803 104.181 175.878 103.372 175.339C102.563 174.664 102.832 175.878 99.056 177.631C95.6843 179.25 90.829 181.138 87.5921 184.105C80.8486 190.174 82.6019 200.29 83.4111 200.964C83.546 201.234 93.1218 200.559 98.3817 193.816ZM86.7829 186.803C90.2895 181.947 89.2105 185.454 88.6711 194.895C85.1644 198.671 85.9737 199.48 86.7829 186.803ZM99.5955 178.845C101.214 178.036 101.349 177.497 99.4607 180.464C99.5955 178.845 99.7304 178.845 99.5955 178.845ZM98.6514 181.678C95.1448 186.938 95.954 186.533 96.3586 180.329C99.5955 178.845 98.9212 178.576 98.6514 181.678ZM95.2797 186.533C91.9079 191.118 92.7172 191.658 93.2566 181.812C96.4935 180.194 95.6843 179.655 95.2797 186.533ZM98.2468 191.793C88.2664 195.03 89.75 195.165 92.7172 191.658C100.54 188.961 100.674 188.286 98.2468 191.793ZM89.4803 195.299C98.9212 192.332 98.6514 191.928 95.2797 195.299C94.7402 195.704 95.8192 195.434 87.3224 197.727C87.9967 196.918 88.8059 196.109 89.4803 195.299ZM100.135 188.286C91.6382 191.119 92.852 191.523 96.0889 187.207C101.619 185.454 101.619 184.645 100.135 188.286ZM101.349 184.78C95.4146 186.668 96.2238 187.342 99.3258 182.622C102.428 181.543 102.293 180.868 101.349 184.78ZM102.158 180.194C102.023 181.138 102.428 180.868 100 181.678C102.698 177.362 102.293 177.092 102.158 180.194ZM92.0428 190.849C88.5362 195.165 89.3454 195.704 90.1546 183.836C93.3915 181.678 92.5823 180.868 92.0428 190.849ZM85.9737 187.882C85.1644 199.75 85.8388 197.862 83.9506 199.615C83.2763 195.299 84.2203 190.849 85.9737 187.882ZM91.7731 197.727C88.6711 199.211 89.0757 199.076 85.7039 199.885C84.625 200.155 84.7598 200.29 86.2434 198.806C95.4146 196.244 93.5264 196.648 91.7731 197.727Z" fill="#04943C"/>
<path d="M241.209 186.398C244.581 178.036 241.614 167.651 240.67 167.246C239.725 166.842 240.265 167.921 237.163 170.753C234.466 173.316 230.419 176.552 227.992 180.329C223.271 188.016 227.857 197.323 228.801 197.727C229.071 197.862 237.972 194.355 241.209 186.398ZM227.992 183.026C230.015 177.362 229.88 181.138 232.038 190.174C230.015 194.895 230.959 195.434 227.992 183.026ZM238.107 171.832C239.456 170.618 239.456 169.944 238.512 173.316C238.107 171.697 238.107 171.697 238.107 171.832ZM237.972 174.799C236.219 180.868 236.758 180.194 235.41 174.125C238.107 171.832 237.298 171.697 237.972 174.799ZM236.084 180.464C234.196 185.724 235.005 186.128 232.847 176.552C235.41 173.99 234.6 173.72 236.084 180.464ZM240.535 184.51C231.903 190.444 233.387 190.174 235.14 185.993C241.749 181.273 241.749 180.464 240.535 184.51ZM233.117 190.444C241.344 184.914 240.939 184.51 238.647 188.691C238.242 189.365 239.186 188.691 231.768 193.276C232.173 192.467 232.577 191.523 233.117 190.444ZM241.209 180.733C233.926 185.859 235.14 185.993 237.028 180.868C241.883 177.497 241.614 176.687 241.209 180.733ZM241.344 176.957C236.219 180.464 237.163 181.003 238.781 175.474C241.479 173.585 241.209 172.911 241.344 176.957ZM240.804 172.237C240.939 173.181 241.209 172.776 239.186 174.26C240.535 169.539 240.13 169.27 240.804 172.237ZM234.196 185.454C232.038 190.579 232.982 190.849 230.285 179.25C232.847 176.283 231.903 175.743 234.196 185.454ZM227.587 184.375C230.285 195.974 230.285 193.951 228.936 196.244C227.048 192.197 226.778 187.747 227.587 184.375ZM235.949 192.063C233.387 194.355 233.656 194.086 230.824 195.839C229.88 196.378 230.015 196.513 230.959 194.625C239.051 189.635 237.298 190.579 235.949 192.063Z" fill="#04943C"/>
<path d="M322.805 246.55C328.875 239.941 329.819 229.152 329.009 228.477C328.2 227.803 328.335 228.882 324.559 230.501C321.052 231.984 316.197 233.468 312.69 236.165C305.542 241.695 306.621 251.945 307.295 252.754C307.43 252.889 317.006 252.889 322.805 246.55ZM311.746 238.862C315.657 234.277 314.309 237.784 312.96 246.955C309.318 250.461 309.993 251.405 311.746 238.862ZM325.098 231.849C326.717 231.175 326.986 230.635 324.828 233.468C325.098 231.714 325.233 231.714 325.098 231.849ZM324.019 234.547C320.243 239.537 321.052 239.132 321.861 233.063C325.098 231.849 324.424 231.445 324.019 234.547ZM320.243 239.132C316.601 243.448 317.276 244.122 318.49 234.277C321.861 232.928 321.187 232.254 320.243 239.132ZM322.805 244.527C312.555 246.955 314.174 247.224 317.276 243.988C325.233 241.964 325.368 241.155 322.805 244.527ZM313.769 247.494C323.345 245.201 323.21 244.797 319.569 247.899C319.029 248.303 320.108 248.034 311.476 249.787C312.286 248.978 313.095 248.303 313.769 247.494ZM324.963 241.29C316.332 243.583 317.546 243.988 320.917 239.941C326.582 238.458 326.717 237.649 324.963 241.29ZM326.312 237.784C320.243 239.267 320.917 240.076 324.424 235.491C327.661 234.682 327.661 234.007 326.312 237.784ZM327.526 233.198C327.391 234.142 327.796 233.872 325.233 234.547C328.2 230.501 327.93 230.096 327.526 233.198ZM316.601 243.178C312.825 247.224 313.499 247.899 315.118 236.03C318.624 234.142 317.95 233.333 316.601 243.178ZM310.802 239.941C309.184 251.675 309.993 249.787 307.97 251.54C307.565 246.955 308.779 242.774 310.802 239.941ZM315.927 250.057C312.69 251.271 313.095 251.136 309.723 251.81C308.644 251.945 308.779 252.08 310.397 250.731C319.703 248.843 317.815 249.113 315.927 250.057Z" fill="#04943C"/>
<path d="M134.257 5.2676C125.76 2.16559 115.51 5.53734 115.106 6.6163C114.701 7.69526 115.78 7.02091 118.747 9.98805C121.444 12.6854 124.681 16.5967 128.593 18.7546C136.415 23.2053 145.451 18.35 145.991 17.271C146.126 17.0013 142.349 8.09987 134.257 5.2676ZM131.425 18.4849C125.625 16.7315 129.402 16.5967 138.438 14.169C143.159 16.1921 143.563 15.248 131.425 18.4849ZM119.826 8.90909C118.612 7.69526 117.938 7.69526 121.31 8.50448C119.691 8.90909 119.691 8.77422 119.826 8.90909ZM122.793 8.90909C128.862 10.5275 128.188 9.85318 122.254 11.4716C119.826 8.90909 119.691 9.71831 122.793 8.90909ZM128.458 10.5275C133.853 12.2808 134.122 11.3367 124.681 13.8993C122.119 11.4716 121.714 12.2808 128.458 10.5275ZM132.369 6.07682C138.573 14.5736 138.303 12.9552 133.987 11.4716C128.997 4.86299 128.323 4.99786 132.369 6.07682ZM138.573 13.2249C132.639 5.2676 132.369 5.53734 136.685 7.83013C137.359 8.23474 136.55 7.29065 141.54 14.5736C140.596 14.0342 139.652 13.6295 138.573 13.2249ZM128.593 5.40247C133.987 12.5506 133.987 11.2019 128.862 9.58344C125.356 4.86299 124.546 5.13273 128.593 5.40247ZM124.816 5.40247C128.593 10.3927 128.997 9.44857 123.468 7.965C121.444 5.40247 120.77 5.67221 124.816 5.40247ZM120.096 6.21169C121.04 5.94195 120.635 5.80708 122.254 7.83013C117.398 6.48143 117.129 6.88604 120.096 6.21169ZM133.583 12.2808C138.843 14.169 139.112 13.2249 127.514 16.3269C124.412 13.8993 123.872 14.8434 133.583 12.2808ZM132.774 18.8895C144.238 15.7875 142.214 15.9223 144.507 17.0013C140.596 19.1592 136.145 19.6987 132.774 18.8895ZM140.191 10.2578C142.619 12.6854 142.349 12.4157 144.238 15.248C144.777 16.1921 144.912 16.0572 143.024 15.1131C137.494 7.29065 138.573 8.90909 140.191 10.2578Z" fill="#04943C"/>
<path d="M360.434 82.2784C366.099 75.2651 366.233 64.3407 365.424 63.8012C364.615 63.1268 364.885 64.3407 361.108 66.094C357.737 67.7124 352.881 69.6006 349.645 72.5677C342.901 78.6369 344.654 88.7521 345.464 89.4265C345.464 89.6962 355.039 89.0219 360.434 82.2784ZM348.835 75.2651C352.342 70.4098 351.263 73.9164 350.589 83.3573C347.217 87.1337 348.026 87.9429 348.835 75.2651ZM361.648 67.3078C363.266 66.4986 363.401 65.9591 361.513 68.9262C361.648 67.3078 361.783 67.3078 361.648 67.3078ZM360.704 70.1401C357.197 75.4 358.006 74.9954 358.411 68.7914C361.648 67.4427 360.974 67.0381 360.704 70.1401ZM357.332 74.9954C353.96 79.581 354.77 80.1205 355.309 70.2749C358.411 68.6565 357.737 68.117 357.332 74.9954ZM360.299 80.2553C350.319 83.4922 351.802 83.6271 354.77 80.1205C362.457 77.4231 362.592 76.7487 360.299 80.2553ZM351.398 83.7619C360.839 80.7948 360.569 80.3902 357.197 83.7619C356.658 84.1666 357.737 83.8968 349.24 86.1896C350.049 85.3804 350.723 84.5712 351.398 83.7619ZM362.053 76.7487C353.556 79.581 354.77 79.9856 358.006 75.6697C363.536 73.9164 363.671 73.1072 362.053 76.7487ZM363.266 73.2421C357.332 75.1303 358.141 75.8046 361.243 71.0842C364.345 70.0052 364.345 69.3309 363.266 73.2421ZM364.076 68.6565C363.941 69.6006 364.345 69.3309 361.918 70.1401C364.75 65.8242 364.345 65.5545 364.076 68.6565ZM353.96 79.3112C350.454 83.6271 351.263 84.1666 352.072 72.298C355.309 70.1401 354.635 69.3309 353.96 79.3112ZM348.026 76.3441C347.217 88.2127 347.891 86.3245 346.003 88.0778C345.194 83.762 346.138 79.3112 348.026 76.3441ZM353.691 86.1896C350.589 87.6732 350.993 87.5383 347.621 88.3475C346.543 88.6173 346.677 88.7521 348.161 87.2686C357.332 84.706 355.579 85.1106 353.691 86.1896Z" fill="#04943C"/>
<path d="M271.959 344.331C265.89 337.587 255.236 335.699 254.561 336.373C253.752 337.048 254.966 337.048 256.18 341.094C257.259 344.735 258.338 349.726 260.63 353.502C265.486 361.19 275.736 361.19 276.545 360.515C276.815 360.245 277.759 350.805 271.959 344.331ZM263.193 354.581C259.012 350.265 262.384 352.018 271.42 354.176C274.522 358.222 275.466 357.548 263.193 354.581ZM257.528 340.689C256.989 338.936 256.449 338.666 259.012 341.094C257.393 340.689 257.528 340.554 257.528 340.689ZM260.091 342.038C264.676 346.354 264.407 345.545 258.338 344.061C257.528 340.689 257.124 341.364 260.091 342.038ZM264.407 346.219C268.318 350.265 268.992 349.591 259.416 347.433C258.338 343.926 257.663 344.601 264.407 346.219ZM269.936 344.196C271.42 354.581 271.825 353.097 268.857 349.726C267.509 341.499 266.834 341.229 269.936 344.196ZM271.959 353.367C270.611 343.522 270.206 343.656 272.903 347.703C273.308 348.377 273.038 347.298 273.982 355.93C273.308 355.12 272.634 354.311 271.959 353.367ZM266.834 341.768C268.183 350.67 268.857 349.456 265.081 345.679C264.272 339.88 263.463 339.61 266.834 341.768ZM263.597 340.015C264.542 346.084 265.351 345.545 261.17 341.633C260.63 338.397 259.821 338.397 263.597 340.015ZM259.147 338.397C260.091 338.666 259.821 338.262 260.226 340.824C256.584 337.318 256.18 337.722 259.147 338.397ZM268.048 350.13C271.69 354.311 272.364 353.637 260.765 350.805C259.282 347.298 258.203 347.837 268.048 350.13ZM264.137 355.66C275.736 358.357 273.848 357.548 275.331 359.706C270.88 359.571 266.699 357.953 264.137 355.66ZM274.792 351.614C275.736 354.851 275.601 354.581 275.871 357.953C275.871 359.032 276.14 358.897 274.927 357.278C273.848 347.703 273.982 349.591 274.792 351.614Z" fill="#04943C"/>
<path d="M306.891 173.181C299.877 167.381 289.088 167.112 288.414 167.921C287.739 168.73 288.953 168.595 290.706 172.372C292.325 175.743 294.078 180.599 297.045 183.97C302.979 190.849 313.095 189.23 313.904 188.421C314.039 188.151 313.499 178.71 306.891 173.181ZM299.743 184.645C294.887 181.003 298.529 182.217 307.835 183.026C311.476 186.533 312.286 185.724 299.743 184.645ZM292.055 171.697C291.246 170.079 290.706 169.944 293.673 171.832C291.92 171.697 291.92 171.562 292.055 171.697ZM294.887 172.641C300.147 176.283 299.608 175.339 293.539 174.934C292.055 171.697 291.785 172.372 294.887 172.641ZM299.608 176.148C304.058 179.52 304.733 178.845 294.887 178.036C293.269 174.934 292.729 175.608 299.608 176.148ZM304.868 173.316C307.835 183.431 308.105 181.812 304.598 178.845C302.17 171.023 301.361 170.888 304.868 173.316ZM308.239 182.217C305.407 172.776 305.003 172.911 308.239 176.418C308.644 176.957 308.374 175.878 310.532 184.375C309.858 183.566 309.049 182.891 308.239 182.217ZM301.496 171.427C304.193 179.924 304.598 178.71 300.417 175.474C298.664 169.809 297.854 169.809 301.496 171.427ZM297.989 170.214C299.743 176.148 300.552 175.474 295.831 172.237C294.752 169 294.078 169.135 297.989 170.214ZM293.269 169.27C294.213 169.404 293.943 169 294.752 171.427C290.571 168.595 290.302 169 293.269 169.27ZM303.789 179.52C308.105 183.161 308.644 182.352 296.775 181.408C294.752 178.036 293.808 178.71 303.789 179.52ZM300.822 185.454C312.69 186.398 310.802 185.859 312.555 187.747C308.105 188.421 303.789 187.342 300.822 185.454ZM310.667 179.924C312.016 183.026 311.881 182.757 312.69 185.993C312.96 187.072 313.095 186.937 311.611 185.454C309.318 176.283 309.588 178.171 310.667 179.924Z" fill="#04943C"/>
<path d="M170.807 359.571C178.494 354.851 182.271 344.735 181.731 343.791C181.192 342.847 181.057 344.061 176.876 344.466C173.1 344.87 167.975 345.005 163.929 346.624C155.567 349.995 153.678 360.111 154.218 361.055C154.353 361.594 163.524 364.157 170.807 359.571ZM162.31 349.186C167.3 345.814 165.007 348.782 161.231 357.413C156.78 359.706 157.185 360.785 162.31 349.186ZM177.011 346.084C178.764 345.949 179.169 345.41 176.337 347.568C177.011 345.949 177.146 346.084 177.011 346.084ZM175.258 348.377C170.133 352.153 171.077 352.018 173.504 346.354C177.011 346.084 176.471 345.545 175.258 348.377ZM170.402 351.884C165.682 354.986 166.221 355.795 170.133 346.759C173.639 346.219 173.1 345.41 170.402 351.884ZM171.346 357.683C160.826 357.278 162.31 357.953 166.086 355.66C174.448 355.795 174.853 355.12 171.346 357.683ZM161.905 358.088C171.751 358.492 171.751 358.088 167.3 359.976C166.626 360.245 167.705 360.246 158.938 359.571C160.017 359.032 160.961 358.627 161.905 358.088ZM174.314 355.12C165.412 354.986 166.356 355.66 170.807 352.693C176.606 352.963 177.011 352.153 174.314 355.12ZM176.606 352.153C170.402 352.018 170.807 352.828 175.392 349.456C178.764 349.456 178.899 348.782 176.606 352.153ZM178.899 348.107C178.494 348.916 178.899 348.782 176.337 348.782C180.383 345.68 180.248 345.275 178.899 348.107ZM165.817 354.716C160.961 357.548 161.636 358.357 166.356 347.433C170.133 346.624 169.728 345.545 165.817 354.716ZM161.096 349.995C156.376 360.92 157.59 359.301 155.162 360.38C156.106 355.93 158.399 352.153 161.096 349.995ZM163.254 361.055C159.882 361.324 160.152 361.324 156.78 361.055C155.701 360.92 155.836 361.055 157.724 360.246C167.165 360.92 165.277 360.65 163.254 361.055Z" fill="#04943C"/>
<path d="M237.028 292.001C231.094 285.123 220.574 282.965 219.765 283.639C218.955 284.314 220.169 284.314 221.248 288.36C222.192 292.001 223.136 296.991 225.429 300.903C230.015 308.725 240.4 308.86 241.209 308.186C241.614 308.051 242.693 298.475 237.028 292.001ZM227.992 302.116C223.811 297.666 227.183 299.554 236.219 301.847C239.321 305.893 240.265 305.353 227.992 302.116ZM222.597 288.09C222.057 286.337 221.518 286.067 224.081 288.495C222.597 288.09 222.597 287.955 222.597 288.09ZM225.294 289.439C229.88 293.889 229.475 292.945 223.541 291.462C222.732 288.09 222.192 288.764 225.294 289.439ZM229.475 293.755C233.252 297.936 234.061 297.261 224.485 294.834C223.406 291.462 222.732 292.001 229.475 293.755ZM235.005 291.866C236.219 302.251 236.758 300.768 233.791 297.396C232.712 289.169 232.038 288.899 235.005 291.866ZM236.893 301.172C235.679 291.327 235.275 291.462 237.972 295.508C238.377 296.182 238.107 295.103 238.916 303.735C238.242 302.791 237.568 301.982 236.893 301.172ZM232.038 289.304C233.252 298.205 233.926 296.991 230.285 293.08C229.475 287.416 228.666 287.146 232.038 289.304ZM228.801 287.551C229.61 293.755 230.419 293.08 226.373 289.169C225.834 285.932 225.025 285.797 228.801 287.551ZM224.35 285.932C225.294 286.202 225.025 285.797 225.429 288.36C221.788 284.718 221.383 284.988 224.35 285.932ZM232.982 297.801C236.623 302.116 237.298 301.307 225.699 298.34C224.215 294.699 223.271 295.373 232.982 297.801ZM229.071 303.195C240.535 306.163 238.781 305.218 240.265 307.376C235.679 307.242 231.633 305.488 229.071 303.195ZM239.725 299.284C240.535 302.521 240.535 302.251 240.67 305.623C240.67 306.702 240.804 306.567 239.725 304.949C238.916 295.508 238.916 297.396 239.725 299.284Z" fill="#04943C"/>
<path d="M22.8545 217.418C30.5421 212.563 34.1836 202.313 33.5092 201.503C32.9697 200.559 32.8349 201.773 28.6539 202.313C24.8775 202.852 19.7525 202.987 15.7064 204.74C7.34444 208.247 5.726 218.362 6.26548 219.441C6.40035 219.711 15.5715 222.139 22.8545 217.418ZM14.0879 207.033C19.0781 203.527 16.7853 206.629 13.1438 215.26C8.82801 217.823 9.23262 218.767 14.0879 207.033ZM28.7888 203.796C30.5421 203.527 30.9467 203.122 28.1144 205.28C28.9236 203.661 28.9236 203.796 28.7888 203.796ZM27.0355 206.089C22.0453 210 22.9894 209.731 25.2821 204.066C28.7888 203.796 28.2493 203.257 27.0355 206.089ZM22.1801 209.596C17.5946 212.833 17.9992 213.642 21.7755 204.471C25.417 204.066 24.8775 203.257 22.1801 209.596ZM23.394 215.53C12.8741 215.26 14.3577 215.935 18.134 213.507C26.3611 213.642 26.7657 212.967 23.394 215.53ZM13.9531 216.069C23.7986 216.339 23.7986 215.935 19.3479 217.958C18.6735 218.227 19.7525 218.227 10.9859 217.688C12.0649 217.148 13.009 216.609 13.9531 216.069ZM26.2262 212.833C17.3248 212.833 18.2689 213.507 22.7196 210.54C28.519 210.675 28.9236 209.865 26.2262 212.833ZM28.519 209.865C22.315 209.731 22.7196 210.675 27.3052 207.168C30.5421 207.168 30.6769 206.494 28.519 209.865ZM30.8118 205.819C30.4072 206.629 30.8118 206.494 28.2493 206.494C32.1605 203.392 32.0256 202.987 30.8118 205.819ZM17.7294 212.563C13.009 215.53 13.5485 216.339 18.134 205.28C21.9104 204.471 21.5058 203.392 17.7294 212.563ZM13.009 207.977C8.4234 218.902 9.63723 217.283 7.20957 218.362C8.01879 213.911 10.3116 210.135 13.009 207.977ZM15.3018 219.037C11.93 219.441 12.3346 219.441 8.82801 219.171C7.74905 219.037 7.88392 219.171 9.63723 218.227C19.213 218.767 17.3248 218.632 15.3018 219.037Z" fill="#04943C"/>
<path d="M178.899 192.737C177.281 183.836 169.188 176.553 168.244 176.822C167.165 177.092 168.244 177.631 167.165 181.678C166.221 185.319 164.468 190.174 164.468 194.625C164.468 203.661 173.369 209.056 174.448 208.921C174.718 208.786 180.518 201.234 178.899 192.737ZM166.086 196.918C164.738 190.984 166.761 194.22 173.369 200.829C173.909 205.819 174.988 205.819 166.086 196.918ZM168.514 182.082C168.919 180.329 168.649 179.789 169.593 183.161C168.514 181.947 168.649 181.947 168.514 182.082ZM170.133 184.51C171.751 190.579 172.021 189.635 167.57 185.319C168.514 182.082 167.84 182.352 170.133 184.51ZM171.481 190.309C172.695 195.839 173.639 195.704 166.626 188.691C167.435 185.319 166.626 185.454 171.481 190.309ZM177.281 191.523C173.1 201.099 174.179 200.155 173.504 195.569C176.741 188.016 176.202 187.477 177.281 191.523ZM174.179 200.425C178.09 191.388 177.685 191.253 177.955 196.109C177.955 196.783 178.36 195.839 174.583 203.661C174.448 202.582 174.313 201.503 174.179 200.425ZM175.932 187.882C172.425 196.109 173.639 195.434 172.425 190.309C174.853 184.914 174.179 184.24 175.932 187.882ZM174.044 184.645C171.616 190.309 172.56 190.309 171.077 184.78C172.29 181.678 171.751 181.273 174.044 184.645ZM171.077 181.003C171.751 181.678 171.751 181.273 170.807 183.566C169.458 178.71 168.919 178.71 171.077 181.003ZM172.56 195.569C173.504 201.099 174.448 200.829 165.952 192.332C166.491 188.556 165.412 188.556 172.56 195.569ZM166.356 198.267C174.853 206.629 173.774 205.01 173.774 207.573C170.133 205.145 167.435 201.503 166.356 198.267ZM177.55 200.29C176.606 203.527 176.741 203.257 175.258 206.224C174.718 207.168 174.988 207.168 174.718 205.145C178.764 196.648 177.82 198.267 177.55 200.29Z" fill="#04943C"/>
<path d="M197.107 30.4883C201.962 22.9356 201.018 12.146 200.074 11.6065C199.13 11.067 199.534 12.146 196.028 14.4388C192.791 16.4618 188.34 18.7546 185.238 22.1264C179.169 28.8699 182.001 38.7154 182.81 39.3897C183.08 39.3897 192.521 37.7713 197.107 30.4883ZM184.833 24.8238C187.8 19.5638 187.126 23.3402 187.531 32.6462C184.429 36.6923 185.373 37.3667 184.833 24.8238ZM196.702 15.5177C198.185 14.5736 198.32 13.8993 196.702 17.1362C196.702 15.5177 196.837 15.5177 196.702 15.5177ZM196.162 18.4849C193.195 24.1494 194.005 23.6099 193.735 17.4059C196.702 15.6526 196.028 15.3829 196.162 18.4849ZM193.195 23.6099C190.363 28.4653 191.172 29.0047 190.633 19.1592C193.735 17.271 192.926 16.7316 193.195 23.6099ZM196.702 28.4653C187.126 32.6462 188.61 32.6462 191.172 28.8699C198.59 25.4981 198.725 24.8238 196.702 28.4653ZM188.34 33.0508C197.376 29.1396 197.107 28.735 194.005 32.3765C193.465 32.916 194.544 32.3765 186.317 35.6134C187.126 34.6693 187.801 33.8601 188.34 33.0508ZM198.185 24.9586C190.093 28.735 191.307 29.0047 194.005 24.2843C199.399 21.8566 199.399 21.0474 198.185 24.9586ZM198.995 21.3171C193.33 23.8797 194.139 24.4192 196.702 19.429C199.669 17.9454 199.534 17.271 198.995 21.3171ZM199.264 16.5967C199.264 17.5408 199.534 17.1362 197.241 18.35C199.669 13.7644 199.264 13.4947 199.264 16.5967ZM190.363 28.1955C187.261 32.916 188.205 33.3206 187.666 21.452C190.768 19.0244 189.958 18.2151 190.363 28.1955ZM184.159 26.0376C184.698 37.9062 184.968 35.8831 183.35 37.9062C182.136 33.5903 182.675 29.1396 184.159 26.0376ZM190.903 35.0739C187.935 36.8272 188.34 36.6923 185.103 37.9062C184.159 38.1759 184.159 38.3108 185.508 36.6923C194.274 33.3206 192.521 33.8601 190.903 35.0739Z" fill="#04943C"/>
<path d="M294.348 61.5084C286.66 56.788 275.871 57.8669 275.331 58.811C274.792 59.7551 275.871 59.3505 278.163 62.8571C280.186 65.9591 282.614 70.5447 285.986 73.5118C292.729 79.581 302.575 76.6139 303.249 75.6698C303.519 75.4 301.631 65.9591 294.348 61.5084ZM288.818 73.7816C283.558 70.8145 287.2 71.4888 296.641 71.0842C300.687 74.0513 301.361 73.1072 288.818 73.7816ZM279.377 62.0479C278.433 60.5643 277.759 60.4295 280.996 61.913C279.377 62.0479 279.377 61.913 279.377 62.0479ZM282.344 62.5874C288.009 65.4197 287.469 64.6104 281.265 65.015C279.512 62.0479 279.242 62.7223 282.344 62.5874ZM287.604 65.4197C292.46 68.2519 292.999 67.4427 283.154 67.9822C281.131 65.015 280.726 65.8243 287.604 65.4197ZM292.325 61.913C296.641 71.4888 296.641 69.8704 292.864 67.4427C289.358 60.0249 288.548 59.89 292.325 61.913ZM296.91 70.1401C292.864 61.1038 292.46 61.3735 296.236 64.4756C296.775 65.015 296.236 63.9361 299.608 72.1631C298.664 71.3539 297.854 70.8144 296.91 70.1401ZM288.683 60.4295C292.46 68.5217 292.729 67.3078 288.144 64.6104C285.716 59.3505 284.907 59.3505 288.683 60.4295ZM285.042 59.6202C287.604 65.2848 288.279 64.4756 283.154 61.913C281.805 58.9459 281.131 59.0808 285.042 59.6202ZM280.321 59.4854C281.265 59.4854 280.861 59.2156 282.075 61.5084C277.624 59.0808 277.219 59.4854 280.321 59.4854ZM292.19 68.117C296.91 71.0842 297.315 70.275 285.446 70.8144C283.019 67.9822 282.21 68.7914 292.19 68.117ZM290.032 74.4559C301.901 73.7816 299.877 73.5118 301.901 75.1303C297.585 76.3441 293.134 75.9395 290.032 74.4559ZM299.068 67.5776C300.822 70.4098 300.687 70.1401 301.901 73.377C302.305 74.3211 302.44 74.3211 300.687 72.9724C297.18 64.2058 297.72 65.9591 299.068 67.5776Z" fill="#04943C"/>
<path d="M362.862 200.29C354.77 196.109 344.25 198.132 343.71 199.076C343.171 200.02 344.25 199.615 346.812 202.852C349.105 205.819 351.802 210.135 355.444 212.833C362.592 218.362 372.303 214.586 372.842 213.642C372.977 213.507 370.414 204.201 362.862 200.29ZM358.276 212.967C352.747 210.405 356.523 210.809 365.829 209.596C370.145 212.293 370.819 211.349 358.276 212.967ZM348.026 201.908C346.947 200.424 346.273 200.425 349.645 201.773C347.891 202.043 347.891 201.908 348.026 201.908ZM350.858 202.313C356.658 204.74 356.118 204.066 350.049 204.875C348.026 202.043 347.891 202.717 350.858 202.313ZM356.388 204.74C361.513 207.168 361.918 206.359 352.207 207.573C349.914 204.74 349.51 205.684 356.388 204.74ZM360.839 200.829C365.964 210 365.694 208.517 361.783 206.359C357.737 199.211 356.927 199.211 360.839 200.829ZM366.099 208.786C361.378 200.155 360.974 200.425 364.885 203.122C365.424 203.527 364.885 202.582 368.796 210.405C367.852 209.865 367.043 209.326 366.099 208.786ZM357.062 199.615C361.513 207.438 361.648 206.089 356.793 203.796C354.095 198.806 353.151 198.806 357.062 199.615ZM353.421 199.211C356.388 204.605 356.927 203.796 351.802 201.638C350.049 198.806 349.375 198.941 353.421 199.211ZM348.7 199.346C349.644 199.211 349.24 198.941 350.589 201.234C345.868 199.211 345.598 199.615 348.7 199.346ZM361.243 207.168C366.234 209.731 366.503 208.921 354.77 210.405C351.937 207.573 351.263 208.517 361.243 207.168ZM359.49 213.642C371.224 212.023 369.336 211.888 371.359 213.372C367.178 214.856 362.727 214.721 359.49 213.642ZM367.987 206.089C370.01 208.786 369.875 208.517 371.224 211.619C371.628 212.563 371.763 212.428 370.01 211.349C365.829 202.717 366.503 204.471 367.987 206.089Z" fill="#04943C"/>
<path d="M210.189 247.764C217.337 242.234 220.169 231.849 219.495 231.04C218.821 230.231 218.821 231.31 214.774 232.254C211.133 233.063 206.008 233.737 202.097 235.76C194.139 239.941 193.33 250.192 193.87 251.136C193.87 251.405 203.311 253.159 210.189 247.764ZM200.613 238.323C205.199 234.412 203.311 237.649 200.478 246.55C196.162 249.382 196.702 250.326 200.613 238.323ZM214.909 233.737C216.663 233.333 216.932 232.793 214.37 235.221C214.909 233.603 215.044 233.603 214.909 233.737ZM213.291 236.165C208.57 240.481 209.515 240.211 211.403 234.277C214.909 233.737 214.235 233.198 213.291 236.165ZM208.84 240.076C204.524 243.718 205.064 244.392 208.031 235.086C211.538 234.277 210.998 233.468 208.84 240.076ZM210.459 245.876C199.939 246.55 201.422 247.09 205.064 244.392C213.291 243.718 213.561 243.043 210.459 245.876ZM201.153 247.224C210.998 246.55 210.863 246.145 206.682 248.573C206.008 248.843 207.087 248.708 198.32 248.978C199.264 248.438 200.209 247.764 201.153 247.224ZM213.156 242.909C204.255 243.583 205.334 244.257 209.38 240.886C215.179 240.481 215.584 239.807 213.156 242.909ZM215.179 239.807C208.975 240.211 209.515 241.02 213.696 237.244C216.932 236.974 217.067 236.3 215.179 239.807ZM217.067 235.491C216.798 236.435 217.202 236.165 214.64 236.435C218.281 232.928 218.011 232.524 217.067 235.491ZM204.659 243.448C200.209 246.82 200.883 247.494 204.524 236.165C208.166 234.951 207.626 233.872 204.659 243.448ZM199.534 239.132C195.893 250.461 196.972 248.708 194.679 250.057C195.083 245.606 196.972 241.695 199.534 239.132ZM202.771 250.057C199.399 250.731 199.804 250.731 196.432 250.731C195.353 250.731 195.488 250.866 197.241 249.787C206.682 249.517 204.794 249.382 202.771 250.057Z" fill="#04943C"/>
<path d="M365.424 271.906C357.602 267.455 346.812 268.939 346.408 269.883C345.868 270.827 346.947 270.422 349.375 273.794C351.533 276.896 354.095 281.347 357.602 284.179C364.615 289.978 374.326 286.606 375 285.662C375 285.528 372.842 276.087 365.424 271.906ZM360.299 284.449C354.904 281.751 358.681 282.291 367.987 281.347C372.168 284.179 372.842 283.235 360.299 284.449ZM350.454 272.985C349.375 271.501 348.835 271.501 352.072 272.85C350.454 272.985 350.454 272.85 350.454 272.985ZM353.421 273.524C359.22 276.087 358.546 275.412 352.477 275.952C350.589 272.985 350.319 273.794 353.421 273.524ZM358.816 276.087C363.806 278.649 364.21 277.84 354.5 278.784C352.342 275.952 351.937 276.761 358.816 276.087ZM363.401 272.31C368.122 281.751 367.987 280.133 364.076 277.84C360.299 270.557 359.625 270.557 363.401 272.31ZM368.256 280.537C363.806 271.636 363.536 271.906 367.312 274.873C367.852 275.412 367.312 274.333 370.954 282.425C370.145 281.616 369.201 281.077 368.256 280.537ZM359.76 271.096C363.941 279.054 364.076 277.705 359.355 275.277C356.658 270.017 355.848 270.152 359.76 271.096ZM356.118 270.422C358.95 275.952 359.49 275.143 354.365 272.715C352.746 269.883 352.072 270.017 356.118 270.422ZM351.398 270.422C352.342 270.422 351.937 270.017 353.286 272.31C348.565 270.152 348.296 270.557 351.398 270.422ZM363.536 278.649C368.391 281.481 368.796 280.537 356.927 281.616C354.23 278.784 353.556 279.593 363.536 278.649ZM361.513 285.123C373.382 284.044 371.359 283.774 373.382 285.393C369.201 286.606 364.75 286.337 361.513 285.123ZM370.28 277.84C372.168 280.672 372.033 280.402 373.382 283.504C373.786 284.449 373.921 284.314 372.168 283.1C368.256 274.468 368.931 276.221 370.28 277.84Z" fill="#04943C"/>
<path d="M17.9992 290.653C21.9104 282.56 19.7525 271.906 18.8084 271.501C17.8643 271.096 18.2689 272.175 15.032 274.738C12.0649 277.166 7.88391 279.998 5.32138 283.639C0.0614491 291.057 3.97268 300.498 4.91677 301.038C5.05164 301.172 14.2228 298.34 17.9992 290.653ZM5.05164 286.337C7.4793 280.807 7.07469 284.583 8.55826 293.755C6.1306 298.205 7.07469 298.88 5.05164 286.337ZM15.8412 275.817C17.1899 274.738 17.3248 274.064 16.111 277.435C15.8412 275.682 15.9761 275.817 15.8412 275.817ZM15.5715 278.784C13.2787 284.718 14.0879 284.044 13.009 277.975C15.8412 275.817 15.1669 275.682 15.5715 278.784ZM13.4136 284.314C11.1208 289.439 11.93 289.843 10.4464 280.133C13.1438 277.84 12.3346 277.435 13.4136 284.314ZM17.4597 288.764C8.42339 294.024 9.90696 293.889 11.93 289.843C18.9433 285.528 18.9433 284.718 17.4597 288.764ZM9.63722 294.159C18.134 289.169 17.8643 288.899 15.3018 292.811C14.8972 293.35 15.8412 292.811 8.01878 296.991C8.55826 296.047 9.09774 295.103 9.63722 294.159ZM18.4038 284.853C10.7162 289.574 12.0649 289.574 14.2228 284.718C19.213 281.751 19.213 280.942 18.4038 284.853ZM18.8084 281.212C13.5485 284.314 14.3577 284.853 16.3807 279.593C19.0781 277.84 18.9433 277.166 18.8084 281.212ZM18.5386 276.491C18.6735 277.435 18.9433 277.031 16.7853 278.379C18.5386 273.659 18.134 273.389 18.5386 276.491ZM11.1208 289.169C8.69313 294.159 9.50235 294.564 7.61417 282.695C10.4464 279.998 9.50235 279.323 11.1208 289.169ZM4.51216 287.685C6.40034 299.419 6.53521 297.396 5.05164 299.554C3.56807 295.373 3.4332 290.922 4.51216 287.685ZM12.3346 295.913C9.63722 297.936 9.90696 297.801 6.93982 299.419C5.99573 299.824 6.1306 299.959 7.20956 298.205C15.5715 293.62 13.8182 294.429 12.3346 295.913Z" fill="#04943C"/>
<path d="M22.7196 20.2382C18.134 12.4157 8.15366 8.36965 7.20957 8.90913C6.40035 9.44861 7.47931 9.71835 7.88392 13.7644C8.15366 17.5408 8.15366 22.6659 9.7721 26.8468C12.8741 35.3436 22.9894 37.3667 24.0683 36.9621C24.3381 36.8272 27.1703 27.6561 22.7196 20.2382ZM12.0649 28.6001C8.82801 23.4751 11.7951 25.9027 20.1571 29.814C22.4499 34.2647 23.5288 33.8601 12.0649 28.6001ZM9.36749 13.7644C9.23262 12.0111 8.69314 11.6065 10.8511 14.4388C9.23262 13.6296 9.36749 13.6296 9.36749 13.7644ZM11.6603 15.6526C15.3018 20.7777 15.1669 19.8336 9.63723 17.2711C9.36749 13.7644 8.82801 14.3039 11.6603 15.6526ZM14.8972 20.5079C17.8643 25.2284 18.6735 24.8238 9.7721 20.6428C9.50236 17.1362 8.69314 17.6757 14.8972 20.5079ZM20.8314 19.6987C20.1571 30.2186 20.8314 28.735 18.6735 24.8238C19.0781 16.5967 18.4038 16.1921 20.8314 19.6987ZM20.9663 29.1396C21.6407 19.2941 21.1012 19.2941 22.9894 23.7448C23.2591 24.4192 23.2591 23.3402 22.315 32.1068C21.9104 31.0278 21.5058 30.0837 20.9663 29.1396ZM18.2689 16.7316C17.8643 25.633 18.6735 24.6889 15.8412 20.1033C16.111 14.3039 15.4366 13.8993 18.2689 16.7316ZM15.4366 14.3039C15.032 20.5079 15.9761 20.1033 12.7392 15.3829C12.7392 12.146 12.0649 11.8763 15.4366 14.3039ZM11.3905 11.8763C12.1998 12.2809 12.0649 11.8763 12.0649 14.4388C9.09775 10.2578 8.55827 10.5276 11.3905 11.8763ZM17.7294 25.0935C20.5617 29.9488 21.236 29.4094 10.4464 24.4192C9.63723 20.6428 8.55827 20.9126 17.7294 25.0935ZM12.8741 29.6791C23.6637 34.6693 22.0453 33.4555 23.1242 35.8831C18.6735 34.939 14.8972 32.5114 12.8741 29.6791ZM24.0683 27.9258C24.3381 31.2976 24.3381 31.0278 23.9334 34.3996C23.7986 35.4785 23.9334 35.3436 23.1242 33.4555C23.9334 23.8797 23.6637 25.7679 24.0683 27.9258Z" fill="#04943C"/>
<path d="M71.5426 365.505C76.6676 358.088 75.9933 347.163 75.0492 346.624C74.1051 346.084 74.5097 347.163 70.8682 349.321C67.6313 351.209 63.0457 353.502 59.9437 356.739C53.6048 363.213 56.1674 373.193 56.9766 373.867C57.2463 374.137 66.6872 372.654 71.5426 365.505ZM59.4042 359.436C62.5063 354.311 61.697 357.953 61.8319 367.259C58.7299 371.44 59.5391 372.114 59.4042 359.436ZM71.5426 350.67C73.0261 349.726 73.161 349.186 71.5426 352.288C71.5426 350.535 71.6774 350.535 71.5426 350.67ZM70.8682 353.502C67.7662 359.032 68.5754 358.492 68.4405 352.288C71.5425 350.67 70.8682 350.4 70.8682 353.502ZM67.9011 358.627C64.9339 363.482 65.7431 363.887 65.4734 354.176C68.5754 352.288 67.7662 351.749 67.9011 358.627ZM71.2728 363.617C61.5622 367.528 63.0457 367.663 65.7431 363.887C73.161 360.65 73.2959 359.841 71.2728 363.617ZM62.776 367.798C71.9472 364.022 71.6774 363.752 68.5754 367.259C68.0359 367.798 69.1149 367.259 60.8878 370.361C61.4273 369.552 62.1016 368.607 62.776 367.798ZM72.7564 359.976C64.5293 363.482 65.7431 363.752 68.5754 359.301C74.1051 357.009 74.1051 356.199 72.7564 359.976ZM73.7005 356.334C68.0359 358.762 68.7103 359.301 71.5426 354.446C74.5097 353.097 74.3748 352.423 73.7005 356.334ZM74.1051 351.749C74.1051 352.693 74.3748 352.423 72.082 353.367C74.5097 348.916 74.1051 348.647 74.1051 351.749ZM64.9339 363.078C61.697 367.663 62.6411 368.203 62.5063 356.199C65.6083 353.907 64.799 353.097 64.9339 363.078ZM58.7299 360.65C58.8648 372.519 59.2694 370.63 57.5161 372.519C56.572 368.203 57.1115 363.752 58.7299 360.65ZM65.2037 369.956C62.2365 371.575 62.5063 371.44 59.4042 372.519C58.3253 372.788 58.4602 372.923 59.8089 371.305C68.7103 368.203 66.8221 368.742 65.2037 369.956Z" fill="#04943C"/>
<path d="M98.6514 247.494C103.507 239.807 102.428 229.017 101.619 228.612C100.674 228.073 101.079 229.152 97.5725 231.445C94.3356 233.468 89.8849 235.895 86.9177 239.132C80.8486 245.876 83.6809 255.721 84.6249 256.396C84.6249 256.53 94.0658 254.777 98.6514 247.494ZM86.2434 241.83C89.2105 236.57 88.5362 240.211 88.9408 249.652C85.9737 253.833 86.9177 254.507 86.2434 241.83ZM98.2468 232.658C99.7304 231.714 99.8653 231.04 98.2468 234.277C98.2468 232.524 98.2468 232.524 98.2468 232.658ZM97.5725 235.491C94.7402 241.155 95.4145 240.616 95.1448 234.412C98.2468 232.658 97.4376 232.389 97.5725 235.491ZM94.7402 240.751C91.9079 245.606 92.7171 246.145 92.1777 236.3C95.2797 234.277 94.4705 233.737 94.7402 240.751ZM98.2468 245.606C88.671 249.922 90.1546 249.787 92.7171 246.011C100.135 242.504 100.135 241.83 98.2468 245.606ZM89.8849 250.057C98.9212 246.011 98.6514 245.741 95.5494 249.382C95.0099 249.922 96.0889 249.382 87.8618 252.619C88.671 251.81 89.3454 250.866 89.8849 250.057ZM99.7304 241.964C91.6382 245.741 92.852 246.011 95.5494 241.425C100.809 238.862 100.809 238.053 99.7304 241.964ZM100.54 238.323C94.8751 240.886 95.6843 241.425 98.2468 236.435C101.214 234.951 101.079 234.277 100.54 238.323ZM100.809 233.603C100.809 234.547 101.079 234.142 98.7863 235.356C101.079 230.77 100.674 230.501 100.809 233.603ZM91.9079 245.336C88.8059 250.057 89.75 250.461 89.2105 238.593C92.3125 236.03 91.5033 235.356 91.9079 245.336ZM85.569 243.043C86.1085 254.912 86.5131 252.889 84.7598 254.912C83.6809 250.596 84.2203 246.28 85.569 243.043ZM92.4474 252.215C89.4803 253.968 89.8849 253.833 86.648 255.047C85.7039 255.317 85.7039 255.586 87.0526 253.833C95.8192 250.326 94.0658 250.866 92.4474 252.215Z" fill="#04943C"/>
<path d="M151.79 236.57C146.53 229.152 136.145 226.05 135.336 226.724C134.527 227.399 135.606 227.399 136.415 231.579C137.089 235.356 137.494 240.346 139.517 244.392C143.428 252.619 153.678 253.698 154.622 253.159C154.892 252.889 156.915 243.583 151.79 236.57ZM141.945 245.741C138.303 241.02 141.405 243.043 150.172 246.28C152.869 250.596 153.813 250.057 141.945 245.741ZM137.899 231.175C137.629 229.422 137.089 229.017 139.382 231.714C137.764 231.175 137.899 231.175 137.899 231.175ZM140.326 232.928C144.372 237.783 144.237 236.839 138.438 234.816C137.899 231.31 137.494 231.849 140.326 232.928ZM144.103 237.514C147.609 241.964 148.284 241.425 139.112 238.188C138.303 234.682 137.629 235.221 144.103 237.514ZM149.902 236.165C150.172 246.685 150.711 245.201 148.149 241.56C147.879 233.198 147.205 232.928 149.902 236.165ZM150.846 245.606C150.576 235.76 150.172 235.76 152.465 240.076C152.734 240.751 152.734 239.672 152.599 248.438C152.06 247.359 151.52 246.415 150.846 245.606ZM147.07 233.333C147.474 242.234 148.149 241.155 144.912 236.974C144.777 231.175 143.968 230.905 147.07 233.333ZM143.968 231.31C144.237 237.514 145.047 236.974 141.405 232.658C141.27 229.287 140.596 229.287 143.968 231.31ZM139.787 229.152C140.731 229.556 140.461 229.017 140.596 231.714C137.359 227.938 136.955 228.073 139.787 229.152ZM147.34 241.83C150.576 246.415 151.251 245.741 140.057 241.695C138.843 238.053 137.899 238.458 147.34 241.83ZM142.889 246.82C154.083 250.866 152.33 249.787 153.544 252.08C149.093 251.54 145.182 249.382 142.889 246.82ZM153.813 243.988C154.353 247.359 154.353 246.955 154.218 250.326C154.083 251.405 154.353 251.271 153.274 249.517C153.409 240.076 153.274 241.964 153.813 243.988Z" fill="#04943C"/>
<path d="M121.714 346.893C113.352 343.387 102.967 346.219 102.563 347.163C102.158 348.107 103.237 347.568 105.934 350.67C108.497 353.502 111.599 357.548 115.24 359.976C122.928 364.831 132.099 360.38 132.639 359.436C132.908 359.167 129.672 350.13 121.714 346.893ZM118.208 359.976C112.543 357.818 116.319 357.953 125.491 356.065C130.076 358.222 130.616 357.278 118.208 359.976ZM107.148 349.726C105.934 348.377 105.395 348.377 108.632 349.456C107.013 349.726 107.013 349.591 107.148 349.726ZM110.115 349.86C116.185 351.749 115.51 351.074 109.441 352.423C107.148 349.726 107.013 350.4 110.115 349.86ZM115.645 351.749C120.905 353.772 121.31 352.828 111.734 354.986C109.306 352.423 108.902 353.232 115.645 351.749ZM119.961 347.568C125.76 356.334 125.491 354.851 121.31 352.963C116.589 346.084 115.915 346.219 119.961 347.568ZM125.76 354.986C120.365 346.759 119.961 347.028 124.142 349.456C124.681 349.861 124.142 348.916 128.593 356.469C127.648 355.93 126.704 355.525 125.76 354.986ZM116.05 346.624C121.04 354.041 121.175 352.693 116.185 350.805C112.948 346.084 112.138 346.219 116.05 346.624ZM112.408 346.489C115.915 351.614 116.319 350.805 110.925 349.051C108.902 346.354 108.362 346.624 112.408 346.489ZM107.688 347.028C108.632 346.893 108.227 346.624 109.711 348.647C104.855 347.163 104.586 347.568 107.688 347.028ZM120.635 353.772C125.76 355.93 126.03 355.12 114.431 357.548C111.599 354.986 110.925 355.93 120.635 353.772ZM119.556 360.38C131.155 357.953 129.132 357.818 131.425 359.167C127.379 361.055 122.928 361.324 119.556 360.38ZM127.379 352.153C129.672 354.716 129.402 354.446 131.155 357.413C131.695 358.357 131.829 358.222 129.941 357.143C124.951 349.051 125.895 350.805 127.379 352.153Z" fill="#04943C"/>
<path d="M20.0222 355.525C25.417 348.242 25.0124 337.452 24.2032 336.778C23.2591 336.104 23.6637 337.318 20.0222 339.341C16.6505 341.094 12.0649 343.252 8.828 346.354C2.35424 352.693 4.51216 362.673 5.32138 363.482C5.45625 363.617 15.032 362.538 20.0222 355.525ZM8.15365 349.051C11.5254 344.061 10.5813 347.703 10.3116 357.009C7.07469 360.92 7.88391 361.729 8.15365 349.051ZM20.6966 340.689C22.315 339.88 22.4499 339.206 20.6966 342.308C20.6966 340.554 20.8314 340.554 20.6966 340.689ZM19.8873 343.522C16.6505 348.916 17.4597 348.377 17.5946 342.308C20.6966 340.689 19.8873 340.42 19.8873 343.522ZM16.6505 348.512C13.5485 353.232 14.2228 353.772 14.4925 343.926C17.5946 342.038 16.7853 341.633 16.6505 348.512ZM19.8873 353.502C10.0418 357.143 11.5254 357.143 14.2228 353.502C21.9104 350.67 22.0453 349.861 19.8873 353.502ZM11.2557 357.413C20.5617 354.041 20.292 353.637 17.0551 357.143C16.5156 357.683 17.5946 357.143 9.23261 359.841C9.90696 359.167 10.5813 358.357 11.2557 357.413ZM21.5058 349.995C13.1438 353.232 14.3577 353.502 17.3248 349.051C22.8545 347.163 22.9894 346.219 21.5058 349.995ZM22.5847 346.489C16.7853 348.647 17.4597 349.321 20.4268 344.466C23.5288 343.117 23.394 342.443 22.5847 346.489ZM23.2591 341.768C23.2591 342.712 23.5288 342.443 21.1012 343.387C23.6637 339.071 23.2591 338.666 23.2591 341.768ZM13.5485 352.828C10.1767 357.278 10.9859 357.818 11.2557 345.814C14.4925 343.656 13.8182 342.847 13.5485 352.828ZM7.4793 350.265C7.20956 362.134 7.74904 360.245 5.86086 362.134C5.05164 357.683 5.72599 353.232 7.4793 350.265ZM13.5485 359.706C10.5813 361.324 10.8511 361.19 7.61417 362.134C6.53521 362.403 6.67008 362.538 8.15365 361.055C17.1899 358.088 15.3018 358.627 13.5485 359.706Z" fill="#04943C"/>
<path d="M69.6544 134.743C63.1806 128.539 52.391 127.46 51.5818 128.134C50.9074 128.943 51.9864 128.809 53.47 132.72C54.8187 136.226 56.3022 141.217 58.9996 144.723C64.3944 152.006 74.6446 151.197 75.4538 150.388C75.7235 150.253 75.9933 140.677 69.6544 134.743ZM61.697 145.667C57.1115 141.756 60.6181 143.105 69.9241 144.588C73.2959 148.365 74.24 147.69 61.697 145.667ZM54.9535 132.18C54.2792 130.562 53.7397 130.292 56.572 132.45C54.9535 132.18 54.9535 132.18 54.9535 132.18ZM57.6509 133.394C62.6411 137.305 62.2365 136.496 56.1674 135.552C54.9535 132.315 54.6838 132.99 57.6509 133.394ZM62.2365 137.17C66.4175 140.947 67.0918 140.272 57.3812 138.789C56.0325 135.552 55.3582 136.226 62.2365 137.17ZM67.7662 134.743C70.059 144.993 70.3287 143.509 67.0918 140.272C65.0688 132.315 64.3944 132.045 67.7662 134.743ZM70.4636 143.779C68.3057 134.068 67.9011 134.338 70.8682 137.98C71.2728 138.654 71.0031 137.44 72.6215 146.072C71.9472 145.398 71.1379 144.588 70.4636 143.779ZM64.3944 132.585C66.5524 141.351 66.957 140.138 63.0457 136.496C61.697 130.832 60.8878 130.697 64.3944 132.585ZM61.0227 131.101C62.3714 137.17 63.1806 136.496 58.7299 132.99C57.9207 129.753 57.2463 129.753 61.0227 131.101ZM56.4371 129.887C57.3812 130.022 57.1115 129.618 57.7858 132.18C53.7397 129.078 53.3351 129.348 56.4371 129.887ZM66.2826 140.947C70.3287 144.858 70.8682 144.049 59.1345 142.296C57.2463 138.789 56.3022 139.463 66.2826 140.947ZM62.776 146.611C74.5097 148.365 72.6215 147.69 74.24 149.713C69.7892 149.983 65.6083 148.634 62.776 146.611ZM73.0261 141.756C74.24 144.993 74.1051 144.588 74.6446 147.96C74.7794 149.039 74.9143 148.904 73.5656 147.286C71.9472 137.98 72.082 139.868 73.0261 141.756Z" fill="#04943C"/>
<path d="M207.357 131.101C201.557 124.223 190.903 122.065 190.093 122.739C189.284 123.414 190.498 123.414 191.577 127.46C192.521 131.101 193.465 136.092 195.758 140.003C200.343 147.825 210.728 147.96 211.538 147.421C211.942 147.151 213.021 137.575 207.357 131.101ZM198.32 141.217C194.274 136.766 197.511 138.654 206.547 140.947C209.649 144.993 210.594 144.319 198.32 141.217ZM193.06 127.055C192.656 125.302 192.116 125.032 194.544 127.46C192.926 127.055 193.06 126.92 193.06 127.055ZM195.623 128.539C200.074 132.99 199.804 132.045 193.87 130.562C193.06 127.055 192.656 127.73 195.623 128.539ZM199.804 132.72C203.58 136.901 204.39 136.226 194.814 133.799C193.735 130.427 193.06 130.966 199.804 132.72ZM205.468 130.832C206.682 141.217 207.087 139.733 204.255 136.226C203.041 128.134 202.366 127.864 205.468 130.832ZM207.222 140.138C206.143 130.292 205.603 130.427 208.301 134.473C208.705 135.147 208.436 134.068 209.11 142.7C208.57 141.891 207.896 140.947 207.222 140.138ZM202.366 128.404C203.58 137.305 204.12 136.092 200.613 132.18C199.804 126.381 199.13 126.111 202.366 128.404ZM199.13 126.516C199.939 132.72 200.748 132.045 196.702 128.134C196.162 124.897 195.488 124.762 199.13 126.516ZM194.679 124.897C195.623 125.167 195.353 124.762 195.758 127.325C192.116 123.683 191.712 124.088 194.679 124.897ZM203.311 136.766C206.952 141.082 207.626 140.407 196.028 137.305C194.544 133.799 193.6 134.338 203.311 136.766ZM199.399 142.161C210.863 145.128 209.11 144.184 210.594 146.477C206.008 146.207 201.962 144.453 199.399 142.161ZM210.054 138.384C210.863 141.621 210.863 141.351 210.998 144.723C210.998 145.802 211.133 145.667 210.054 144.049C209.245 134.473 209.245 136.361 210.054 138.384Z" fill="#04943C"/>
<path d="M71.0031 302.251C63.4503 297.261 52.6607 298.07 52.1213 299.014C51.5818 299.959 52.6607 299.554 54.8187 303.195C56.8417 306.432 58.9996 311.018 62.3714 313.985C68.98 320.189 78.9604 317.492 79.6347 316.682C79.7696 316.413 78.1512 306.972 71.0031 302.251ZM65.0688 314.39C59.9437 311.288 63.5852 312.097 72.8912 311.827C77.0722 314.929 77.7466 314.12 65.0688 314.39ZM56.0325 302.386C55.0884 300.903 54.5489 300.768 57.6509 302.386C56.0325 302.386 56.0325 302.251 56.0325 302.386ZM58.9996 303.061C64.5293 306.028 63.9898 305.353 57.9207 305.488C56.1674 302.386 55.8976 303.061 58.9996 303.061ZM64.1247 306.028C68.98 308.995 69.5195 308.186 59.674 308.455C57.6509 305.353 57.2463 306.163 64.1247 306.028ZM68.98 302.656C73.0261 312.367 73.0261 310.748 69.2498 308.186C66.0129 300.633 65.3385 300.498 68.98 302.656ZM73.2959 311.018C69.5195 301.847 69.1149 302.116 72.7564 305.353C73.2959 305.893 72.7564 304.814 75.8584 313.041C75.0492 312.367 74.2399 311.692 73.2959 311.018ZM65.4734 301.038C69.1149 309.265 69.3846 307.916 64.799 305.219C62.3714 299.824 61.5622 299.824 65.4734 301.038ZM61.8319 300.228C64.2596 305.893 64.9339 305.218 59.9437 302.386C58.4601 299.419 57.7858 299.554 61.8319 300.228ZM57.1115 299.824C58.0555 299.824 57.6509 299.554 58.8648 301.847C54.2792 299.419 54.0094 299.824 57.1115 299.824ZM68.7103 308.86C73.2959 311.962 73.8353 311.153 61.8319 311.423C59.4042 308.321 58.595 309.13 68.7103 308.86ZM66.2826 315.199C78.1512 314.929 76.263 314.525 78.1512 316.278C73.8353 317.222 69.3846 316.682 66.2826 315.199ZM75.5886 308.59C77.342 311.557 77.2071 311.153 78.286 314.39C78.5558 315.469 78.6907 315.334 77.0722 313.985C73.7005 305.084 74.2399 306.837 75.5886 308.59Z" fill="#04943C"/>
<path d="M279.782 288.09C288.009 284.179 292.864 274.603 292.325 273.659C291.785 272.715 291.516 273.794 287.335 273.794C283.558 273.794 278.433 273.389 274.117 274.603C265.351 277.031 262.519 287.011 262.923 287.955C263.058 288.36 271.959 291.866 279.782 288.09ZM272.364 276.761C277.624 273.929 275.061 276.626 270.476 284.718C265.755 286.741 266.16 287.82 272.364 276.761ZM287.335 275.277C289.088 275.277 289.493 274.873 286.525 276.626C287.469 275.277 287.469 275.277 287.335 275.277ZM285.312 277.435C279.917 280.672 280.861 280.537 283.828 275.277C287.335 275.277 286.795 274.738 285.312 277.435ZM280.052 280.402C275.061 282.965 275.466 283.909 280.321 275.277C283.963 275.143 283.558 274.333 280.052 280.402ZM280.456 286.337C270.071 284.853 271.42 285.662 275.466 283.774C283.693 284.718 284.098 284.179 280.456 286.337ZM271.015 285.662C280.861 287.146 280.726 286.606 276.14 288.09C275.466 288.225 276.545 288.36 267.913 286.741C268.992 286.472 270.071 286.067 271.015 285.662ZM283.693 284.044C274.792 282.83 275.736 283.774 280.456 281.347C286.256 282.021 286.66 281.347 283.693 284.044ZM286.256 281.347C280.186 280.537 280.456 281.481 285.312 278.514C288.683 278.919 288.953 278.245 286.256 281.347ZM289.088 277.57C288.548 278.379 289.088 278.245 286.525 277.975C290.841 275.277 290.571 274.873 289.088 277.57ZM275.331 282.695C270.206 285.123 270.746 285.932 276.68 275.547C280.456 275.143 280.186 274.064 275.331 282.695ZM271.15 277.435C265.216 287.82 266.565 286.337 264.137 287.146C265.486 282.83 268.183 279.323 271.15 277.435ZM272.094 288.764C268.723 288.764 268.992 288.764 265.755 288.09C264.676 287.82 264.811 287.955 266.699 287.281C276.006 289.034 274.117 288.63 272.094 288.764Z" fill="#04943C"/>
<path d="M266.025 133.124C270.746 125.437 269.397 114.647 268.453 114.108C267.509 113.568 267.913 114.647 264.407 116.94C261.305 119.098 256.719 121.526 253.887 124.897C247.953 131.776 251.055 141.621 251.864 142.161C252.268 142.43 261.709 140.542 266.025 133.124ZM253.617 127.73C256.449 122.47 255.91 126.111 256.449 135.417C253.617 139.598 254.426 140.272 253.617 127.73ZM265.351 118.154C266.834 117.21 266.969 116.535 265.486 119.772C265.351 118.154 265.351 118.154 265.351 118.154ZM264.811 121.121C261.979 126.785 262.788 126.246 262.384 120.042C265.216 118.154 264.542 118.019 264.811 121.121ZM261.979 126.381C259.282 131.371 260.091 131.776 259.416 122.065C262.384 119.907 261.574 119.502 261.979 126.381ZM265.621 131.101C256.045 135.552 257.663 135.552 260.091 131.641C267.509 127.999 267.509 127.325 265.621 131.101ZM257.393 135.822C266.295 131.641 266.16 131.236 263.058 135.013C262.518 135.552 263.597 135.013 255.505 138.519C256.18 137.575 256.854 136.631 257.393 135.822ZM266.969 127.46C258.877 131.371 260.226 131.641 262.788 126.92C268.048 124.493 268.048 123.549 266.969 127.46ZM267.778 123.818C262.249 126.516 262.923 127.055 265.486 121.93C268.318 120.447 268.183 119.772 267.778 123.818ZM267.913 119.098C267.913 120.042 268.318 119.637 266.025 120.851C268.183 116.266 267.778 115.996 267.913 119.098ZM259.282 130.966C256.314 135.687 257.259 136.091 256.449 124.223C259.416 121.795 258.607 120.986 259.282 130.966ZM252.943 128.943C253.752 140.812 254.022 138.789 252.403 140.812C251.189 136.496 251.594 132.18 252.943 128.943ZM259.956 137.845C257.124 139.733 257.393 139.463 254.291 140.812C253.347 141.217 253.347 141.351 254.696 139.598C263.328 135.957 261.574 136.496 259.956 137.845Z" fill="#04943C"/>
<path d="M320.243 121.795C323.884 113.568 321.322 103.048 320.378 102.644C319.434 102.239 319.973 103.318 316.736 106.015C313.904 108.443 309.723 111.545 307.295 115.187C302.305 122.739 306.486 132.045 307.43 132.585C307.7 132.72 316.736 129.618 320.243 121.795ZM307.295 117.884C309.453 112.219 309.318 115.996 311.072 125.167C308.644 129.753 309.588 130.427 307.295 117.884ZM317.68 107.094C319.029 105.881 319.029 105.341 317.95 108.578C317.68 106.96 317.815 106.96 317.68 107.094ZM317.545 110.062C315.522 115.996 316.197 115.456 314.983 109.387C317.68 107.094 316.871 106.96 317.545 110.062ZM315.388 115.591C313.23 120.851 314.174 121.256 312.286 111.545C314.983 109.117 314.039 108.848 315.388 115.591ZM319.569 119.907C310.667 125.437 312.286 125.302 314.174 121.121C321.052 116.67 320.917 115.861 319.569 119.907ZM312.016 125.572C320.378 120.312 320.108 120.042 317.545 124.088C317.141 124.628 318.085 124.088 310.397 128.404C310.937 127.46 311.476 126.516 312.016 125.572ZM320.513 116.131C312.96 120.986 314.309 121.121 316.332 116.131C321.187 112.894 321.052 112.085 320.513 116.131ZM320.782 112.354C315.522 115.726 316.467 116.131 318.22 110.871C321.052 108.983 320.782 108.308 320.782 112.354ZM320.378 107.634C320.513 108.578 320.782 108.173 318.624 109.657C320.243 104.802 319.838 104.667 320.378 107.634ZM313.364 120.581C311.072 125.706 312.016 125.976 309.723 114.243C312.286 111.41 311.341 110.736 313.364 120.581ZM306.756 119.233C309.049 130.966 309.049 128.943 307.7 131.101C305.947 127.055 305.677 122.604 306.756 119.233ZM314.848 127.325C312.286 129.483 312.555 129.348 309.588 130.966C308.644 131.506 308.779 131.506 309.858 129.753C317.95 124.897 316.197 125.706 314.848 127.325Z" fill="#04943C"/>
<rect width="375" height="374" fill="url(#paint0_linear)"/>
<defs>
<linearGradient id="paint0_linear" x1="187.5" y1="2.25555e-08" x2="187" y2="387.5" gradientUnits="userSpaceOnUse">
<stop stop-color="#00593C" stop-opacity="0"/>
<stop offset="1" stop-color="#00593C"/>
</linearGradient>
</defs>
</svg>
