<svg width="504" height="506" viewBox="0 0 504 506" fill="none" xmlns="http://www.w3.org/2000/svg">
<path d="M299.87 474.645C296.606 462.857 284.817 454.332 283.547 454.695C282.096 455.058 283.547 455.783 282.64 461.224C281.734 466.302 280.101 472.832 280.827 478.817C282.096 490.968 294.611 496.953 296.062 496.772C296.243 496.772 303.135 485.709 299.87 474.645ZM283.185 481.9C280.645 474.283 283.729 478.273 293.341 486.253C294.792 492.782 296.243 492.601 283.185 481.9ZM284.635 461.587C284.998 459.229 284.454 458.504 286.268 462.857C284.454 461.587 284.635 461.406 284.635 461.587ZM286.993 464.852C290.076 472.832 290.076 471.562 283.729 466.302C284.635 461.587 283.729 462.131 286.993 464.852ZM289.532 472.288C291.89 479.542 292.978 479.179 282.822 470.837C283.547 466.121 282.459 466.484 289.532 472.288ZM297.513 473.194C293.16 486.615 294.611 484.983 292.978 479.179C296.243 468.66 295.517 467.935 297.513 473.194ZM294.611 485.527C298.782 472.832 298.238 472.832 299.145 479.179C299.145 480.086 299.689 478.635 295.517 489.699C295.155 488.429 294.973 486.978 294.611 485.527ZM295.336 468.479C291.709 479.905 293.16 478.998 290.983 472.106C293.341 464.67 292.434 463.945 295.336 468.479ZM292.253 464.489C289.714 472.469 290.983 472.288 288.263 465.033C289.714 460.68 288.807 460.317 292.253 464.489ZM287.9 459.955C288.807 460.862 288.807 460.136 287.9 463.582C285.361 457.053 284.635 457.234 287.9 459.955ZM291.709 479.361C293.704 486.615 294.973 486.071 282.459 475.915C282.822 470.655 281.19 470.837 291.709 479.361ZM283.729 483.532C296.062 493.689 294.429 491.512 294.973 494.958C289.532 492.419 285.542 487.885 283.729 483.532ZM298.963 484.983C298.057 489.517 298.238 488.973 296.606 493.326C296.062 494.596 296.243 494.596 295.88 491.875C300.233 479.905 299.145 482.263 298.963 484.983Z" fill="#04943C"/>
<path d="M104.539 20.8674C101.819 8.89725 90.5741 -0.352419 89.3045 0.0103128C87.8536 0.373045 89.3045 1.09851 88.0349 6.53949C86.9467 11.4364 84.7703 18.1469 85.1331 24.132C85.6772 36.2835 97.8287 42.9941 99.2796 42.8127C99.8237 42.6313 107.078 32.1121 104.539 20.8674ZM87.4908 27.0339C85.3144 19.2351 88.2163 23.4065 97.466 31.9307C98.5542 38.6413 100.005 38.6413 87.4908 27.0339ZM90.03 6.90222C90.5741 4.54446 90.03 3.819 91.6622 8.35315C89.8486 6.90222 90.03 6.90222 90.03 6.90222ZM92.2063 10.3482C94.7455 18.5096 94.9268 17.2401 88.9418 11.6177C90.03 7.08359 89.1231 7.44632 92.2063 10.3482ZM94.3827 17.9655C96.3778 25.2202 97.466 25.0388 87.8536 16.1519C88.7604 11.4364 87.4908 11.7991 94.3827 17.9655ZM102.363 19.2351C97.2846 32.4748 98.7355 30.8425 97.466 25.0388C101.275 14.5196 100.549 13.7941 102.363 19.2351ZM98.7355 31.3866C103.632 19.0537 102.907 18.8724 103.451 25.4016C103.451 26.3084 103.995 25.0388 99.2796 35.7394C99.0983 34.2885 98.9169 32.8376 98.7355 31.3866ZM100.186 14.3382C96.015 25.5829 97.466 24.6761 95.6523 17.7842C98.5542 10.5295 97.6473 9.62271 100.186 14.3382ZM97.6473 10.1668C94.7455 17.9656 96.015 17.7842 93.6573 10.5295C95.1082 6.35813 94.3827 5.81403 97.6473 10.1668ZM93.2945 5.45129C94.2014 6.35812 94.2014 5.63266 93.1132 9.07862C90.9368 2.54944 90.3927 2.54944 93.2945 5.45129ZM96.1964 25.0388C97.8287 32.4748 99.0983 31.9307 87.1281 21.2301C87.6722 15.9705 86.2213 15.9705 96.1964 25.0388ZM88.0349 28.8475C99.8237 39.5481 98.3728 37.3717 98.5542 40.999C93.2945 37.9158 89.6672 33.3817 88.0349 28.8475ZM103.088 31.0239C102 35.5581 102.181 35.014 100.186 39.1854C99.461 40.4549 99.8237 40.4549 99.461 37.7344C104.539 25.9457 103.451 28.3034 103.088 31.0239Z" fill="#04943C"/>
<path d="M434.263 407.903C424.65 400.467 410.141 400.467 409.234 401.736C408.327 402.824 409.96 402.462 412.499 407.54C414.857 412.074 417.396 418.422 421.567 422.775C429.729 431.662 443.512 429.122 444.419 428.034C444.601 427.853 443.512 414.976 434.263 407.903ZM425.195 423.681C418.484 418.966 423.381 420.417 435.895 420.961C440.973 425.495 442.062 424.588 425.195 423.681ZM414.131 406.633C413.043 404.457 412.318 404.275 416.308 406.814C414.131 406.633 414.131 406.452 414.131 406.633ZM417.94 407.903C425.195 412.437 424.469 411.349 416.126 410.986C414.313 406.633 413.768 407.54 417.94 407.903ZM424.65 412.255C430.817 416.608 431.542 415.701 418.484 415.157C416.126 410.804 415.401 411.893 424.65 412.255ZM431.542 408.265C436.076 421.686 436.258 419.51 431.361 415.883C427.734 405.363 426.827 405.182 431.542 408.265ZM436.621 419.873C432.449 407.177 431.905 407.54 436.439 412.074C437.165 412.799 436.621 411.349 439.885 422.775C438.797 421.868 437.709 420.78 436.621 419.873ZM426.827 405.726C430.817 417.152 431.361 415.339 425.557 411.167C423.018 403.913 421.93 403.731 426.827 405.726ZM422.111 404.275C424.832 412.074 425.739 411.167 419.391 406.996C417.759 402.824 416.852 403.006 422.111 404.275ZM415.763 403.368C417.033 403.55 416.67 403.006 417.758 406.27C412.136 402.462 411.592 403.006 415.763 403.368ZM430.454 416.608C436.439 421.324 436.983 420.054 421.023 419.329C418.121 414.976 417.033 416.064 430.454 416.608ZM426.645 424.77C442.606 425.495 440.067 424.77 442.424 427.309C436.621 428.216 430.635 427.127 426.645 424.77ZM439.704 416.79C441.699 420.961 441.517 420.417 442.787 424.77C443.15 426.221 443.331 426.039 441.336 424.044C437.527 411.893 438.253 414.432 439.704 416.79Z" fill="#04943C"/>
<path d="M421.567 493.326C432.63 488.248 439.341 475.371 438.797 474.101C438.253 472.832 437.709 474.283 432.086 474.283C427.008 474.283 420.116 473.557 414.312 475.189C402.524 478.273 398.533 491.512 399.078 492.963C399.259 493.326 411.048 498.223 421.567 493.326ZM411.955 477.91C419.209 474.283 415.582 477.729 409.234 488.61C402.886 491.15 403.249 492.601 411.955 477.91ZM432.086 476.278C434.444 476.278 434.988 475.734 430.998 478.091C432.086 476.096 432.268 476.278 432.086 476.278ZM429.184 478.998C421.748 483.17 423.018 483.17 427.189 476.096C432.086 476.278 431.361 475.552 429.184 478.998ZM422.292 482.807C415.582 486.253 416.126 487.341 422.655 475.915C427.371 475.915 426.827 474.827 422.292 482.807ZM422.655 490.968C408.69 488.792 410.504 489.88 416.126 487.341C427.008 488.792 427.552 488.066 422.655 490.968ZM409.96 489.88C423.018 492.056 423.018 491.331 416.851 493.326C415.945 493.507 417.396 493.689 405.788 491.512C407.239 490.968 408.509 490.424 409.96 489.88ZM427.008 487.885C415.038 486.253 416.307 487.341 422.655 484.076C430.454 485.346 430.998 484.439 427.008 487.885ZM430.454 484.258C422.292 482.988 422.655 484.258 429.366 480.449C433.718 481.174 434.081 480.268 430.454 484.258ZM434.263 479.179C433.537 480.268 434.263 480.086 430.817 479.724C436.62 476.278 436.439 475.734 434.263 479.179ZM415.763 486.071C408.871 489.155 409.597 490.243 417.758 476.459C422.837 475.915 422.474 474.283 415.763 486.071ZM410.141 478.817C401.979 492.601 403.974 490.606 400.528 491.694C402.524 486.071 406.151 481.356 410.141 478.817ZM411.229 494.051C406.695 493.87 407.058 494.051 402.705 492.963C401.254 492.601 401.435 492.782 403.974 491.875C416.489 494.596 413.95 493.87 411.229 494.051Z" fill="#04943C"/>
<path d="M197.942 193.891C187.786 186.999 173.277 188.087 172.551 189.175C171.826 190.445 173.277 189.901 176.178 194.797C178.718 199.15 181.801 205.317 186.154 209.488C194.859 218.012 208.28 214.566 209.187 213.297C209.55 213.115 207.555 200.238 197.942 193.891ZM189.781 210.214C182.889 206.042 187.786 207.13 200.3 206.949C205.922 210.939 206.829 209.851 189.781 210.214ZM177.811 193.709C176.541 191.714 175.816 191.533 179.987 193.709C177.811 193.891 177.811 193.709 177.811 193.709ZM181.801 194.797C189.237 198.969 188.511 197.881 180.168 198.062C177.992 193.891 177.629 194.797 181.801 194.797ZM188.693 198.788C195.222 202.778 195.766 201.689 182.708 202.052C179.987 197.881 179.262 198.969 188.693 198.788ZM195.222 194.253C200.481 207.312 200.663 205.317 195.585 201.689C191.232 191.533 190.325 191.533 195.222 194.253ZM201.026 205.679C195.947 193.347 195.585 193.709 200.3 197.881C201.026 198.606 200.3 197.155 204.472 208.219C203.202 207.493 202.114 206.586 201.026 205.679ZM190.506 192.077C195.222 203.14 195.585 201.508 189.599 197.699C186.516 190.445 185.428 190.445 190.506 192.077ZM185.609 190.989C188.874 198.606 189.599 197.699 183.07 193.891C181.075 189.901 180.168 190.082 185.609 190.989ZM179.262 190.445C180.531 190.445 180.168 190.082 181.438 193.165C175.453 189.901 175.09 190.263 179.262 190.445ZM194.678 202.778C200.844 207.13 201.57 205.861 185.428 206.224C182.345 201.871 181.257 202.959 194.678 202.778ZM191.413 211.12C207.373 210.939 204.834 210.395 207.373 212.571C201.57 214.022 195.585 213.297 191.413 211.12ZM203.927 202.415C206.285 206.405 205.922 206.042 207.555 210.214C207.917 211.665 208.099 211.483 205.922 209.669C201.57 197.699 202.295 200.057 203.927 202.415Z" fill="#04943C"/>
<path d="M166.929 390.673C157.317 383.237 142.807 383.418 141.901 384.506C140.994 385.595 142.626 385.232 145.165 390.31C147.523 394.844 150.062 401.192 154.233 405.545C162.576 414.432 176.179 411.893 177.086 410.804C177.448 410.442 176.179 397.565 166.929 390.673ZM157.861 406.452C151.15 401.736 156.047 403.187 168.561 403.731C173.821 408.265 174.909 407.177 157.861 406.452ZM146.979 389.403C145.891 387.227 145.165 387.046 149.155 389.585C146.797 389.403 146.979 389.222 146.979 389.403ZM150.787 390.491C158.042 395.026 157.317 393.937 148.974 393.575C146.979 389.403 146.616 390.31 150.787 390.491ZM157.498 395.026C163.664 399.378 164.39 398.472 151.332 397.927C148.974 393.575 148.067 394.482 157.498 395.026ZM164.39 390.854C168.924 404.275 169.105 402.099 164.39 398.472C160.581 387.952 159.493 387.771 164.39 390.854ZM169.287 402.643C164.934 389.947 164.571 390.31 169.105 394.844C169.831 395.57 169.287 394.119 172.551 405.545C171.463 404.457 170.375 403.55 169.287 402.643ZM159.674 388.496C163.664 399.922 164.209 398.109 158.405 393.937C155.866 386.501 154.596 386.501 159.674 388.496ZM154.959 387.046C157.679 394.844 158.586 393.937 152.238 389.766C150.425 385.595 149.518 385.776 154.959 387.046ZM148.611 385.957C149.881 386.139 149.518 385.595 150.606 388.859C144.984 385.232 144.44 385.776 148.611 385.957ZM163.302 399.378C169.287 404.094 169.831 402.824 153.871 402.099C150.969 397.746 149.881 398.653 163.302 399.378ZM159.493 407.54C175.453 408.265 172.914 407.54 175.272 410.079C169.468 410.986 163.483 409.898 159.493 407.54ZM172.551 399.378C174.546 403.55 174.365 403.006 175.635 407.359C175.997 408.809 176.179 408.628 174.184 406.633C170.375 394.663 170.919 397.021 172.551 399.378Z" fill="#04943C"/>
<path d="M362.26 309.784C363.349 297.632 355.55 285.48 354.099 285.299C352.648 285.118 353.736 286.206 351.016 291.103C348.477 295.456 344.486 301.078 343.036 306.882C339.952 318.67 349.383 328.827 350.834 329.008C351.016 329.008 361.354 321.21 362.26 309.784ZM344.124 310.509C344.486 302.348 345.937 307.244 352.104 318.126C351.016 324.837 352.467 325.2 344.124 310.509ZM352.648 292.191C353.918 290.196 353.555 289.289 353.736 294.005C352.648 292.01 352.648 292.01 352.648 292.191ZM353.736 296C353.736 304.524 354.28 303.436 350.109 296.181C352.648 292.191 351.56 292.372 353.736 296ZM353.555 303.98C353.192 311.597 354.462 311.597 347.751 300.171C350.109 296 348.839 295.818 353.555 303.98ZM360.628 307.607C351.741 318.67 353.555 317.582 354.28 311.597C360.991 302.71 360.628 301.803 360.628 307.607ZM353.373 318.126C361.716 307.788 361.172 307.426 359.721 313.774C359.358 314.68 360.265 313.592 352.648 322.479C353.011 321.028 353.192 319.577 353.373 318.126ZM360.084 302.348C352.648 311.779 354.28 311.416 354.643 304.161C359.721 297.995 359.177 297.088 360.084 302.348ZM358.814 297.451C353.555 303.98 355.006 304.161 355.006 296.544C357.726 293.098 357.001 292.372 358.814 297.451ZM356.275 291.647C356.819 292.735 357.001 292.191 355.006 294.912C355.006 288.201 354.28 288.02 356.275 291.647ZM353.011 311.234C352.285 318.67 353.555 318.67 345.575 304.705C347.57 299.99 346.119 299.446 353.011 311.234ZM343.942 312.323C351.922 326.288 351.016 323.567 350.29 327.013C346.3 322.661 344.124 317.038 343.942 312.323ZM357.726 319.033C355.368 323.023 355.55 322.479 352.467 325.925C351.378 327.013 351.741 327.013 352.285 324.293C360.628 314.68 358.814 316.494 357.726 319.033Z" fill="#04943C"/>
<path d="M485.226 31.0239C492.3 21.0488 491.574 6.5395 490.305 5.81403C489.035 5.08857 489.579 6.5395 484.682 9.25999C480.329 11.7991 473.982 14.701 469.81 18.8724C461.286 27.578 464.369 40.999 465.457 41.9059C465.82 42.2686 478.697 40.6363 485.226 31.0239ZM469.085 22.6811C473.438 15.7892 472.168 20.686 472.168 33.3817C467.815 38.6413 469.085 39.7295 469.085 22.6811ZM485.589 11.0736C487.765 9.80409 487.947 9.07862 485.589 13.25C485.589 10.8923 485.77 10.8923 485.589 11.0736ZM484.682 14.8823C480.511 22.3183 481.418 21.5929 481.599 13.25C485.589 11.0736 484.682 10.7109 484.682 14.8823ZM480.511 21.7742C476.339 28.1221 477.428 28.8475 477.428 15.6078C481.418 13.0687 480.511 12.3432 480.511 21.7742ZM484.864 28.4848C471.624 33.563 473.8 33.7444 477.428 28.6662C487.584 24.4947 487.765 23.5879 484.864 28.4848ZM473.438 33.9258C485.77 29.2103 485.589 28.6662 481.236 33.3817C480.511 34.1071 481.962 33.3817 470.717 37.3717C471.624 36.2835 472.531 35.014 473.438 33.9258ZM487.04 23.5879C475.795 28.1221 477.609 28.4848 481.418 22.4997C488.854 19.7792 488.854 18.5097 487.04 23.5879ZM488.31 18.8724C480.511 21.9556 481.599 22.8624 485.408 16.1519C489.579 14.3382 489.398 13.4314 488.31 18.8724ZM489.035 12.5246C489.035 13.7941 489.398 13.4314 486.315 14.701C489.579 8.71589 489.216 8.35316 489.035 12.5246ZM476.339 27.7593C471.987 33.9258 473.075 34.4699 473.075 18.5097C477.428 15.2451 476.339 14.3382 476.339 27.7593ZM467.997 24.3134C467.997 40.2736 468.541 37.7345 466.183 40.2736C464.913 34.2885 465.82 28.4848 467.997 24.3134ZM476.521 37.009C472.531 39.1854 472.893 39.004 468.541 40.4549C467.09 40.8177 467.271 40.999 469.085 39.004C481.418 34.6512 478.878 35.3767 476.521 37.009Z" fill="#04943C"/>
<path d="M22.5613 218.919C33.4433 213.297 39.4283 200.057 38.7029 198.788C37.9774 197.518 37.6147 199.15 32.1737 199.332C27.0955 199.513 20.2035 199.15 14.5812 201.145C2.97377 204.773 -0.290824 218.375 0.253274 219.645C0.253274 220.007 12.4048 224.36 22.5613 218.919ZM12.2234 204.047C19.2967 200.057 15.8508 203.684 10.047 214.929C3.69923 217.65 4.24333 219.101 12.2234 204.047ZM32.1737 201.327C34.5315 201.145 35.0756 200.601 31.2669 203.14C32.3551 201.145 32.3551 201.327 32.1737 201.327ZM29.6346 204.229C22.5613 208.763 23.6495 208.763 27.6396 201.327C32.1737 201.327 31.4482 200.42 29.6346 204.229ZM22.7427 208.4C16.2135 212.209 16.7576 213.297 22.7427 201.508C27.6396 201.145 27.0955 200.057 22.7427 208.4ZM23.4681 216.38C9.32158 214.929 11.3166 215.836 16.7576 213.115C27.8209 214.022 28.365 213.297 23.4681 216.38ZM10.7725 216.017C24.0122 217.468 24.0122 216.924 17.8458 219.101C16.939 219.282 18.3899 219.463 6.78245 217.831C8.23338 217.106 9.50294 216.561 10.7725 216.017ZM27.6396 213.115C15.6694 212.027 16.939 213.115 23.1054 209.67C31.0855 210.395 31.6296 209.488 27.6396 213.115ZM31.0855 209.307C22.7427 208.4 23.2868 209.67 29.8159 205.679C34.1687 206.042 34.3501 205.135 31.0855 209.307ZM34.5315 204.047C33.9874 205.135 34.5315 204.954 31.0855 204.773C36.8892 201.145 36.5265 200.42 34.5315 204.047ZM16.3949 211.846C9.68431 215.292 10.4098 216.38 17.8458 202.052C22.924 201.327 22.5613 199.876 16.3949 211.846ZM10.5911 204.954C3.15513 219.101 4.96879 217.106 1.7042 218.194C3.15513 212.39 6.60109 207.674 10.5911 204.954ZM12.2234 220.189C7.68928 220.37 8.05202 220.37 3.69923 219.645C2.2483 219.282 2.42967 219.645 4.96879 218.556C17.6644 220.189 15.1253 219.645 12.2234 220.189Z" fill="#04943C"/>
<path d="M483.231 203.503C493.75 197.518 499.373 184.097 498.647 182.827C497.922 181.558 497.74 183.19 492.118 183.553C487.04 183.916 480.148 183.916 474.526 185.911C463.1 190.082 460.198 203.503 460.742 204.954C460.923 205.135 473.256 209.125 483.231 203.503ZM472.349 188.994C479.241 184.641 475.977 188.631 470.536 199.876C464.369 202.778 464.913 204.229 472.349 188.994ZM492.3 185.548C494.657 185.366 495.201 184.822 491.393 187.362C492.3 185.366 492.481 185.548 492.3 185.548ZM489.76 188.631C482.687 193.528 483.957 193.347 487.584 185.729C492.299 185.548 491.574 184.822 489.76 188.631ZM483.05 192.984C476.521 196.974 477.246 198.062 482.868 186.092C487.765 185.548 487.04 184.46 483.05 192.984ZM484.138 200.964C469.991 199.876 471.987 200.783 477.246 197.881C488.309 198.425 488.854 197.699 484.138 200.964ZM471.442 200.964C484.682 202.052 484.682 201.327 478.697 203.866C477.79 204.229 479.241 204.229 467.634 202.959C468.722 202.234 470.173 201.508 471.442 200.964ZM488.128 197.518C476.158 196.793 477.428 197.881 483.594 194.072C491.393 194.616 491.937 193.709 488.128 197.518ZM491.393 193.709C483.05 193.165 483.594 194.435 489.942 190.082C494.476 190.263 494.657 189.357 491.393 193.709ZM494.839 188.268C494.295 189.357 494.839 189.175 491.393 188.994C496.834 185.185 496.652 184.641 494.839 188.268ZM476.883 196.611C470.354 200.238 471.08 201.327 477.972 186.817C483.05 185.911 482.687 184.46 476.883 196.611ZM470.717 189.901C463.825 204.41 465.457 202.233 462.193 203.503C463.644 197.699 467.09 192.802 470.717 189.901ZM473.075 204.954C468.541 205.135 468.903 205.135 464.369 204.591C462.918 204.41 463.1 204.591 465.639 203.503C478.334 204.954 475.795 204.591 473.075 204.954Z" fill="#04943C"/>
<path d="M238.025 116.629C237.843 104.477 228.775 93.0511 227.505 93.0511C226.054 93.0511 227.324 94.1393 224.966 99.2175C222.79 103.752 219.525 109.918 218.437 115.722C216.442 127.692 226.961 136.76 228.412 136.942C228.775 137.123 238.206 128.236 238.025 116.629ZM220.069 119.349C219.707 111.188 221.52 115.903 228.775 126.241C228.412 132.952 229.863 133.133 220.069 119.349ZM226.599 100.124C227.687 97.948 227.324 97.2225 227.868 101.938C226.599 100.124 226.78 99.943 226.599 100.124ZM228.049 103.933C228.956 112.457 229.319 111.188 224.604 104.477C226.599 100.124 225.692 100.487 228.049 103.933ZM228.775 111.913C229.138 119.531 230.407 119.531 222.79 108.83C224.604 104.296 223.334 104.296 228.775 111.913ZM236.211 114.815C228.412 126.604 230.226 125.516 230.226 119.349C236.03 109.918 235.667 109.011 236.211 114.815ZM230.044 125.878C237.299 114.815 236.755 114.452 236.03 120.981C235.848 121.888 236.574 120.619 229.863 130.231C229.863 128.78 230.044 127.329 230.044 125.878ZM235.123 109.555C228.775 119.712 230.226 119.168 230.044 111.913C234.216 105.384 233.672 104.477 235.123 109.555ZM233.309 104.84C228.775 111.913 230.044 111.913 229.319 104.296C231.858 100.668 231.133 99.943 233.309 104.84ZM230.226 99.3989C230.951 100.487 230.951 99.7616 229.319 102.845C228.594 95.9529 227.868 95.9529 230.226 99.3989ZM228.956 119.168C228.956 126.785 230.226 126.604 220.976 113.545C222.427 108.467 220.976 108.104 228.956 119.168ZM220.069 121.163C229.319 134.221 228.231 131.682 227.868 135.128C223.515 131.138 220.795 125.878 220.069 121.163ZM234.397 126.422C232.402 130.594 232.584 130.05 229.863 133.858C228.956 134.947 229.138 135.128 229.5 132.226C236.936 121.888 235.304 123.883 234.397 126.422Z" fill="#04943C"/>
<path d="M315.649 101.031C313.11 89.061 302.047 79.63 300.777 79.9927C299.326 80.3555 300.777 81.0809 299.507 86.5219C298.419 91.4188 296.243 97.948 296.424 103.933C296.787 116.085 308.938 122.976 310.389 122.795C310.571 122.795 318.007 112.276 315.649 101.031ZM298.419 107.016C296.424 99.2175 299.145 103.389 308.213 112.095C309.301 118.805 310.752 118.624 298.419 107.016ZM301.321 86.8846C301.865 84.5269 301.502 83.8014 302.772 88.3356C301.14 86.8846 301.321 86.7033 301.321 86.8846ZM303.498 90.3306C306.037 98.4921 306.218 97.2225 300.233 91.6002C301.321 86.8846 300.414 87.4287 303.498 90.3306ZM305.493 97.948C307.306 105.384 308.576 105.021 298.963 95.953C300.052 91.4188 298.782 91.6002 305.493 97.948ZM313.473 99.3989C308.213 112.457 309.664 111.006 308.576 105.021C312.384 94.6834 311.84 93.9579 313.473 99.3989ZM309.664 111.55C314.742 99.2175 314.017 99.0362 314.561 105.565C314.561 106.472 315.105 105.203 310.208 115.903C310.027 114.452 309.845 113.001 309.664 111.55ZM311.478 94.502C307.125 105.747 308.576 104.84 306.943 97.7666C309.845 90.512 308.938 89.7865 311.478 94.502ZM308.757 90.3306C305.674 98.1293 306.943 97.948 304.767 90.6933C306.399 86.3405 305.674 85.7964 308.757 90.3306ZM304.767 85.4337C305.674 86.3405 305.674 85.6151 304.404 89.061C302.409 82.5319 301.684 82.5319 304.767 85.4337ZM307.125 105.021C308.576 112.457 309.845 112.095 298.238 101.031C298.782 95.7716 297.331 95.953 307.125 105.021ZM298.963 108.83C310.571 119.712 309.12 117.536 309.301 120.981C304.223 117.898 300.414 113.183 298.963 108.83ZM314.017 111.188C312.929 115.54 312.929 115.178 311.115 119.349C310.389 120.619 310.752 120.619 310.389 117.898C315.649 106.109 314.379 108.467 314.017 111.188Z" fill="#04943C"/>
<path d="M89.6672 107.923C99.461 100.668 103.088 86.5219 102.181 85.4337C101.275 84.3455 101.275 85.7965 95.8337 87.066C90.9368 88.1542 84.0449 88.8797 78.7852 91.7815C67.9033 97.4039 66.9965 111.188 67.7219 112.457C67.9033 112.639 80.5989 114.996 89.6672 107.923ZM76.9716 95.0461C83.138 89.7865 80.5989 94.1393 76.6089 106.109C70.9865 109.918 71.712 111.188 76.9716 95.0461ZM96.1964 88.8797C98.5541 88.3356 98.9169 87.6101 95.4709 90.8747C96.1964 88.8797 96.3778 88.8797 96.1964 88.8797ZM94.02 92.3257C87.6722 98.1294 88.9417 97.7666 91.4809 89.7865C96.1964 88.8797 95.4709 88.3356 94.02 92.3257ZM88.0349 97.5853C82.2312 102.301 82.9567 103.389 86.9467 90.6934C91.6622 89.6052 90.9368 88.6983 88.0349 97.5853ZM90.2113 105.203C76.0648 106.109 78.0598 106.835 82.9567 103.208C94.02 102.301 94.3827 101.394 90.2113 105.203ZM77.5157 107.016C90.7554 106.291 90.574 105.747 84.9517 108.83C84.0449 109.193 85.4958 109.011 73.707 109.374C75.1579 108.649 76.4275 107.742 77.5157 107.016ZM93.6573 101.394C81.6871 102.301 83.138 103.208 88.7604 98.6735C96.5591 98.1294 96.9219 97.0412 93.6573 101.394ZM96.3778 97.2225C88.0349 97.7666 88.7604 98.8548 94.3827 93.7766C98.9169 93.2325 99.0982 92.3256 96.3778 97.2225ZM99.0982 91.4188C98.7355 92.6884 99.2796 92.3256 95.8337 92.6884C100.731 87.9729 100.368 87.4288 99.0982 91.4188ZM82.4126 101.938C76.4275 106.472 77.3343 107.379 82.2312 92.1443C87.1281 90.512 86.4026 89.2424 82.4126 101.938ZM75.5207 96.3157C70.6238 111.55 72.0747 109.193 68.9915 111.006C69.5356 104.84 72.0747 99.5803 75.5207 96.3157ZM79.6921 110.825C75.1579 111.732 75.702 111.55 71.1679 111.732C69.7169 111.732 69.8983 111.913 72.2561 110.462C84.9517 110.1 82.4126 110.1 79.6921 110.825Z" fill="#04943C"/>
<path d="M408.69 30.4798C418.846 23.7693 423.562 9.98546 422.836 8.89727C421.929 7.62771 421.929 9.26 416.307 9.98546C411.229 10.8923 404.337 11.255 398.896 13.6128C387.651 18.5097 385.656 32.1121 386.382 33.3817C386.563 33.7444 399.077 37.009 408.69 30.4798ZM396.901 16.696C403.43 11.9805 400.528 15.9705 395.813 27.7593C389.828 31.2053 390.553 32.6562 396.901 16.696ZM416.488 11.9805C418.846 11.6178 419.39 10.8923 415.763 13.9755C416.67 11.9805 416.67 11.9805 416.488 11.9805ZM414.131 15.2451C407.42 20.5047 408.69 20.3233 411.773 12.5246C416.488 11.9805 415.763 11.4364 414.131 15.2451ZM407.783 20.142C401.616 24.4948 402.342 25.5829 407.239 13.2501C411.954 12.5246 411.229 11.4364 407.783 20.142ZM409.415 27.9407C395.269 27.7593 397.264 28.6662 402.342 25.4016C413.405 25.2202 413.949 24.3134 409.415 27.9407ZM396.72 28.8475C409.959 29.0289 409.959 28.4848 404.156 31.2053C403.249 31.568 404.7 31.568 392.911 31.0239C394.18 30.2985 395.45 29.573 396.72 28.8475ZM413.224 24.3134C401.254 24.4947 402.523 25.4016 408.508 21.2302C416.307 21.2302 416.851 20.3233 413.224 24.3134ZM416.307 20.3233C407.964 20.3233 408.508 21.4115 414.675 16.696C419.028 16.5146 419.209 15.6078 416.307 20.3233ZM419.209 14.701C418.665 15.7892 419.209 15.6078 415.763 15.7892C421.204 11.4364 420.841 10.8923 419.209 14.701ZM401.798 24.132C395.45 28.1221 396.357 29.2103 402.342 14.3383C407.42 13.0687 406.876 11.6178 401.798 24.132ZM395.269 17.9656C389.284 32.8376 390.916 30.6612 387.651 32.1121C388.739 26.127 391.823 20.8674 395.269 17.9656ZM398.533 32.8376C393.999 33.3817 394.543 33.3817 389.828 33.019C388.377 32.8376 388.558 33.019 390.916 31.7494C403.974 32.4749 401.435 32.1121 398.533 32.8376Z" fill="#04943C"/>
<path d="M166.385 89.2424C176.36 82.1691 180.531 68.3853 179.806 67.1157C178.899 66.0275 178.899 67.4784 173.277 68.5666C168.198 69.4735 161.488 70.0176 156.047 72.7381C144.984 77.9977 143.351 91.7815 144.077 93.0511C144.44 93.2324 156.954 95.9529 166.385 89.2424ZM154.052 76.0027C160.4 71.1058 157.679 75.2772 153.326 87.066C147.523 90.5119 148.248 91.9629 154.052 76.0027ZM173.458 70.5617C175.816 70.1989 176.36 69.4735 172.733 72.5567C173.639 70.3803 173.639 70.5617 173.458 70.5617ZM171.282 73.8263C164.753 79.2672 166.022 79.0859 168.924 71.2871C173.458 70.5617 172.733 69.8362 171.282 73.8263ZM165.115 78.9045C159.13 83.4387 159.856 84.5269 164.208 72.194C168.924 71.1058 168.198 70.0176 165.115 78.9045ZM166.929 86.7033C152.782 87.066 154.777 87.7915 159.856 84.3455C170.919 83.8014 171.282 82.8946 166.929 86.7033ZM154.233 87.9728C167.473 87.6101 167.473 87.066 161.669 90.1492C160.762 90.5119 162.213 90.5119 150.425 90.3306C151.876 89.4237 152.964 88.6983 154.233 87.9728ZM170.556 82.8946C158.586 83.4387 160.037 84.3455 165.659 79.9927C173.639 79.8113 174.002 78.7231 170.556 82.8946ZM173.458 78.7231C165.115 78.9045 165.841 80.1741 171.644 75.2772C175.997 74.9145 176.179 74.0076 173.458 78.7231ZM176.179 73.1008C175.635 74.3704 176.36 74.0076 172.733 74.189C177.992 69.6548 177.811 69.1107 176.179 73.1008ZM159.13 83.0759C152.964 87.4287 153.871 88.3356 159.312 73.2822C164.39 71.8312 163.664 70.3803 159.13 83.0759ZM152.601 77.0909C147.16 92.1442 148.611 89.7865 145.528 91.4188C146.253 85.4337 149.155 80.3554 152.601 77.0909ZM156.228 91.9629C151.876 92.6883 152.238 92.507 147.704 92.507C146.253 92.3256 146.435 92.6883 148.792 91.2374C161.488 91.2374 158.949 91.056 156.228 91.9629Z" fill="#04943C"/>
<path d="M244.916 399.741C246.186 387.59 238.568 375.257 237.117 375.075C235.666 374.894 236.755 375.982 233.853 380.879C231.132 385.232 227.142 390.854 225.51 396.477C222.064 408.265 231.495 418.422 232.946 418.785C233.309 418.966 243.828 411.167 244.916 399.741ZM226.779 400.104C227.324 391.942 228.593 396.839 234.578 407.903C233.49 414.795 234.941 415.157 226.779 400.104ZM235.666 381.967C236.936 379.972 236.755 379.065 236.755 383.781C235.485 381.786 235.666 381.786 235.666 381.967ZM236.573 385.776C236.392 394.3 236.936 393.212 232.946 385.957C235.666 381.967 234.578 382.149 236.573 385.776ZM236.21 393.756C235.666 401.373 236.936 401.373 230.588 389.947C232.946 385.776 231.676 385.595 236.21 393.756ZM243.284 397.565C234.215 408.447 236.029 407.54 236.755 401.373C243.828 392.849 243.465 391.942 243.284 397.565ZM235.848 407.903C244.372 397.746 243.828 397.383 242.377 403.731C242.014 404.638 242.921 403.55 235.122 412.255C235.485 410.804 235.666 409.354 235.848 407.903ZM242.921 392.305C235.304 401.736 236.936 401.192 237.48 394.119C242.558 387.952 242.014 387.046 242.921 392.305ZM241.651 387.408C236.392 393.756 237.661 394.119 237.843 386.501C240.563 383.055 240.019 382.33 241.651 387.408ZM239.294 381.605C239.838 382.693 240.019 382.149 237.843 384.869C238.024 377.977 237.299 377.977 239.294 381.605ZM235.485 401.011C234.578 408.447 235.848 408.447 228.23 394.482C230.407 389.766 228.956 389.222 235.485 401.011ZM226.598 402.099C234.215 416.064 233.49 413.525 232.765 416.971C228.774 412.437 226.779 406.814 226.598 402.099ZM240.201 408.991C237.661 412.8 238.024 412.437 234.941 415.883C233.853 416.971 234.215 416.971 234.76 414.25C243.284 404.638 241.47 406.452 240.201 408.991Z" fill="#04943C"/>
<path d="M335.599 25.9456C336.869 13.7941 329.07 1.46122 327.619 1.46122C326.35 1.27985 327.438 2.36805 324.536 7.26494C321.997 11.6177 317.825 17.2401 316.375 23.0438C313.11 34.8326 322.541 44.9891 323.992 45.1704C324.355 45.1704 334.692 37.3717 335.599 25.9456ZM317.463 26.4897C317.825 18.3283 319.276 23.2252 325.443 34.2885C324.355 40.999 325.806 41.3618 317.463 26.4897ZM326.168 8.17177C327.438 6.17674 327.256 5.26991 327.256 9.98543C326.168 8.17176 326.35 8.17177 326.168 8.17177ZM327.256 11.9805C327.256 20.5047 327.801 19.4165 323.629 12.1618C326.168 8.35313 325.261 8.35313 327.256 11.9805ZM326.894 19.9606C326.35 27.5779 327.619 27.5779 321.271 16.1519C323.629 11.9805 322.36 11.9805 326.894 19.9606ZM334.148 23.7692C325.08 34.6512 327.075 33.7444 327.619 27.5779C334.511 19.0537 334.148 17.9655 334.148 23.7692ZM326.712 34.1071C335.237 23.7692 334.692 23.5879 333.242 29.9357C332.879 30.8425 333.786 29.7543 325.987 38.4599C326.35 37.009 326.531 35.558 326.712 34.1071ZM333.604 18.5096C326.168 27.9407 327.801 27.5779 328.163 20.3233C333.242 14.1568 332.697 13.25 333.604 18.5096ZM332.335 13.6127C327.075 20.1419 328.345 20.3233 328.526 12.7059C331.247 9.25996 330.702 8.5345 332.335 13.6127ZM329.977 7.80903C330.521 8.89723 330.702 8.35313 328.707 11.0736C328.526 4.36308 327.982 4.18171 329.977 7.80903ZM326.35 27.2152C325.624 34.6512 326.894 34.6512 319.095 20.686C321.09 15.9705 319.639 15.6078 326.35 27.2152ZM317.463 28.4848C325.261 42.45 324.536 39.9108 323.629 43.3568C319.639 38.6413 317.463 33.0189 317.463 28.4848ZM331.065 35.1953C328.707 39.004 328.889 38.6413 325.806 42.0872C324.717 43.1754 325.08 43.1754 325.624 40.4549C334.148 30.8425 332.335 32.6562 331.065 35.1953Z" fill="#04943C"/>
<path d="M69.898 334.449C64.0942 323.749 50.6732 317.945 49.585 318.67C48.3154 319.396 49.9477 319.759 50.3104 325.2C50.6732 330.278 50.4918 337.17 52.4868 342.792C56.4769 354.4 69.898 357.483 71.3489 356.757C71.3489 356.757 75.5203 344.606 69.898 334.449ZM55.2073 345.331C51.0359 338.439 54.8446 341.704 66.0893 347.326C68.9911 353.311 70.4421 352.767 55.2073 345.331ZM52.1241 325.2C51.9427 322.842 51.3986 322.298 53.9377 326.106C51.9427 325.2 51.9427 325.018 52.1241 325.2ZM55.0259 327.92C59.7415 334.993 59.5601 333.724 52.1241 330.097C52.1241 325.381 51.2173 325.925 55.0259 327.92ZM59.3787 334.631C63.3688 341.16 64.2756 340.616 52.4868 334.631C52.1241 329.915 51.0359 330.459 59.3787 334.631ZM67.3588 333.724C66.0893 347.87 67.1775 345.875 64.2756 340.616C65.0011 329.371 64.0942 328.827 67.3588 333.724ZM67.1775 346.419C68.447 333.18 67.7216 333.18 70.0793 339.346C70.4421 340.253 70.4421 338.802 68.9911 350.41C68.447 348.959 67.7216 347.689 67.1775 346.419ZM63.9129 329.552C63.0061 341.523 64.0943 340.253 60.4669 334.087C61.1924 326.288 60.2856 325.744 63.9129 329.552ZM60.2856 326.288C59.5601 334.631 60.8297 334.087 56.6582 327.739C56.8396 323.205 55.9328 323.023 60.2856 326.288ZM54.8446 322.842C55.9328 323.386 55.7514 322.842 55.57 326.288C51.7614 320.665 51.2173 320.847 54.8446 322.842ZM62.8247 340.978C66.452 347.689 67.3588 346.782 53.0309 339.709C52.3055 334.449 50.8545 334.993 62.8247 340.978ZM56.1141 346.964C70.4421 354.037 68.2657 352.405 69.5352 355.669C63.7315 354.037 58.8346 350.591 56.1141 346.964ZM71.3489 344.787C71.5303 349.321 71.5303 348.959 70.9862 353.311C70.8048 354.762 70.9862 354.581 69.898 352.042C71.3489 339.528 70.8048 342.067 71.3489 344.787Z" fill="#04943C"/>
<path d="M151.513 149.275C149.518 137.304 138.817 127.329 137.548 127.692C136.097 127.873 137.548 128.78 135.915 134.221C134.465 139.118 132.107 145.466 132.107 151.451C131.925 163.603 143.714 171.039 145.165 170.857C145.528 170.857 153.508 160.701 151.513 149.275ZM134.102 154.534C132.47 146.554 135.009 150.907 143.714 159.975C144.44 166.867 146.072 166.867 134.102 154.534ZM137.729 134.765C138.455 132.408 137.911 131.682 139.18 136.216C137.729 134.584 137.911 134.584 137.729 134.765ZM139.724 138.211C141.901 146.373 142.082 145.285 136.278 139.299C137.729 134.765 136.822 135.128 139.724 138.211ZM141.538 146.01C142.989 153.446 144.258 153.265 135.009 143.834C136.278 139.118 135.009 139.299 141.538 146.01ZM149.337 147.642C143.533 160.519 144.984 159.068 144.077 153.083C148.611 142.927 148.067 142.201 149.337 147.642ZM144.984 159.612C150.425 147.461 149.881 147.461 150.062 153.809C150.062 154.716 150.606 153.446 145.347 163.965C145.347 162.514 145.165 161.063 144.984 159.612ZM147.704 142.745C142.989 153.809 144.44 152.902 142.989 145.829C146.072 138.574 145.347 137.849 147.704 142.745ZM145.165 138.393C141.719 146.01 143.17 145.829 141.175 138.574C142.989 134.403 142.082 133.858 145.165 138.393ZM141.356 133.314C142.263 134.221 142.263 133.677 140.812 136.76C138.999 130.231 138.455 130.413 141.356 133.314ZM142.807 153.083C143.896 160.519 145.165 160.157 134.102 148.73C135.009 143.471 133.376 143.471 142.807 153.083ZM134.465 156.529C145.709 167.955 144.258 165.598 144.258 169.225C139.361 165.779 135.915 160.882 134.465 156.529ZM149.518 159.612C148.248 163.965 148.43 163.603 146.253 167.593C145.528 168.862 145.709 168.862 145.709 166.142C151.332 154.534 150.062 156.711 149.518 159.612Z" fill="#04943C"/>
<path d="M22.3802 132.952C32.7181 126.604 37.7963 112.82 37.0709 111.732C36.3454 110.462 36.164 112.095 30.5417 112.82C25.4634 113.364 18.5715 113.545 13.1305 115.903C1.88585 120.437 -0.471914 134.04 0.0721842 135.491C0.25355 135.672 12.5864 139.118 22.3802 132.952ZM10.7728 118.805C17.4833 114.271 14.4001 118.261 9.50322 129.868C3.51814 133.133 4.06224 134.403 10.7728 118.805ZM30.723 114.634C33.0808 114.452 33.6249 113.727 29.8162 116.629C30.723 114.452 30.9044 114.634 30.723 114.634ZM28.1839 117.717C21.4734 122.795 22.5616 122.614 25.8262 114.996C30.5417 114.634 29.8162 113.908 28.1839 117.717ZM21.6547 122.432C15.3069 126.604 16.0324 127.692 21.292 115.54C26.0075 114.996 25.4634 113.908 21.6547 122.432ZM23.1057 130.413C8.95912 129.868 10.9541 130.775 16.0324 127.692C27.0957 127.873 27.6398 126.967 23.1057 130.413ZM10.41 130.957C23.6498 131.501 23.6498 130.775 17.6647 133.496C16.7579 133.858 18.2088 133.858 6.42 132.952C7.87092 132.226 9.14049 131.501 10.41 130.957ZM27.0957 126.785C15.1256 126.604 16.3951 127.692 22.3802 123.521C30.1789 123.883 30.723 122.795 27.0957 126.785ZM30.1789 122.795C21.8361 122.614 22.3802 123.702 28.5467 119.168C32.8994 119.168 33.0808 118.261 30.1789 122.795ZM33.2622 117.354C32.7181 118.442 33.2622 118.261 29.8162 118.261C35.2572 114.09 34.8945 113.545 33.2622 117.354ZM15.6697 126.422C9.32185 130.413 10.0473 131.319 16.3951 116.629C21.4734 115.359 20.9293 113.908 15.6697 126.422ZM9.32185 119.893C2.97404 134.584 4.60634 132.408 1.34175 133.858C2.42994 128.055 5.69453 122.977 9.32185 119.893ZM12.2237 134.947C7.68956 135.309 8.05229 135.309 3.51814 134.947C2.06721 134.765 2.24858 134.947 4.7877 133.858C17.4833 134.765 14.9442 134.403 12.2237 134.947Z" fill="#04943C"/>
<path d="M490.667 460.862C480.511 454.151 466.002 455.421 465.276 456.69C464.551 457.96 466.002 457.416 468.904 462.131C471.624 466.484 474.707 472.65 479.06 476.64C487.947 484.983 501.368 481.175 502.275 480.086C502.638 479.905 500.461 467.209 490.667 460.862ZM482.869 477.366C475.795 473.194 480.874 474.283 493.388 473.92C499.01 477.91 499.917 476.822 482.869 477.366ZM470.717 461.224C469.448 459.229 468.722 459.048 472.894 461.224C470.536 461.224 470.536 461.043 470.717 461.224ZM474.526 462.131C481.962 466.121 481.236 465.033 473.075 465.396C470.717 461.224 470.354 462.312 474.526 462.131ZM481.418 465.94C487.947 469.748 488.672 468.842 475.433 469.204C472.894 465.214 472.168 466.302 481.418 465.94ZM488.128 461.406C493.751 474.464 493.751 472.288 488.672 468.842C483.957 458.685 483.05 458.685 488.128 461.406ZM493.932 472.65C488.672 460.499 488.128 460.68 493.025 465.033C493.751 465.758 493.025 464.307 497.378 475.371C496.29 474.283 495.202 473.557 493.932 472.65ZM483.231 459.411C488.128 470.474 488.491 468.66 482.325 465.033C479.241 457.778 477.972 457.778 483.231 459.411ZM478.335 458.322C481.599 465.94 482.506 464.852 475.795 461.406C473.8 457.234 472.894 457.416 478.335 458.322ZM471.987 457.778C473.256 457.778 472.712 457.416 474.344 460.499C468.178 457.234 467.815 457.778 471.987 457.778ZM487.584 469.93C493.932 474.101 494.476 472.832 478.335 473.557C475.251 469.204 474.163 470.293 487.584 469.93ZM484.501 478.273C500.461 477.729 497.741 477.184 500.461 479.542C494.657 480.993 488.854 480.268 484.501 478.273ZM496.834 469.204C499.192 473.194 499.01 472.65 500.461 477.003C500.824 478.273 501.005 478.273 498.829 476.459C494.476 464.67 495.202 467.028 496.834 469.204Z" fill="#04943C"/>
<path d="M131.019 260.633C138.636 251.202 138.817 236.512 137.729 235.786C136.641 234.879 137.004 236.512 131.925 238.869C127.391 241.046 120.862 243.585 116.509 247.575C107.441 255.736 109.799 269.339 110.887 270.246C111.068 270.609 123.945 269.702 131.019 260.633ZM115.421 251.202C120.137 244.673 118.686 249.389 117.96 262.084C113.245 267.163 114.333 268.251 115.421 251.202ZM132.651 240.502C134.827 239.414 135.009 238.688 132.469 242.678C132.651 240.502 132.832 240.502 132.651 240.502ZM131.381 244.31C126.666 251.384 127.754 250.84 128.298 242.497C132.651 240.502 131.744 240.139 131.381 244.31ZM126.847 250.84C122.313 257.006 123.401 257.732 124.127 244.492C128.479 242.315 127.391 241.59 126.847 250.84ZM130.837 257.913C117.416 262.266 119.411 262.447 123.401 257.732C133.92 254.104 134.102 253.197 130.837 257.913ZM119.048 262.628C131.744 258.638 131.381 258.094 126.847 262.628C126.122 263.173 127.573 262.81 116.147 265.893C117.053 264.805 118.142 263.717 119.048 262.628ZM133.376 253.197C121.95 257.006 123.583 257.55 127.935 251.746C135.371 249.389 135.371 248.3 133.376 253.197ZM135.009 248.482C127.029 251.021 128.117 251.928 132.288 245.58C136.46 244.129 136.278 243.222 135.009 248.482ZM136.097 242.315C135.915 243.585 136.46 243.222 133.195 244.31C136.822 238.507 136.278 238.144 136.097 242.315ZM122.494 256.643C117.779 262.447 118.867 263.173 119.955 247.212C124.308 244.31 123.22 243.222 122.494 256.643ZM114.333 252.653C113.245 268.613 114.152 266.074 111.612 268.432C110.706 262.628 111.975 256.643 114.333 252.653ZM122.132 265.893C117.96 267.888 118.504 267.707 113.97 268.795C112.519 269.158 112.701 269.339 114.696 267.344C127.029 263.898 124.489 264.442 122.132 265.893Z" fill="#04943C"/>
<path d="M323.085 250.658C327.619 239.413 323.629 225.448 322.36 224.904C321.09 224.36 321.816 225.811 317.644 229.62C314.017 233.066 308.576 237.418 305.311 242.497C298.964 252.835 305.13 265.349 306.4 265.893C306.762 266.074 318.733 261.359 323.085 250.658ZM305.311 246.124C308.032 238.507 307.851 243.585 310.752 255.736C308.032 262.084 309.301 262.81 305.311 246.124ZM318.914 231.071C320.728 229.438 320.728 228.531 319.458 233.066C318.914 230.889 318.914 230.889 318.914 231.071ZM318.733 235.061C316.375 243.222 317.1 242.315 315.287 234.154C318.914 231.071 317.826 230.889 318.733 235.061ZM316.193 242.678C313.654 249.751 314.742 250.295 311.841 237.418C315.287 233.972 314.198 233.61 316.193 242.678ZM322.178 248.119C310.571 256.099 312.566 255.736 314.924 250.114C323.811 243.766 323.811 242.678 322.178 248.119ZM312.203 256.099C323.267 248.663 322.723 248.119 319.639 253.741C319.095 254.648 320.365 253.741 310.39 259.908C310.934 258.82 311.478 257.55 312.203 256.099ZM323.085 243.041C313.292 249.933 314.924 250.114 317.463 243.222C323.992 238.688 323.629 237.6 323.085 243.041ZM323.267 237.963C316.375 242.678 317.644 243.404 319.821 235.968C323.448 233.428 323.085 232.522 323.267 237.963ZM322.541 231.615C322.723 232.884 323.085 232.34 320.365 234.335C322.178 227.987 321.634 227.625 322.541 231.615ZM313.654 249.389C310.752 256.281 312.022 256.643 308.395 241.046C311.841 237.056 310.571 236.33 313.654 249.389ZM304.767 247.938C308.395 263.535 308.395 260.815 306.581 263.898C304.042 258.457 303.679 252.472 304.767 247.938ZM316.012 258.276C312.566 261.359 312.929 260.996 309.12 263.354C307.851 264.079 308.032 264.261 309.301 261.722C320.183 255.011 317.826 256.281 316.012 258.276Z" fill="#04943C"/>
<path d="M432.812 331.548C440.973 322.661 442.243 308.151 441.155 307.244C440.066 306.338 440.248 307.789 435.17 309.965C430.454 311.96 423.925 313.955 419.209 317.582C409.597 325.018 411.048 338.802 411.955 339.89C412.136 340.072 425.013 340.072 432.812 331.548ZM417.94 321.21C423.199 315.043 421.386 319.759 419.572 332.092C414.675 336.807 415.582 338.077 417.94 321.21ZM435.895 311.779C438.071 310.872 438.434 310.146 435.532 313.955C435.895 311.597 436.076 311.597 435.895 311.779ZM434.444 315.406C429.366 322.116 430.454 321.572 431.542 313.411C435.895 311.779 434.988 311.234 434.444 315.406ZM429.366 321.572C424.469 327.376 425.376 328.283 427.008 315.043C431.542 313.23 430.635 312.323 429.366 321.572ZM432.812 328.827C419.028 332.092 421.204 332.454 425.376 328.102C436.076 325.381 436.258 324.293 432.812 328.827ZM420.66 332.817C433.537 329.734 433.356 329.19 428.459 333.361C427.734 333.905 429.185 333.543 417.577 335.9C418.665 334.812 419.754 333.905 420.66 332.817ZM435.714 324.474C424.106 327.557 425.739 328.102 430.273 322.661C437.89 320.666 438.071 319.577 435.714 324.474ZM437.527 319.759C429.366 321.754 430.273 322.842 434.988 316.675C439.341 315.587 439.341 314.68 437.527 319.759ZM439.16 313.592C438.978 314.862 439.522 314.499 436.076 315.406C440.066 309.965 439.704 309.421 439.16 313.592ZM424.469 327.013C419.391 332.454 420.298 333.361 422.474 317.401C427.19 314.862 426.283 313.774 424.469 327.013ZM416.67 322.661C414.494 338.439 415.582 335.9 412.862 338.258C412.318 332.092 413.95 326.469 416.67 322.661ZM423.562 336.263C419.209 337.895 419.754 337.714 415.219 338.621C413.768 338.802 413.95 338.983 416.126 337.17C428.64 334.631 426.101 334.993 423.562 336.263Z" fill="#04943C"/>
<path d="M179.262 7.08362C167.836 2.91221 154.052 7.44636 153.508 8.89728C152.964 10.3482 154.415 9.44138 158.405 13.4314C162.032 17.0588 166.385 22.3184 171.645 25.2202C182.164 31.2053 194.316 24.6761 195.041 23.2252C195.222 22.8625 190.144 10.8923 179.262 7.08362ZM175.453 24.8575C167.655 22.4997 172.733 22.3184 184.884 19.0538C191.232 21.7743 191.776 20.5047 175.453 24.8575ZM159.856 11.9805C158.224 10.3482 157.317 10.3482 161.851 11.4364C159.675 11.9805 159.675 11.7991 159.856 11.9805ZM163.846 11.9805C172.008 14.1569 171.101 13.2501 163.121 15.4265C159.856 11.9805 159.675 13.0687 163.846 11.9805ZM171.463 14.1569C178.718 16.5147 179.081 15.2451 166.385 18.6911C162.939 15.4265 162.395 16.5147 171.463 14.1569ZM176.723 8.17182C185.066 19.5979 184.703 17.4215 178.899 15.4265C172.189 6.53953 171.282 6.72089 176.723 8.17182ZM185.066 17.7842C177.086 7.08362 176.723 7.44636 182.527 10.5296C183.434 11.0737 182.345 9.80412 189.056 19.5979C187.786 18.8724 186.517 18.3283 185.066 17.7842ZM171.645 7.26499C178.899 16.8774 178.899 15.0637 172.008 12.8873C167.292 6.53953 166.204 6.90226 171.645 7.26499ZM166.567 7.26499C171.645 13.9755 172.189 12.706 164.753 10.7109C162.032 7.26499 161.126 7.62772 166.567 7.26499ZM160.219 8.35319C161.488 7.99045 160.944 7.80909 163.121 10.5296C156.591 8.71592 156.229 9.26002 160.219 8.35319ZM178.355 16.5147C185.429 19.0538 185.791 17.7842 170.194 21.9556C166.022 18.6911 165.297 19.9606 178.355 16.5147ZM177.267 25.4016C192.683 21.2302 189.963 21.4115 193.046 22.8625C187.786 25.7643 181.801 26.4898 177.267 25.4016ZM187.242 13.7942C190.507 17.0588 190.144 16.696 192.683 20.5047C193.409 21.7743 193.59 21.5929 191.051 20.3233C183.615 9.80411 185.066 11.9805 187.242 13.7942Z" fill="#04943C"/>
<path d="M483.413 110.644C491.03 101.213 491.212 86.5219 490.123 85.7964C489.035 84.8896 489.398 86.5219 484.32 88.8797C479.786 91.0561 473.256 93.5952 468.904 97.5852C459.835 105.747 462.193 119.349 463.281 120.256C463.281 120.619 476.158 119.712 483.413 110.644ZM467.815 101.213C472.531 94.6834 471.08 99.3989 470.173 112.095C465.639 117.173 466.727 118.261 467.815 101.213ZM485.045 90.512C487.221 89.4238 487.403 88.6983 484.864 92.6884C485.045 90.512 485.226 90.512 485.045 90.512ZM483.776 94.3207C479.06 101.394 480.148 100.85 480.692 92.507C485.045 90.6933 484.138 90.1492 483.776 94.3207ZM479.241 100.85C474.707 107.016 475.795 107.742 476.521 94.502C480.692 92.3256 479.785 91.6002 479.241 100.85ZM483.231 107.923C469.81 112.276 471.805 112.457 475.795 107.742C486.133 104.114 486.315 103.208 483.231 107.923ZM471.261 112.639C483.957 108.649 483.594 108.104 479.06 112.639C478.335 113.183 479.785 112.82 468.359 115.903C469.448 114.815 470.354 113.727 471.261 112.639ZM485.589 103.208C474.163 107.016 475.795 107.56 480.148 101.757C487.584 99.3989 487.766 98.3107 485.589 103.208ZM487.222 98.4921C479.241 101.031 480.33 101.938 484.501 95.5902C488.672 94.1393 488.672 93.2325 487.222 98.4921ZM488.31 92.3256C488.128 93.5952 488.672 93.2325 485.408 94.3207C489.217 88.5169 488.672 88.1542 488.31 92.3256ZM474.707 106.654C469.992 112.457 471.08 113.183 472.168 97.2225C476.521 94.3207 475.614 93.2325 474.707 106.654ZM466.727 102.663C465.639 118.624 466.546 116.085 464.007 118.442C462.918 112.639 464.188 106.654 466.727 102.663ZM474.345 115.903C470.173 117.898 470.717 117.717 466.183 118.805C464.732 119.168 464.914 119.349 466.909 117.354C479.241 113.908 476.884 114.452 474.345 115.903Z" fill="#04943C"/>
<path d="M364.437 463.038C356.275 453.97 341.947 451.43 341.04 452.337C339.952 453.244 341.584 453.244 343.217 458.685C344.668 463.582 346.119 470.293 349.202 475.371C355.731 485.709 369.515 485.709 370.603 484.802C370.966 484.439 372.235 471.743 364.437 463.038ZM352.648 476.822C347.025 471.018 351.56 473.376 363.711 476.278C367.883 481.719 369.152 480.812 352.648 476.822ZM345.03 458.141C344.305 455.783 343.579 455.42 347.025 458.685C344.849 458.141 345.03 457.96 345.03 458.141ZM348.476 459.955C354.643 465.758 354.28 464.67 346.119 462.675C345.03 458.141 344.486 459.048 348.476 459.955ZM354.28 465.577C359.54 471.018 360.446 470.111 347.569 467.209C346.119 462.494 345.212 463.401 354.28 465.577ZM361.716 462.857C363.711 476.822 364.255 474.827 360.265 470.292C358.451 459.229 357.545 458.866 361.716 462.857ZM364.437 475.189C362.623 461.95 362.079 462.131 365.706 467.572C366.25 468.479 365.887 467.028 367.157 478.635C366.25 477.547 365.343 476.459 364.437 475.189ZM357.545 459.592C359.358 471.562 360.265 469.93 355.187 464.852C354.099 457.053 353.01 456.69 357.545 459.592ZM353.192 457.234C354.461 465.396 355.55 464.67 349.927 459.411C349.202 455.058 348.114 455.058 353.192 457.234ZM347.207 455.058C348.476 455.42 348.114 454.876 348.658 458.322C343.761 453.607 343.217 454.151 347.207 455.058ZM359.177 470.837C364.074 476.459 364.981 475.552 349.383 471.743C347.388 467.028 345.937 467.753 359.177 470.837ZM353.917 478.273C369.515 481.9 366.976 480.812 368.971 483.714C362.986 483.532 357.363 481.356 353.917 478.273ZM368.245 472.832C369.515 477.184 369.333 476.822 369.696 481.356C369.696 482.807 370.059 482.625 368.427 480.449C366.976 467.572 367.157 470.111 368.245 472.832Z" fill="#04943C"/>
<path d="M411.41 232.884C401.979 225.086 387.47 224.723 386.563 225.811C385.656 226.899 387.289 226.718 389.646 231.796C391.823 236.33 394.181 242.859 398.171 247.394C406.151 256.643 419.753 254.467 420.841 253.379C421.023 253.016 420.297 240.32 411.41 232.884ZM401.798 248.3C395.269 243.404 400.166 245.036 412.68 246.124C417.577 250.84 418.665 249.751 401.798 248.3ZM391.46 230.889C390.372 228.713 389.646 228.532 393.636 231.071C391.279 230.889 391.279 230.708 391.46 230.889ZM395.269 232.159C402.342 237.056 401.617 235.786 393.455 235.242C391.46 230.889 391.097 231.796 395.269 232.159ZM401.617 236.874C407.602 241.409 408.508 240.502 395.269 239.413C393.092 235.242 392.367 236.149 401.617 236.874ZM408.69 233.066C412.68 246.668 413.043 244.492 408.327 240.502C405.063 229.982 403.974 229.801 408.69 233.066ZM413.224 245.036C409.415 232.34 408.871 232.522 413.224 237.237C413.768 237.963 413.405 236.512 416.307 247.938C415.4 246.849 414.312 245.943 413.224 245.036ZM404.156 230.527C407.783 241.953 408.327 240.32 402.705 235.968C400.347 228.35 399.259 228.35 404.156 230.527ZM399.44 228.894C401.798 236.874 402.886 235.968 396.538 231.615C395.087 227.262 394.181 227.443 399.44 228.894ZM393.092 227.625C394.362 227.806 393.999 227.262 395.087 230.527C389.465 226.718 389.102 227.262 393.092 227.625ZM407.239 241.409C413.043 246.305 413.768 245.217 397.808 243.948C395.087 239.413 393.818 240.32 407.239 241.409ZM403.249 249.389C419.209 250.658 416.67 249.933 419.028 252.472C413.043 253.379 407.239 251.928 403.249 249.389ZM416.489 241.953C418.302 246.124 418.121 245.761 419.209 250.114C419.572 251.565 419.753 251.384 417.758 249.389C414.675 237.056 415.038 239.595 416.489 241.953Z" fill="#04943C"/>
<path d="M228.412 483.532C238.75 477.184 243.828 463.582 243.103 462.312C242.377 461.043 242.196 462.675 236.574 463.219C231.495 463.763 224.603 463.945 219.162 466.121C207.918 470.655 205.379 484.258 206.104 485.527C206.285 486.253 218.618 489.699 228.412 483.532ZM216.986 469.567C223.697 465.033 220.613 469.023 215.535 480.63C209.55 483.714 210.094 485.165 216.986 469.567ZM236.755 465.396C239.113 465.214 239.657 464.489 235.848 467.391C236.755 465.214 236.936 465.396 236.755 465.396ZM234.397 468.479C227.505 473.557 228.775 473.376 232.039 465.758C236.755 465.396 236.029 464.67 234.397 468.479ZM227.868 473.194C221.52 477.366 222.246 478.454 227.505 466.303C232.221 465.577 231.495 464.489 227.868 473.194ZM229.138 480.993C214.991 480.449 216.986 481.356 222.064 478.273C233.309 478.454 233.853 477.547 229.138 480.993ZM216.442 481.537C229.682 482.081 229.682 481.537 223.697 484.076C222.79 484.439 224.241 484.439 212.452 483.532C213.903 482.807 215.172 482.263 216.442 481.537ZM233.128 477.547C221.157 477.366 222.427 478.273 228.412 474.283C236.211 474.645 236.755 473.557 233.128 477.547ZM236.211 473.557C227.868 473.376 228.412 474.464 234.579 469.93C239.113 469.93 239.294 469.023 236.211 473.557ZM239.294 468.116C238.75 469.204 239.294 469.023 235.848 469.023C241.289 464.852 241.108 464.307 239.294 468.116ZM221.702 477.003C215.172 480.812 216.079 481.9 222.427 467.209C227.505 466.121 226.961 464.67 221.702 477.003ZM215.354 470.655C209.006 485.346 210.638 483.17 207.374 484.621C208.643 478.635 211.726 473.557 215.354 470.655ZM218.256 485.527C213.721 485.89 214.084 485.89 209.55 485.527C208.099 485.346 208.28 485.527 210.82 484.439C223.515 485.346 220.976 484.983 218.256 485.527Z" fill="#04943C"/>
<path d="M317.463 392.668C309.483 383.418 295.336 380.516 294.248 381.423C293.16 382.33 294.792 382.33 296.243 387.771C297.513 392.668 298.782 399.378 301.866 404.638C308.032 415.157 321.997 415.339 323.085 414.432C323.63 414.25 325.08 401.373 317.463 392.668ZM305.312 406.27C299.689 400.285 304.223 402.824 316.375 405.908C320.546 411.349 321.816 410.623 305.312 406.27ZM298.057 387.408C297.331 385.05 296.606 384.688 300.052 387.952C298.057 387.408 298.057 387.227 298.057 387.408ZM301.684 389.222C307.851 395.207 307.307 393.937 299.327 391.942C298.238 387.408 297.513 388.315 301.684 389.222ZM307.307 395.026C312.385 400.648 313.473 399.741 300.596 396.477C299.145 391.942 298.238 392.668 307.307 395.026ZM314.743 392.486C316.375 406.452 317.1 404.457 313.11 399.922C311.659 388.859 310.753 388.496 314.743 392.486ZM317.282 405.001C315.649 391.761 315.105 391.942 318.733 397.383C319.277 398.29 318.914 396.839 320.002 408.447C319.095 407.177 318.189 406.089 317.282 405.001ZM310.753 389.041C312.385 401.011 313.292 399.378 308.395 394.119C307.307 386.501 306.218 386.139 310.753 389.041ZM306.4 386.683C307.488 395.026 308.576 394.119 303.135 388.859C302.41 384.506 301.322 384.325 306.4 386.683ZM300.415 384.506C301.684 384.869 301.322 384.325 301.866 387.771C296.969 382.874 296.425 383.237 300.415 384.506ZM312.022 400.467C316.919 406.27 317.826 405.182 302.228 401.192C300.233 396.295 298.964 397.202 312.022 400.467ZM306.763 407.721C322.179 411.711 319.821 410.442 321.816 413.344C315.649 413.162 310.208 410.804 306.763 407.721ZM321.09 402.462C322.179 406.814 322.179 406.452 322.36 410.986C322.36 412.437 322.541 412.255 321.09 410.079C320.002 397.383 320.002 399.922 321.09 402.462Z" fill="#04943C"/>
<path d="M29.4534 292.372C39.7913 285.843 44.6882 272.059 43.7814 270.971C43.0559 269.702 42.8745 271.334 37.2522 272.059C32.1739 272.785 25.282 272.966 19.841 275.324C8.59635 280.04 6.41996 293.642 7.14542 295.093C7.32679 295.456 19.6597 298.72 29.4534 292.372ZM17.6647 278.407C24.3752 273.692 21.292 277.863 16.3951 289.471C10.5914 292.916 11.1355 294.186 17.6647 278.407ZM37.4336 274.054C39.7913 273.692 40.3354 273.148 36.5267 276.049C37.6149 273.873 37.6149 274.054 37.4336 274.054ZM35.0758 277.138C28.3652 282.397 29.6348 282.035 32.718 274.417C37.4336 274.054 36.7081 273.329 35.0758 277.138ZM28.5466 281.853C22.3802 286.206 22.9243 287.294 28.0025 274.961C32.8994 274.417 32.1739 273.329 28.5466 281.853ZM30.1789 289.833C16.0324 289.471 18.0274 290.377 23.1056 287.113C34.169 287.294 34.7131 286.387 30.1789 289.833ZM17.4833 290.559C30.723 290.921 30.723 290.377 24.7379 293.098C23.8311 293.461 25.282 293.461 13.4932 292.735C14.9442 292.01 16.2137 291.284 17.4833 290.559ZM33.9876 286.206C22.0174 286.206 23.287 287.113 29.2721 283.123C37.0708 283.304 37.6149 282.216 33.9876 286.206ZM37.0708 282.216C28.728 282.035 29.2721 283.304 35.4385 278.589C39.7913 278.589 39.9727 277.682 37.0708 282.216ZM40.154 276.775C39.6099 277.863 40.154 277.682 36.7081 277.682C41.9677 273.51 41.7863 272.966 40.154 276.775ZM22.5615 285.843C16.2137 289.833 16.9392 290.921 23.1056 276.049C28.1839 274.961 27.6398 273.51 22.5615 285.843ZM16.2137 279.677C10.0473 294.367 11.6796 292.191 8.41498 293.642C9.50318 287.657 12.5864 282.579 16.2137 279.677ZM19.2969 294.549C14.7628 295.093 15.3069 295.093 10.5914 294.73C9.14045 294.549 9.32181 294.73 11.6796 293.461C24.5566 294.186 22.0174 294.005 19.2969 294.549Z" fill="#04943C"/>
<path d="M239.294 259.182C237.118 247.212 226.236 237.419 224.966 237.781C223.515 238.144 224.966 238.869 223.516 244.31C222.246 249.207 219.888 255.736 219.888 261.722C219.888 273.873 231.858 281.128 233.309 280.946C233.672 280.765 241.471 270.608 239.294 259.182ZM222.065 264.805C220.251 256.825 222.971 261.177 231.858 270.064C232.584 276.775 234.035 276.775 222.065 264.805ZM225.329 244.855C225.873 242.497 225.511 241.771 226.78 246.305C225.329 244.673 225.511 244.673 225.329 244.855ZM227.506 248.119C229.682 256.281 230.045 255.011 224.06 249.207C225.329 244.854 224.422 245.217 227.506 248.119ZM229.319 255.918C230.952 263.354 232.221 263.172 222.79 253.741C223.878 249.207 222.79 249.389 229.319 255.918ZM237.118 257.55C231.496 270.427 232.947 269.158 232.04 262.991C236.392 252.835 235.667 252.109 237.118 257.55ZM232.947 269.52C238.206 257.369 237.662 257.187 238.025 263.717C238.025 264.623 238.569 263.354 233.491 273.873C233.309 272.422 233.128 270.971 232.947 269.52ZM235.304 252.653C230.589 263.717 232.221 262.81 230.589 255.918C233.853 248.663 232.947 247.756 235.304 252.653ZM232.765 248.3C229.501 255.918 230.77 255.918 228.775 248.482C230.407 244.31 229.682 243.766 232.765 248.3ZM228.775 243.404C229.682 244.31 229.682 243.766 228.412 246.85C226.599 240.32 225.873 240.32 228.775 243.404ZM230.77 262.991C232.04 270.427 233.309 270.064 221.883 258.638C222.609 253.56 221.158 253.56 230.77 262.991ZM222.427 266.618C233.853 277.863 232.402 275.687 232.402 279.133C227.506 275.868 223.878 270.971 222.427 266.618ZM237.481 269.339C236.211 273.692 236.393 273.329 234.397 277.319C233.672 278.589 234.035 278.589 233.672 275.868C239.113 264.442 237.843 266.618 237.481 269.339Z" fill="#04943C"/>
<path d="M263.779 40.9991C270.308 30.8426 269.038 16.3333 267.769 15.6078C266.499 14.8824 267.043 16.3333 262.328 19.4165C257.975 22.137 251.99 25.2202 247.818 29.7544C239.657 38.8227 243.466 52.0624 244.554 52.9692C244.917 52.9692 257.612 50.7928 263.779 40.9991ZM247.274 33.3817C251.264 26.3084 250.358 31.3867 250.902 43.9009C246.73 49.3419 248 50.2487 247.274 33.3817ZM263.235 20.8674C265.23 19.5979 265.411 18.691 263.235 23.0438C263.235 20.8674 263.416 20.8674 263.235 20.8674ZM262.509 24.8575C258.519 32.4749 259.607 31.7494 259.245 23.4066C263.235 21.0488 262.328 20.6861 262.509 24.8575ZM258.519 31.7494C254.71 38.2786 255.799 39.004 255.073 25.7643C259.245 23.2252 258.156 22.4997 258.519 31.7494ZM263.235 38.2786C250.358 43.9009 252.353 43.9009 255.799 38.8227C265.774 34.2885 265.955 33.3817 263.235 38.2786ZM251.99 44.445C264.141 39.1854 263.779 38.6413 259.607 43.5382C258.882 44.2637 260.333 43.5382 249.269 47.891C250.358 46.6214 251.264 45.5332 251.99 44.445ZM265.23 33.5631C254.348 38.6413 255.98 39.004 259.607 32.6562C266.862 29.3916 266.862 28.3034 265.23 33.5631ZM266.318 28.6662C258.7 32.1121 259.789 32.8376 263.235 26.1271C267.225 24.132 267.043 23.2252 266.318 28.6662ZM266.681 22.3184C266.681 23.5879 267.043 23.0438 263.96 24.6761C267.225 18.5097 266.681 18.147 266.681 22.3184ZM254.71 37.9158C250.539 44.2637 251.809 44.8078 251.083 28.8475C255.254 25.583 254.166 24.4948 254.71 37.9158ZM246.368 35.014C247.093 50.9742 247.456 48.2537 245.279 50.9742C243.647 45.1705 244.373 39.1854 246.368 35.014ZM255.436 47.1655C251.446 49.5233 251.99 49.3419 247.637 50.9742C246.368 51.3369 246.368 51.5183 248.181 49.3419C259.97 44.8078 257.612 45.5332 255.436 47.1655Z" fill="#04943C"/>
<path d="M394.543 82.7133C384.206 76.3655 369.696 77.8164 368.971 79.086C368.245 80.3555 369.696 79.8114 372.78 84.5269C375.5 88.6984 378.765 94.8648 383.299 98.8549C392.367 107.016 405.607 103.026 406.514 101.757C406.876 101.394 404.337 88.6984 394.543 82.7133ZM387.107 99.2176C380.034 95.2275 384.931 96.1344 397.627 95.5903C403.068 99.5803 403.974 98.3108 387.107 99.2176ZM374.412 83.4387C373.142 81.4437 372.235 81.2623 376.588 83.2574C374.412 83.4387 374.412 83.2574 374.412 83.4387ZM378.402 84.1642C386.019 87.9729 385.294 86.8847 376.951 87.4288C374.593 83.4387 374.23 84.3456 378.402 84.1642ZM385.475 87.9729C392.004 91.7816 392.73 90.6934 379.49 91.4188C376.77 87.4288 376.225 88.517 385.475 87.9729ZM391.823 83.2574C397.627 96.1344 397.627 93.958 392.548 90.6934C387.833 80.7182 386.745 80.5369 391.823 83.2574ZM397.989 94.3207C392.548 82.1692 392.004 82.5319 397.083 86.7033C397.808 87.4288 397.083 85.9779 401.617 97.0412C400.347 95.953 399.259 95.2275 397.989 94.3207ZM386.926 81.2623C392.004 92.1443 392.367 90.512 386.201 86.8847C382.936 79.8114 381.848 79.8114 386.926 81.2623ZM382.029 80.1742C385.475 87.7915 386.382 86.7033 379.49 83.2574C377.676 79.2673 376.77 79.4487 382.029 80.1742ZM375.681 79.9928C376.951 79.9928 376.407 79.63 378.039 82.7133C372.054 79.4487 371.51 79.9928 375.681 79.9928ZM391.642 91.6002C397.989 95.5903 398.533 94.5021 382.573 95.2275C379.309 91.4188 378.22 92.507 391.642 91.6002ZM388.74 100.124C404.7 99.2176 401.979 98.8549 404.7 101.031C398.896 102.664 392.911 102.119 388.74 100.124ZM400.891 90.8747C403.249 94.6834 403.068 94.3207 404.7 98.6735C405.244 99.9431 405.425 99.943 403.068 98.1294C398.352 86.3406 399.078 88.6984 400.891 90.8747Z" fill="#04943C"/>
<path d="M486.677 269.339C475.795 263.717 461.649 266.437 460.923 267.707C460.198 268.976 461.649 268.432 465.095 272.785C468.178 276.775 471.805 282.579 476.702 286.206C486.314 293.642 499.373 288.564 500.098 287.294C500.28 287.113 496.834 274.599 486.677 269.339ZM480.511 286.387C473.075 282.941 478.153 283.485 490.667 281.853C496.471 285.48 497.378 284.211 480.511 286.387ZM466.727 271.515C465.276 269.52 464.369 269.52 468.903 271.334C466.546 271.697 466.546 271.515 466.727 271.515ZM470.536 272.059C478.334 275.324 477.609 274.417 469.447 275.505C466.727 271.697 466.546 272.603 470.536 272.059ZM477.972 275.324C484.863 278.589 485.408 277.5 472.349 279.133C469.266 275.324 468.722 276.594 477.972 275.324ZM483.957 270.064C490.849 282.397 490.486 280.402 485.226 277.5C479.785 267.888 478.697 267.888 483.957 270.064ZM491.03 280.765C484.682 269.158 484.138 269.52 489.398 273.148C490.123 273.692 489.398 272.422 494.657 282.941C493.388 282.216 492.299 281.49 491.03 280.765ZM478.878 268.432C484.863 278.951 485.045 277.138 478.516 274.054C474.888 267.344 473.619 267.344 478.878 268.432ZM473.982 267.888C477.972 275.143 478.697 274.054 471.805 271.153C469.447 267.344 468.541 267.525 473.982 267.888ZM467.634 268.069C468.903 267.888 468.359 267.525 470.173 270.608C463.825 267.888 463.462 268.432 467.634 268.069ZM484.501 278.589C491.211 282.035 491.574 280.946 475.795 282.941C471.986 279.133 471.08 280.402 484.501 278.589ZM482.143 287.294C497.922 285.118 495.383 284.936 498.103 286.931C492.481 288.926 486.496 288.745 482.143 287.294ZM493.569 277.138C496.29 280.765 496.108 280.402 497.922 284.574C498.466 285.843 498.647 285.662 496.29 284.211C490.667 272.603 491.574 274.961 493.569 277.138Z" fill="#04943C"/>
<path d="M281.371 333.18C290.983 325.744 294.792 311.779 293.885 310.69C292.978 309.602 292.978 311.053 287.537 312.323C282.64 313.411 275.748 314.318 270.489 317.038C259.788 322.661 258.7 336.444 259.426 337.714C259.426 338.077 272.121 340.434 281.371 333.18ZM268.494 320.484C274.66 315.225 272.121 319.577 268.312 331.547C262.509 335.356 263.234 336.626 268.494 320.484ZM287.719 314.318C290.076 313.774 290.439 313.048 286.993 316.313C287.719 314.136 287.9 314.136 287.719 314.318ZM285.542 317.582C279.194 323.386 280.464 323.023 283.003 315.043C287.719 314.318 286.812 313.592 285.542 317.582ZM279.557 322.842C273.753 327.739 274.479 328.646 278.469 316.131C283.184 315.043 282.459 313.955 279.557 322.842ZM281.734 330.641C267.587 331.547 269.582 332.273 274.479 328.646C285.542 327.739 285.905 326.832 281.734 330.641ZM269.219 332.454C282.459 331.547 282.278 331.003 276.655 334.268C275.748 334.631 277.199 334.449 265.411 334.812C266.68 334.087 267.95 333.18 269.219 332.454ZM285.361 326.651C273.391 327.557 274.842 328.464 280.283 323.93C288.081 323.386 288.625 322.479 285.361 326.651ZM288.081 322.479C279.738 323.023 280.464 324.111 286.086 319.033C290.439 318.67 290.62 317.764 288.081 322.479ZM290.62 316.675C290.258 317.945 290.802 317.582 287.356 317.945C292.253 313.229 291.89 312.685 290.62 316.675ZM273.935 327.376C267.95 331.91 268.857 332.817 273.753 317.582C278.65 315.95 277.925 314.499 273.935 327.376ZM267.043 321.572C262.146 336.807 263.597 334.449 260.514 336.263C261.058 330.278 263.597 325.018 267.043 321.572ZM271.396 336.263C266.862 337.17 267.406 337.17 262.871 337.17C261.421 337.17 261.602 337.351 263.96 335.9C276.655 335.537 274.116 335.356 271.396 336.263Z" fill="#04943C"/>
<path d="M490.123 365.644C479.604 359.659 465.094 361.654 464.55 362.924C463.825 364.193 465.276 363.649 468.54 368.183C471.442 372.355 474.888 378.34 479.604 382.149C489.035 389.947 502.093 385.413 503 384.144C503 383.962 500.098 371.267 490.123 365.644ZM483.231 382.511C475.976 378.884 481.055 379.609 493.569 378.34C499.191 382.149 500.098 380.879 483.231 382.511ZM469.991 367.095C468.54 365.1 467.815 365.1 472.168 366.914C469.991 367.095 469.991 366.914 469.991 367.095ZM473.981 367.821C481.78 371.267 480.873 370.36 472.712 371.085C470.173 367.095 469.81 368.183 473.981 367.821ZM481.236 371.267C487.946 374.713 488.491 373.624 475.432 374.894C472.53 371.085 471.986 372.173 481.236 371.267ZM487.402 366.188C493.75 378.884 493.569 376.708 488.309 373.624C483.231 363.831 482.324 363.831 487.402 366.188ZM493.932 377.252C487.946 365.282 487.584 365.644 492.662 369.634C493.387 370.36 492.662 368.909 497.559 379.791C496.471 378.703 495.201 377.977 493.932 377.252ZM482.505 364.556C488.128 375.257 488.309 373.443 481.961 370.178C478.334 363.105 477.246 363.287 482.505 364.556ZM477.609 363.649C481.417 371.085 482.143 369.997 475.251 366.732C473.074 362.924 472.168 363.105 477.609 363.649ZM471.261 363.649C472.53 363.649 471.986 363.105 473.8 366.188C467.452 363.287 467.089 363.831 471.261 363.649ZM487.584 374.713C494.113 378.521 494.657 377.252 478.697 378.703C475.069 374.894 474.163 375.982 487.584 374.713ZM484.863 383.418C500.823 381.967 498.103 381.604 500.823 383.781C495.201 385.413 489.216 385.05 484.863 383.418ZM496.652 373.624C499.191 377.433 499.01 377.07 500.823 381.242C501.368 382.511 501.549 382.33 499.191 380.698C493.932 369.09 494.838 371.448 496.652 373.624Z" fill="#04943C"/>
<path d="M22.924 390.854C28.1836 379.972 25.2817 365.644 24.0122 365.1C22.7426 364.556 23.2867 366.007 18.9339 369.453C14.9438 372.718 9.3215 376.526 5.87555 381.423C-1.19773 391.398 4.06189 404.094 5.33145 404.819C5.51282 405.001 17.8457 401.192 22.924 390.854ZM5.51282 385.05C8.7774 377.614 8.23331 382.693 10.2283 395.026C6.96374 401.011 8.23331 401.918 5.51282 385.05ZM20.0221 370.904C21.8358 369.453 22.0171 368.546 20.3848 373.08C20.0221 370.723 20.2035 370.904 20.0221 370.904ZM19.6594 374.894C16.5761 382.874 17.6643 381.967 16.2134 373.806C20.0221 370.904 19.1153 370.723 19.6594 374.894ZM16.7575 382.33C13.6743 389.222 14.7625 389.766 12.7675 376.708C16.3948 373.624 15.3066 373.08 16.7575 382.33ZM22.1985 388.315C10.047 395.388 12.042 395.207 14.7625 389.766C24.1935 383.962 24.1935 382.874 22.1985 388.315ZM11.6793 395.57C23.1053 388.859 22.7426 388.496 19.2966 393.756C18.7525 394.482 20.0221 393.756 9.50287 399.378C10.2283 398.109 10.9538 396.839 11.6793 395.57ZM23.4681 383.055C13.1302 389.403 14.9438 389.403 17.8457 382.874C24.5563 378.884 24.5563 377.796 23.4681 383.055ZM24.0122 378.159C16.9389 382.33 18.0271 383.055 20.7476 375.982C24.3749 373.624 24.1935 372.718 24.0122 378.159ZM23.6494 371.811C23.8308 373.08 24.1935 372.536 21.2917 374.35C23.6494 368.002 23.1053 367.639 23.6494 371.811ZM13.6743 388.859C10.4097 395.57 11.4979 396.114 8.95877 380.154C12.7675 376.526 11.4979 375.619 13.6743 388.859ZM4.78735 386.864C7.32648 402.643 7.50784 399.922 5.51282 402.824C3.51779 397.202 3.33642 391.217 4.78735 386.864ZM15.3066 397.927C11.6793 400.648 12.042 400.467 8.05194 402.643C6.78238 403.187 6.96374 403.368 8.41467 401.011C19.6594 394.844 17.3016 395.932 15.3066 397.927Z" fill="#04943C"/>
<path d="M29.272 27.2153C23.1056 16.696 9.6845 11.2551 8.41493 11.9805C7.32674 12.706 8.77766 13.0687 9.32176 18.5097C9.6845 23.588 9.6845 30.4799 11.8609 36.1022C16.0323 47.5283 29.6348 50.2488 31.0857 49.7047C31.4484 49.5233 35.2571 37.1904 29.272 27.2153ZM14.9441 38.46C10.5913 31.5681 14.5814 34.8326 25.8261 40.0923C28.9093 46.0773 30.3602 45.5332 14.9441 38.46ZM11.3168 18.5097C11.1354 16.1519 10.41 15.6078 13.3118 19.4165C11.1354 18.3283 11.3168 18.3283 11.3168 18.5097ZM14.4 21.0488C19.2969 27.9407 19.1155 26.6712 11.6795 23.2252C11.3168 18.5097 10.5913 19.2352 14.4 21.0488ZM18.7528 27.578C22.7429 33.9258 23.831 33.3817 11.8609 27.7594C11.4982 23.0439 10.41 23.7693 18.7528 27.578ZM26.7329 26.4898C25.8261 40.6364 26.7329 38.6413 23.831 33.3817C24.3751 22.3184 23.4683 21.7743 26.7329 26.4898ZM26.9143 39.1854C27.8211 25.9457 27.0956 25.9457 29.6348 31.9308C29.9975 32.8376 29.9975 31.3867 28.7279 43.1755C28.1838 41.7246 27.6397 40.455 26.9143 39.1854ZM23.2869 22.4998C22.7429 34.4699 23.831 33.2004 20.0224 27.0339C20.3851 19.2352 19.4783 18.6911 23.2869 22.4998ZM19.4783 19.2352C18.9342 27.578 20.2037 27.0339 15.8509 20.6861C15.8509 16.3333 14.9441 15.9706 19.4783 19.2352ZM14.0373 15.9706C15.1255 16.5147 14.9441 15.9706 14.9441 19.4165C10.9541 13.7942 10.2286 14.1569 14.0373 15.9706ZM22.5615 33.7445C26.3702 40.2736 27.277 39.5482 12.7677 32.8376C11.6795 27.7594 10.2286 28.1221 22.5615 33.7445ZM16.0323 39.9109C30.5416 46.6214 28.3652 44.9892 29.8161 48.2537C23.831 46.9842 18.7528 43.7196 16.0323 39.9109ZM31.0857 37.5531C31.4484 42.0873 31.4484 41.7246 30.9043 46.2587C30.723 47.7096 30.9043 47.5283 29.8161 44.9891C30.9043 32.1122 30.5416 34.6513 31.0857 37.5531Z" fill="#04943C"/>
<path d="M94.9267 491.512C101.819 481.537 100.912 466.847 99.6422 466.121C98.3726 465.396 98.9167 466.847 94.0198 469.748C89.667 472.288 83.5006 475.371 79.3292 479.724C70.805 488.429 74.2509 501.85 75.3391 502.757C75.7018 503.12 88.3975 501.125 94.9267 491.512ZM78.6037 483.351C82.7751 476.459 81.6869 481.356 81.8683 493.87C77.6969 499.492 78.7851 500.399 78.6037 483.351ZM94.9267 471.562C96.9217 470.293 97.103 469.567 94.9267 473.738C94.9267 471.381 95.108 471.381 94.9267 471.562ZM94.0198 475.371C89.8484 482.807 90.9366 482.081 90.7552 473.738C94.9267 471.562 94.0198 471.199 94.0198 475.371ZM90.0298 482.263C86.0397 488.792 87.1279 489.336 86.7652 476.278C90.9366 473.738 89.8484 473.013 90.0298 482.263ZM94.5639 488.973C81.5056 494.233 83.5006 494.414 87.1279 489.336C97.103 484.983 97.2844 483.895 94.5639 488.973ZM83.1379 494.596C95.4708 489.517 95.108 489.155 90.9366 493.87C90.2111 494.596 91.6621 493.87 80.5987 498.042C81.3242 496.953 82.231 495.684 83.1379 494.596ZM96.5589 484.076C85.4956 488.792 87.1279 489.155 90.9366 483.17C98.3726 480.086 98.3726 478.998 96.5589 484.076ZM97.8285 479.179C90.2111 482.444 91.118 483.169 94.9267 476.64C98.9167 474.827 98.7353 473.92 97.8285 479.179ZM98.3726 473.013C98.3726 474.283 98.7353 473.92 95.6521 475.189C98.9167 469.204 98.3726 468.842 98.3726 473.013ZM86.0397 488.248C81.6869 494.414 82.9565 495.14 82.7751 478.998C86.9465 475.915 85.8583 474.827 86.0397 488.248ZM77.6969 484.983C77.8782 500.943 78.4223 498.404 76.0646 500.943C74.795 495.14 75.5205 489.155 77.6969 484.983ZM86.4024 497.497C82.4124 499.674 82.7751 499.493 78.6037 500.943C77.1528 501.306 77.3341 501.487 79.1478 499.311C91.118 495.14 88.5788 495.865 86.4024 497.497Z" fill="#04943C"/>
<path d="M131.381 332.817C137.91 322.479 136.46 307.97 135.371 307.426C134.102 306.7 134.646 308.151 129.93 311.234C125.578 313.955 119.592 317.22 115.602 321.572C107.441 330.641 111.25 343.88 112.519 344.787C112.519 344.969 125.215 342.611 131.381 332.817ZM114.696 325.2C118.686 318.126 117.779 323.023 118.323 335.719C114.333 341.341 115.602 342.248 114.696 325.2ZM130.837 312.867C132.832 311.597 133.014 310.69 130.837 315.043C130.837 312.685 130.837 312.685 130.837 312.867ZM129.93 316.675C126.122 324.293 127.028 323.567 126.666 315.225C130.837 312.867 129.749 312.504 129.93 316.675ZM126.122 323.749C122.313 330.278 123.401 331.003 122.676 317.764C126.847 315.043 125.759 314.318 126.122 323.749ZM130.837 330.278C117.96 336.082 119.955 335.9 123.401 330.822C133.376 326.106 133.376 325.2 130.837 330.278ZM119.592 336.263C131.744 330.822 131.381 330.459 127.21 335.356C126.484 336.082 127.935 335.356 116.872 339.709C117.96 338.621 118.867 337.351 119.592 336.263ZM132.832 325.381C121.95 330.459 123.583 330.822 127.21 324.656C134.283 321.21 134.283 320.121 132.832 325.381ZM133.92 320.484C126.303 323.93 127.391 324.656 130.837 317.945C134.827 315.95 134.646 315.043 133.92 320.484ZM134.283 314.136C134.283 315.406 134.646 314.862 131.563 316.494C134.646 310.328 134.102 309.965 134.283 314.136ZM122.313 329.915C118.142 336.263 119.411 336.807 118.686 320.847C122.857 317.401 121.769 316.494 122.313 329.915ZM113.789 326.832C114.514 342.792 115.058 340.072 112.701 342.792C111.25 336.988 111.975 331.185 113.789 326.832ZM123.038 339.165C119.048 341.523 119.592 341.341 115.24 342.974C113.97 343.336 113.97 343.699 115.784 341.341C127.573 336.626 125.215 337.351 123.038 339.165Z" fill="#04943C"/>
<path d="M202.84 318.126C195.766 308.151 181.801 303.98 180.713 304.887C179.625 305.793 181.076 305.793 182.164 311.416C183.071 316.494 183.615 323.205 186.335 328.646C191.595 339.709 205.379 341.16 206.648 340.434C207.011 340.072 209.732 327.557 202.84 318.126ZM189.6 330.459C184.703 324.111 188.875 326.832 200.663 331.185C204.291 336.988 205.56 336.263 189.6 330.459ZM184.159 310.872C183.796 308.514 183.071 307.97 186.154 311.597C183.978 310.872 184.159 310.872 184.159 310.872ZM187.424 313.229C192.865 319.759 192.683 318.489 184.884 315.769C184.159 311.053 183.615 311.779 187.424 313.229ZM192.502 319.396C197.217 325.381 198.124 324.656 185.791 320.303C184.703 315.587 183.796 316.313 192.502 319.396ZM200.301 317.582C200.663 331.729 201.389 329.734 197.943 324.837C197.58 313.592 196.673 313.229 200.301 317.582ZM201.57 330.278C201.207 317.038 200.663 317.038 203.747 322.842C204.109 323.749 204.109 322.298 203.928 334.087C203.202 332.636 202.477 331.366 201.57 330.278ZM196.492 313.774C197.036 325.744 197.943 324.293 193.59 318.67C193.409 310.872 192.32 310.509 196.492 313.774ZM192.32 311.053C192.683 319.396 193.771 318.67 188.875 312.867C188.693 308.333 187.786 308.333 192.32 311.053ZM186.698 308.151C187.968 308.695 187.605 307.97 187.786 311.597C183.434 306.519 182.889 306.7 186.698 308.151ZM196.855 325.2C201.207 331.366 202.114 330.459 187.061 325.018C185.429 320.121 184.159 320.666 196.855 325.2ZM190.87 331.91C205.923 337.351 203.565 335.9 205.197 338.983C199.212 338.258 193.953 335.356 190.87 331.91ZM205.56 328.102C206.286 332.636 206.286 332.092 206.104 336.626C205.923 338.077 206.286 337.895 204.835 335.538C205.016 322.842 204.835 325.381 205.56 328.102Z" fill="#04943C"/>
<path d="M162.395 466.484C151.15 461.768 137.185 465.577 136.641 466.847C136.097 468.116 137.548 467.391 141.175 471.562C144.621 475.371 148.792 480.812 153.689 484.076C164.027 490.606 176.36 484.62 177.085 483.351C177.448 482.988 173.095 470.837 162.395 466.484ZM157.679 484.076C150.062 481.175 155.14 481.356 167.473 478.817C173.64 481.719 174.365 480.449 157.679 484.076ZM142.807 470.293C141.175 468.479 140.45 468.479 144.802 469.93C142.626 470.293 142.626 470.111 142.807 470.293ZM146.797 470.474C154.959 473.013 154.052 472.106 145.891 473.92C142.807 470.293 142.626 471.199 146.797 470.474ZM154.233 473.013C161.307 475.734 161.851 474.464 148.974 477.366C145.709 473.92 145.165 475.008 154.233 473.013ZM160.037 467.391C167.836 479.18 167.473 477.184 161.851 474.645C155.503 465.396 154.596 465.577 160.037 467.391ZM167.836 477.366C160.581 466.303 160.037 466.665 165.659 469.93C166.385 470.474 165.659 469.204 171.644 479.361C170.375 478.635 169.105 478.091 167.836 477.366ZM154.777 466.121C161.488 476.096 161.669 474.283 154.959 471.744C150.606 465.396 149.518 465.577 154.777 466.121ZM149.881 465.94C154.596 472.832 155.14 471.743 147.886 469.386C145.165 465.758 144.44 466.121 149.881 465.94ZM143.533 466.665C144.802 466.484 144.258 466.121 146.253 468.842C139.724 466.847 139.361 467.391 143.533 466.665ZM160.944 475.734C167.836 478.635 168.199 477.547 152.601 480.812C148.792 477.366 147.886 478.635 160.944 475.734ZM159.493 484.62C175.09 481.356 172.37 481.175 175.453 482.988C170.012 485.527 164.027 485.89 159.493 484.62ZM170.012 473.557C173.095 477.003 172.733 476.64 175.09 480.63C175.816 481.9 175.997 481.719 173.458 480.268C166.748 469.386 168.017 471.744 170.012 473.557Z" fill="#04943C"/>
<path d="M25.6446 478.091C32.8992 468.298 32.3551 453.788 31.2669 452.881C29.9974 451.975 30.5415 453.607 25.6446 456.327C21.1104 458.685 14.944 461.587 10.5912 465.758C1.88565 474.283 4.7875 487.704 5.8757 488.792C6.05707 488.973 18.9341 487.522 25.6446 478.091ZM9.68439 469.386C14.2185 462.675 12.949 467.572 12.5862 480.086C8.23346 485.346 9.32166 486.434 9.68439 469.386ZM26.5514 458.141C28.7278 457.053 28.9092 456.146 26.5514 460.317C26.5514 457.96 26.7328 457.96 26.5514 458.141ZM25.4632 461.95C21.1104 469.204 22.1986 468.479 22.38 460.317C26.5514 458.141 25.4632 457.778 25.4632 461.95ZM21.1104 468.66C16.939 475.008 17.8459 475.734 18.2086 462.494C22.38 459.955 21.2918 459.411 21.1104 468.66ZM25.4632 475.371C12.2235 480.268 14.2185 480.268 17.8459 475.371C28.1837 471.562 28.3651 470.474 25.4632 475.371ZM13.8558 480.63C26.3701 476.096 26.0073 475.552 21.6545 480.268C20.9291 480.993 22.38 480.268 11.1353 483.895C12.0421 482.988 12.949 481.9 13.8558 480.63ZM27.6396 470.655C16.3949 475.008 18.0272 475.371 22.0173 469.386C29.4533 466.847 29.6347 465.577 27.6396 470.655ZM29.0906 465.94C21.2918 468.842 22.1986 469.748 26.1887 463.219C30.3601 461.406 30.1788 460.499 29.0906 465.94ZM29.9974 459.592C29.9974 460.862 30.3601 460.499 27.0955 461.768C30.5415 455.965 29.9974 455.421 29.9974 459.592ZM16.939 474.464C12.4049 480.449 13.4931 481.174 13.8558 465.033C18.2086 462.131 17.3018 461.043 16.939 474.464ZM8.77756 471.018C8.41483 486.978 9.14029 484.439 6.60117 486.978C5.51297 480.993 6.4198 475.008 8.77756 471.018ZM16.939 483.714C12.949 485.89 13.3117 485.709 8.95892 486.978C7.508 487.341 7.68936 487.522 9.68439 485.527C21.8359 481.537 19.2968 482.263 16.939 483.714Z" fill="#04943C"/>
<path d="M92.3873 181.195C83.6818 172.852 69.1725 171.401 68.0843 172.308C67.1774 173.396 68.6284 173.215 70.6234 178.475C72.4371 183.19 74.4321 189.901 78.0594 194.616C85.3141 204.41 99.0979 203.322 100.186 202.233C100.549 202.052 100.912 189.175 92.3873 181.195ZM81.6867 195.886C75.5203 190.626 80.2358 192.44 92.7501 194.435C97.2842 199.513 98.5538 198.606 81.6867 195.886ZM72.6184 177.749C71.7116 175.573 70.9861 175.21 74.7948 178.112C72.6184 177.749 72.6184 177.749 72.6184 177.749ZM76.2458 179.381C82.9563 184.641 82.4122 183.553 74.2507 182.283C72.6184 177.93 72.2557 178.837 76.2458 179.381ZM82.4122 184.46C88.0345 189.538 88.9414 188.631 75.883 186.636C74.0694 182.283 73.1625 183.19 82.4122 184.46ZM89.8482 181.195C92.9314 194.979 93.2942 192.984 88.9414 188.631C86.2209 177.93 85.3141 177.568 89.8482 181.195ZM93.4755 193.347C90.5737 180.288 90.0296 180.651 94.0196 185.548C94.5637 186.455 94.201 184.822 96.3774 196.43C95.4706 195.523 94.3824 194.435 93.4755 193.347ZM85.3141 178.293C88.2159 190.082 88.76 188.45 83.5004 183.553C81.6867 175.935 80.5985 175.754 85.3141 178.293ZM80.7799 176.298C82.5936 184.46 83.6818 183.553 77.6967 178.837C76.6085 174.484 75.7017 174.484 80.7799 176.298ZM74.6135 174.666C75.883 174.847 75.5203 174.303 76.4271 177.749C70.9861 173.578 70.442 173.94 74.6135 174.666ZM87.8532 189.538C93.2942 194.797 94.0196 193.709 78.2408 191.352C75.7017 186.636 74.4321 187.543 87.8532 189.538ZM83.1377 197.155C98.9165 199.513 96.3774 198.606 98.5538 201.327C92.5687 201.689 86.9464 199.876 83.1377 197.155ZM96.9215 190.626C98.5538 194.979 98.3724 194.435 99.0979 198.969C99.2792 200.42 99.4606 200.238 97.647 198.062C95.4706 185.548 95.6519 188.087 96.9215 190.626Z" fill="#04943C"/>
<path d="M277.562 176.298C269.763 167.048 255.436 164.147 254.347 165.053C253.259 165.96 254.891 165.96 256.342 171.401C257.612 176.298 258.882 183.009 261.965 188.268C268.131 198.788 282.096 198.969 283.185 198.243C283.729 197.881 285.18 185.004 277.562 176.298ZM265.411 189.901C259.97 183.916 264.323 186.455 276.474 189.538C280.645 194.979 281.915 194.072 265.411 189.901ZM258.337 170.857C257.793 168.499 257.068 168.137 260.332 171.401C258.156 170.857 258.337 170.676 258.337 170.857ZM261.783 172.852C267.768 178.837 267.406 177.568 259.426 175.573C258.337 170.857 257.793 171.764 261.783 172.852ZM267.406 178.475C272.484 184.097 273.572 183.19 260.695 179.925C259.244 175.391 258.337 176.117 267.406 178.475ZM275.023 175.935C276.655 189.901 277.199 187.906 273.391 183.19C271.759 172.308 270.852 171.945 275.023 175.935ZM277.381 188.45C275.93 175.21 275.204 175.391 278.832 180.832C279.376 181.739 279.013 180.288 279.92 191.896C279.195 190.807 278.288 189.538 277.381 188.45ZM270.852 172.671C272.484 184.641 273.209 183.009 268.494 177.749C267.406 169.95 266.499 169.588 270.852 172.671ZM266.499 170.132C267.587 178.475 268.675 177.568 263.234 172.308C262.509 167.955 261.602 167.774 266.499 170.132ZM260.514 167.955C261.783 168.318 261.421 167.774 261.965 171.22C257.068 166.323 256.524 166.867 260.514 167.955ZM272.121 183.916C277.018 189.719 277.925 188.812 262.327 184.641C260.332 179.925 259.063 180.651 272.121 183.916ZM266.862 191.17C282.278 195.16 279.92 193.891 281.915 196.974C275.749 196.611 270.308 194.253 266.862 191.17ZM281.19 186.092C282.278 190.445 282.278 190.082 282.459 194.616C282.459 196.067 282.64 195.886 281.19 193.709C280.101 180.832 280.101 183.371 281.19 186.092Z" fill="#04943C"/>
<path d="M94.2014 406.452C84.0449 399.741 69.5356 400.829 68.8101 402.099C68.0847 403.368 69.5356 402.824 72.4374 407.721C75.1579 412.074 78.0598 418.24 82.5939 422.231C91.4809 430.573 104.902 426.946 105.809 425.858C105.99 425.495 103.814 412.799 94.2014 406.452ZM86.2213 422.775C79.3293 418.603 84.2262 419.691 96.7405 419.329C102.363 423.5 103.27 422.412 86.2213 422.775ZM74.0697 406.633C72.8002 404.638 72.0747 404.457 76.2461 406.633C74.0697 406.633 74.0697 406.452 74.0697 406.633ZM78.0598 407.54C85.4958 411.53 84.7703 410.623 76.6089 410.804C74.2511 406.633 73.8884 407.54 78.0598 407.54ZM84.9517 411.53C91.4809 415.52 92.2063 414.432 78.9666 414.794C76.2461 410.623 75.702 411.711 84.9517 411.53ZM91.4809 406.996C96.9219 420.054 96.9219 417.878 91.8436 414.432C87.4908 404.275 86.584 404.094 91.4809 406.996ZM97.2846 418.24C92.2063 405.908 91.6622 406.27 96.5591 410.623C97.2846 411.349 96.5591 409.898 100.731 420.961C99.6424 420.054 98.5542 419.147 97.2846 418.24ZM86.7654 404.819C91.6622 415.883 92.025 414.069 85.8585 410.442C82.5939 403.187 81.5057 403.187 86.7654 404.819ZM81.8685 403.731C85.1331 411.349 86.0399 410.442 79.3293 406.633C77.3343 402.643 76.4275 402.824 81.8685 403.731ZM75.5207 403.187C76.7902 403.187 76.2461 402.824 77.8784 405.908C71.712 402.643 71.3492 403.187 75.5207 403.187ZM91.1181 415.339C97.2846 419.51 98.0101 418.422 81.8685 418.785C78.6039 414.613 77.5157 415.701 91.1181 415.339ZM87.8536 423.863C103.814 423.5 101.275 422.956 103.814 425.314C98.0101 426.583 92.025 425.858 87.8536 423.863ZM100.368 414.976C102.726 418.966 102.544 418.422 103.995 422.775C104.358 424.226 104.539 424.044 102.363 422.231C97.8287 410.26 98.5542 412.618 100.368 414.976Z" fill="#04943C"/>
<path d="M374.956 387.408C386.019 382.149 392.549 369.272 391.823 368.002C391.098 366.732 390.735 368.183 385.112 368.183C380.034 368.183 373.142 367.639 367.339 369.272C355.55 372.536 351.741 385.957 352.285 387.227C352.467 387.771 364.437 392.486 374.956 387.408ZM364.981 372.173C372.054 368.365 368.608 371.992 362.442 382.874C356.094 385.595 356.638 387.045 364.981 372.173ZM385.112 370.178C387.47 370.178 388.014 369.634 384.024 371.992C385.294 370.178 385.294 370.178 385.112 370.178ZM382.392 373.08C375.137 377.433 376.407 377.252 380.397 370.178C385.113 370.178 384.387 369.453 382.392 373.08ZM375.319 377.07C368.608 380.516 369.152 381.786 375.681 370.178C380.578 369.997 380.034 368.909 375.319 377.07ZM375.863 385.05C361.898 383.055 363.711 384.144 369.152 381.604C380.216 382.874 380.76 382.149 375.863 385.05ZM363.167 384.144C376.407 386.139 376.226 385.413 370.059 387.408C369.152 387.59 370.603 387.771 358.996 385.595C360.447 385.232 361.898 384.688 363.167 384.144ZM380.216 381.967C368.245 380.335 369.515 381.605 375.863 378.34C383.662 379.247 384.206 378.34 380.216 381.967ZM383.662 378.34C375.5 377.252 375.863 378.521 382.392 374.531C386.926 375.075 387.289 374.169 383.662 378.34ZM387.47 373.262C386.745 374.35 387.47 374.169 384.024 373.806C389.828 370.178 389.465 369.634 387.47 373.262ZM368.971 380.154C362.079 383.418 362.804 384.506 370.785 370.541C375.863 369.997 375.5 368.546 368.971 380.154ZM363.349 373.08C355.368 387.045 357.182 385.05 353.918 386.139C355.731 380.335 359.359 375.619 363.349 373.08ZM364.618 388.315C360.084 388.315 360.447 388.315 356.094 387.408C354.643 387.046 354.824 387.227 357.364 386.32C369.878 388.678 367.339 388.134 364.618 388.315Z" fill="#04943C"/>
<path d="M356.457 179.019C362.805 168.681 360.991 154.171 359.721 153.446C358.452 152.721 358.996 154.171 354.28 157.255C350.109 160.157 343.942 163.421 340.134 167.955C332.154 177.205 336.325 190.445 337.413 191.17C337.957 191.533 350.653 188.994 356.457 179.019ZM339.771 171.764C343.58 164.691 342.854 169.588 343.58 182.102C339.771 187.724 340.859 188.631 339.771 171.764ZM355.55 158.887C357.545 157.617 357.726 156.711 355.731 161.063C355.55 158.887 355.55 158.887 355.55 158.887ZM354.824 162.877C351.016 170.494 352.104 169.769 351.56 161.426C355.369 158.887 354.462 158.706 354.824 162.877ZM351.016 169.95C347.388 176.661 348.477 177.205 347.57 164.147C351.56 161.245 350.472 160.701 351.016 169.95ZM355.913 176.298C343.036 182.283 345.212 182.283 348.477 177.024C358.452 172.127 358.452 171.22 355.913 176.298ZM344.849 182.646C356.819 177.024 356.638 176.479 352.467 181.558C351.741 182.283 353.192 181.558 342.31 186.273C343.217 185.004 344.124 183.734 344.849 182.646ZM357.726 171.401C346.844 176.661 348.658 177.024 352.104 170.676C359.177 167.411 359.177 166.142 357.726 171.401ZM358.814 166.504C351.378 170.132 352.285 170.857 355.731 163.965C359.54 161.97 359.359 161.063 358.814 166.504ZM358.996 160.157C358.996 161.426 359.54 160.882 356.457 162.514C359.359 156.348 358.814 155.985 358.996 160.157ZM347.388 176.117C343.398 182.465 344.668 183.009 343.58 167.048C347.57 163.784 346.482 162.696 347.388 176.117ZM338.864 173.396C339.952 189.356 340.315 186.636 338.139 189.356C336.506 183.553 337.051 177.749 338.864 173.396ZM348.295 185.366C344.487 187.906 344.849 187.543 340.678 189.356C339.408 189.901 339.408 190.082 341.222 187.724C352.829 182.827 350.472 183.553 348.295 185.366Z" fill="#04943C"/>
<path d="M429.366 163.784C434.263 152.721 430.817 138.574 429.547 138.03C428.278 137.486 429.003 138.937 424.65 142.564C420.842 145.829 415.219 150 411.955 154.897C405.244 165.053 410.867 177.568 412.136 178.293C412.499 178.474 424.65 174.303 429.366 163.784ZM411.955 158.524C414.857 150.907 414.675 155.985 417.033 168.318C413.768 174.484 415.038 175.391 411.955 158.524ZM425.92 144.015C427.734 142.383 427.734 141.657 426.283 146.01C425.92 143.834 426.101 143.834 425.92 144.015ZM425.739 148.005C423.018 155.985 423.925 155.26 422.293 147.098C425.92 144.015 424.832 143.834 425.739 148.005ZM422.837 155.441C419.935 162.514 421.204 163.058 418.665 150C422.293 146.735 421.023 146.373 422.837 155.441ZM428.459 161.245C416.489 168.681 418.665 168.499 421.204 162.877C430.454 156.892 430.273 155.804 428.459 161.245ZM418.303 168.862C429.547 161.789 429.185 161.426 425.739 166.867C425.194 167.593 426.464 166.867 416.126 172.671C416.852 171.401 417.577 170.132 418.303 168.862ZM429.729 156.166C419.572 162.696 421.386 162.877 424.106 156.166C430.635 151.814 430.454 150.725 429.729 156.166ZM430.091 151.088C423.018 155.622 424.288 156.166 426.645 149.093C430.454 146.554 430.091 145.647 430.091 151.088ZM429.547 144.74C429.729 146.01 430.091 145.466 427.189 147.461C429.366 140.932 428.822 140.75 429.547 144.74ZM420.116 162.152C417.033 169.043 418.303 169.406 415.219 153.627C418.665 149.819 417.396 148.912 420.116 162.152ZM411.229 160.338C414.312 176.117 414.312 173.396 412.499 176.298C410.141 170.857 409.778 164.872 411.229 160.338ZM422.111 171.22C418.665 174.122 419.028 173.94 415.038 176.117C413.768 176.842 413.95 176.842 415.401 174.484C426.283 167.955 423.925 169.043 422.111 171.22Z" fill="#04943C"/>
<rect width="504" height="506" fill="url(#paint0_linear)"/>
<defs>
<linearGradient id="paint0_linear" x1="252" y1="0" x2="252" y2="506" gradientUnits="userSpaceOnUse">
<stop stop-color="#00593C" stop-opacity="0"/>
<stop offset="1" stop-color="#00593C"/>
</linearGradient>
</defs>
</svg>
